G04 (created by PCBNEW-RS274X (2011-nov-30)-testing) date Thu 02 Feb 2012 01:29:47 AM PST*
G01*
G70*
G90*
%MOIN*%
G04 Gerber Fmt 3.4, Leading zero omitted, Abs format*
%FSLAX34Y34*%
G04 APERTURE LIST*
%ADD10C,0.006000*%
%ADD11C,0.075000*%
%ADD12R,0.075000X0.075000*%
%ADD13C,0.090000*%
%ADD14R,0.090000X0.090000*%
%ADD15R,0.080000X0.080000*%
%ADD16C,0.080000*%
%ADD17C,0.180000*%
%ADD18C,0.138100*%
%ADD19C,0.079100*%
%ADD20O,0.157800X0.098700*%
%ADD21O,0.098700X0.157800*%
%ADD22C,0.071200*%
%ADD23C,0.075100*%
%ADD24C,0.083000*%
%ADD25R,0.083000X0.083000*%
%ADD26C,0.090900*%
%ADD27C,0.063300*%
%ADD28C,0.098700*%
%ADD29C,0.086000*%
%ADD30O,0.071200X0.144000*%
%ADD31O,0.059400X0.075100*%
G04 APERTURE END LIST*
G54D10*
%LPC*%
G54D11*
X37353Y-30473D03*
X38720Y-30473D03*
X35472Y-27236D03*
X35472Y-28603D03*
X35472Y-30425D03*
X35472Y-31792D03*
X31929Y-44812D03*
X31929Y-43445D03*
X29007Y-44409D03*
X30374Y-44409D03*
X31929Y-40582D03*
X31929Y-41949D03*
X33347Y-43693D03*
X33347Y-45060D03*
X25306Y-50472D03*
X26673Y-50472D03*
X40354Y-48259D03*
X40354Y-49626D03*
X32331Y-28741D03*
X30964Y-28741D03*
X26133Y-42520D03*
X27500Y-42520D03*
X26811Y-39086D03*
X26811Y-40453D03*
X30346Y-33858D03*
X31713Y-33858D03*
X27196Y-33819D03*
X28563Y-33819D03*
X30166Y-46260D03*
X28799Y-46260D03*
X21260Y-47039D03*
X21260Y-48406D03*
X30276Y-49204D03*
X30276Y-50571D03*
X38355Y-49488D03*
X36988Y-49488D03*
X40875Y-41378D03*
X39508Y-41378D03*
X38141Y-42874D03*
X39508Y-42874D03*
X39536Y-44488D03*
X38169Y-44488D03*
X41260Y-27393D03*
X41260Y-28760D03*
X42835Y-27393D03*
X42835Y-28760D03*
X28543Y-50363D03*
X28543Y-48996D03*
X38898Y-33788D03*
X38898Y-32421D03*
G54D12*
X36650Y-39492D03*
G54D11*
X37650Y-39492D03*
X38650Y-39492D03*
X39650Y-39492D03*
X39650Y-36492D03*
X38650Y-36492D03*
X37650Y-36492D03*
X36650Y-36492D03*
G54D13*
X42134Y-37756D03*
G54D14*
X46134Y-37756D03*
G54D13*
X45905Y-26306D03*
G54D14*
X45905Y-30306D03*
G54D13*
X44212Y-26306D03*
G54D14*
X44212Y-30306D03*
G54D13*
X39843Y-26307D03*
G54D14*
X39843Y-30307D03*
G54D12*
X40516Y-23465D03*
G54D11*
X37516Y-23465D03*
G54D12*
X40516Y-24724D03*
G54D11*
X37516Y-24724D03*
X23835Y-30669D03*
X21835Y-30669D03*
X43095Y-36220D03*
X45095Y-36220D03*
X43134Y-32126D03*
X45134Y-32126D03*
X37165Y-34543D03*
X37165Y-32543D03*
X37260Y-41417D03*
X35260Y-41417D03*
X33488Y-47953D03*
X35488Y-47953D03*
X32126Y-49197D03*
X32126Y-51197D03*
X42047Y-42858D03*
X42047Y-44858D03*
X27244Y-48402D03*
X27244Y-46402D03*
X22992Y-46362D03*
X22992Y-48362D03*
X33346Y-39039D03*
X33346Y-41039D03*
X21835Y-35157D03*
X23835Y-35157D03*
X28843Y-47953D03*
X30843Y-47953D03*
X23480Y-44449D03*
X21480Y-44449D03*
X30983Y-32024D03*
X30983Y-30024D03*
X23835Y-27362D03*
X21835Y-27362D03*
X21835Y-31811D03*
X23835Y-31811D03*
X23835Y-36339D03*
X21835Y-36339D03*
X26969Y-30961D03*
X26969Y-28961D03*
X30928Y-27442D03*
X32928Y-27442D03*
X25157Y-40449D03*
X25157Y-38449D03*
X27496Y-44449D03*
X25496Y-44449D03*
G54D15*
X45264Y-42142D03*
G54D16*
X44264Y-42142D03*
X45264Y-41142D03*
X44264Y-41142D03*
X45264Y-40142D03*
X44264Y-40142D03*
G54D17*
X22441Y-22441D03*
X44488Y-22441D03*
X22441Y-52362D03*
X44488Y-52362D03*
G54D18*
X26150Y-22980D03*
X30150Y-22980D03*
G54D19*
X28150Y-24980D03*
X27150Y-24980D03*
G54D20*
X34528Y-22913D03*
X34528Y-25315D03*
G54D21*
X36339Y-24173D03*
G54D22*
X22441Y-28504D03*
X24410Y-29606D03*
X24410Y-34055D03*
X22441Y-32953D03*
X29527Y-28425D03*
X28425Y-30394D03*
X28976Y-29410D03*
G54D23*
X43445Y-34134D03*
X43937Y-34725D03*
X43937Y-33543D03*
X37834Y-28170D03*
X38425Y-27678D03*
X37243Y-27678D03*
X25413Y-47638D03*
X24921Y-47047D03*
X24921Y-48229D03*
X33601Y-30946D03*
X33109Y-30355D03*
X33109Y-31537D03*
X29409Y-42106D03*
X30000Y-41614D03*
X28818Y-41614D03*
G54D24*
X29606Y-38701D03*
X30504Y-38701D03*
G54D25*
X28708Y-38701D03*
G54D26*
X21221Y-41851D03*
X23189Y-41851D03*
X22205Y-37913D03*
G54D27*
X28740Y-52992D03*
X26850Y-52992D03*
G54D28*
X36811Y-43976D03*
X34843Y-43976D03*
X34528Y-51260D03*
X34528Y-49292D03*
G54D29*
X36902Y-52205D03*
X37902Y-52205D03*
X38346Y-47154D03*
X38346Y-46154D03*
X40012Y-52205D03*
X41012Y-52205D03*
G54D30*
X39124Y-20541D03*
X41270Y-20541D03*
G54D31*
X39242Y-21547D03*
X41152Y-21547D03*
G54D16*
X43721Y-44862D03*
X45689Y-44862D03*
M02*
