G04 (created by PCBNEW-RS274X (2011-nov-30)-testing) date Mon 05 Mar 2012 05:04:35 PM PST*
G01*
G70*
G90*
%MOIN*%
G04 Gerber Fmt 3.4, Leading zero omitted, Abs format*
%FSLAX34Y34*%
G04 APERTURE LIST*
%ADD10C,0.006000*%
%ADD11C,0.015000*%
%ADD12C,0.075000*%
%ADD13R,0.075000X0.075000*%
%ADD14C,0.090000*%
%ADD15R,0.090000X0.090000*%
%ADD16R,0.080000X0.080000*%
%ADD17C,0.080000*%
%ADD18C,0.138100*%
%ADD19C,0.079100*%
%ADD20C,0.071200*%
%ADD21C,0.075100*%
%ADD22C,0.083000*%
%ADD23R,0.083000X0.083000*%
%ADD24C,0.090900*%
%ADD25C,0.063300*%
%ADD26C,0.098700*%
%ADD27C,0.086000*%
%ADD28O,0.157800X0.098700*%
%ADD29O,0.098700X0.157800*%
%ADD30C,0.180000*%
%ADD31C,0.149900*%
G04 APERTURE END LIST*
G54D10*
G54D11*
X45276Y-55118D02*
X45447Y-55110D01*
X45617Y-55088D01*
X45785Y-55050D01*
X45949Y-54999D01*
X46107Y-54933D01*
X46260Y-54854D01*
X46404Y-54762D01*
X46541Y-54657D01*
X46667Y-54541D01*
X46783Y-54415D01*
X46888Y-54278D01*
X46980Y-54133D01*
X47059Y-53981D01*
X47125Y-53823D01*
X47176Y-53659D01*
X47214Y-53491D01*
X47236Y-53321D01*
X47244Y-53150D01*
X19686Y-53150D02*
X19694Y-53321D01*
X19716Y-53491D01*
X19754Y-53659D01*
X19805Y-53823D01*
X19871Y-53981D01*
X19950Y-54133D01*
X20042Y-54278D01*
X20147Y-54415D01*
X20263Y-54541D01*
X20389Y-54657D01*
X20526Y-54762D01*
X20671Y-54854D01*
X20823Y-54933D01*
X20981Y-54999D01*
X21145Y-55050D01*
X21313Y-55088D01*
X21483Y-55110D01*
X21654Y-55118D01*
X21654Y-19685D02*
X21483Y-19693D01*
X21313Y-19715D01*
X21145Y-19753D01*
X20981Y-19804D01*
X20822Y-19870D01*
X20670Y-19949D01*
X20525Y-20042D01*
X20389Y-20146D01*
X20262Y-20262D01*
X20146Y-20389D01*
X20042Y-20525D01*
X19949Y-20670D01*
X19870Y-20822D01*
X19804Y-20981D01*
X19753Y-21145D01*
X19715Y-21313D01*
X19693Y-21483D01*
X19685Y-21654D01*
X47245Y-21654D02*
X47237Y-21483D01*
X47215Y-21313D01*
X47177Y-21145D01*
X47126Y-20981D01*
X47060Y-20822D01*
X46981Y-20670D01*
X46888Y-20525D01*
X46784Y-20389D01*
X46668Y-20262D01*
X46541Y-20146D01*
X46405Y-20042D01*
X46260Y-19949D01*
X46108Y-19870D01*
X45949Y-19804D01*
X45785Y-19753D01*
X45617Y-19715D01*
X45447Y-19693D01*
X45276Y-19685D01*
X21654Y-19685D02*
X45276Y-19685D01*
X47244Y-53150D02*
X47244Y-21654D01*
X21654Y-55118D02*
X45276Y-55118D01*
X19685Y-21654D02*
X19685Y-53150D01*
G54D12*
X37353Y-30473D03*
X38720Y-30473D03*
X35472Y-27236D03*
X35472Y-28603D03*
X35472Y-30425D03*
X35472Y-31792D03*
X31929Y-44812D03*
X31929Y-43445D03*
X29007Y-44409D03*
X30374Y-44409D03*
X31929Y-40582D03*
X31929Y-41949D03*
X33347Y-43693D03*
X33347Y-45060D03*
X25306Y-50472D03*
X26673Y-50472D03*
X40354Y-48259D03*
X40354Y-49626D03*
X32331Y-28741D03*
X30964Y-28741D03*
X26133Y-42520D03*
X27500Y-42520D03*
X27106Y-39086D03*
X27106Y-40453D03*
X30346Y-33858D03*
X31713Y-33858D03*
X27196Y-33819D03*
X28563Y-33819D03*
X30166Y-46260D03*
X28799Y-46260D03*
X21260Y-47039D03*
X21260Y-48406D03*
X30276Y-49204D03*
X30276Y-50571D03*
X38355Y-49488D03*
X36988Y-49488D03*
X40875Y-41378D03*
X39508Y-41378D03*
X38141Y-42874D03*
X39508Y-42874D03*
X39536Y-44488D03*
X38169Y-44488D03*
X41260Y-27393D03*
X41260Y-28760D03*
X42835Y-27393D03*
X42835Y-28760D03*
X28543Y-50363D03*
X28543Y-48996D03*
X38898Y-33788D03*
X38898Y-32421D03*
G54D13*
X36650Y-39492D03*
G54D12*
X37650Y-39492D03*
X38650Y-39492D03*
X39650Y-39492D03*
X39650Y-36492D03*
X38650Y-36492D03*
X37650Y-36492D03*
X36650Y-36492D03*
G54D14*
X42134Y-37756D03*
G54D15*
X46134Y-37756D03*
G54D14*
X45905Y-26306D03*
G54D15*
X45905Y-30306D03*
G54D14*
X44212Y-26306D03*
G54D15*
X44212Y-30306D03*
G54D14*
X39843Y-26307D03*
G54D15*
X39843Y-30307D03*
G54D13*
X40437Y-25256D03*
G54D12*
X37437Y-25256D03*
G54D13*
X42909Y-25256D03*
G54D12*
X45909Y-25256D03*
X23835Y-30669D03*
X21835Y-30669D03*
X43095Y-36220D03*
X45095Y-36220D03*
X43134Y-32126D03*
X45134Y-32126D03*
X37165Y-34543D03*
X37165Y-32543D03*
X37260Y-41417D03*
X35260Y-41417D03*
X33488Y-47953D03*
X35488Y-47953D03*
X32126Y-49197D03*
X32126Y-51197D03*
X42047Y-42858D03*
X42047Y-44858D03*
X27244Y-48402D03*
X27244Y-46402D03*
X22992Y-46362D03*
X22992Y-48362D03*
X33346Y-39039D03*
X33346Y-41039D03*
X21835Y-35157D03*
X23835Y-35157D03*
X28843Y-47953D03*
X30843Y-47953D03*
X23480Y-44449D03*
X21480Y-44449D03*
X30984Y-30024D03*
X30984Y-32024D03*
X23835Y-27362D03*
X21835Y-27362D03*
X21835Y-31811D03*
X23835Y-31811D03*
X23835Y-36339D03*
X21835Y-36339D03*
X26969Y-30961D03*
X26969Y-28961D03*
X30928Y-27442D03*
X32928Y-27442D03*
X24350Y-40469D03*
X24350Y-38469D03*
X27496Y-44449D03*
X25496Y-44449D03*
G54D16*
X45264Y-42142D03*
G54D17*
X44264Y-42142D03*
X45264Y-41142D03*
X44264Y-41142D03*
X45264Y-40142D03*
X44264Y-40142D03*
G54D18*
X25717Y-22980D03*
X29717Y-22980D03*
G54D19*
X27717Y-24980D03*
X26717Y-24980D03*
G54D20*
X22441Y-28504D03*
X24410Y-29606D03*
X24410Y-34055D03*
X22441Y-32953D03*
X29527Y-28425D03*
X28425Y-30394D03*
X28976Y-29410D03*
G54D21*
X43445Y-34134D03*
X43937Y-34725D03*
X43937Y-33543D03*
X37834Y-28170D03*
X38425Y-27678D03*
X37243Y-27678D03*
X25413Y-47638D03*
X24921Y-47047D03*
X24921Y-48229D03*
X33601Y-30946D03*
X33109Y-30355D03*
X33109Y-31537D03*
X29409Y-42106D03*
X30000Y-41614D03*
X28818Y-41614D03*
G54D22*
X29606Y-38701D03*
X30504Y-38701D03*
G54D23*
X28708Y-38701D03*
G54D24*
X20945Y-41812D03*
X22913Y-41812D03*
X21929Y-37874D03*
G54D25*
X28740Y-52992D03*
X26850Y-52992D03*
G54D26*
X36811Y-43976D03*
X34843Y-43976D03*
X34528Y-51260D03*
X34528Y-49292D03*
G54D27*
X36902Y-52205D03*
X37902Y-52205D03*
X38346Y-47154D03*
X38346Y-46154D03*
X40012Y-52205D03*
X41012Y-52205D03*
G54D17*
X43721Y-44862D03*
X45689Y-44862D03*
G54D28*
X33681Y-22933D03*
X33681Y-25335D03*
G54D29*
X31870Y-24193D03*
G54D30*
X22441Y-22441D03*
X44488Y-22441D03*
X44488Y-52362D03*
X22441Y-52362D03*
G54D12*
X25610Y-39086D03*
X25610Y-40453D03*
G54D21*
X38484Y-23760D03*
X39468Y-23760D03*
X39468Y-22973D03*
X38484Y-22973D03*
G54D31*
X41346Y-21902D03*
X36606Y-21902D03*
M02*
