M48
;DRILL file {Pcbnew (2011-nov-30)-testing} date Thu 02 Feb 2012 12:25:45 PM PST
;FORMAT={-:-/ absolute / inch / decimal}
FMAT,2
INCH,TZ
T1C0.024
T2C0.025
T3C0.026
T4C0.028
T5C0.032
T6C0.032
T7C0.035
T8C0.039
T9C0.040
T10C0.047
T11C0.051
T12C0.079
T13C0.120
%
G90
G05
M72
T1
X2.685Y-5.299
X2.874Y-5.299
T2
X4.329Y-2.545
T5
X2.492Y-4.705
X2.492Y-4.823
X2.541Y-4.764
X2.882Y-4.161
X2.941Y-4.211
X3.000Y-4.161
X3.311Y-3.036
X3.311Y-3.154
X3.360Y-3.095
X3.724Y-2.768
X3.783Y-2.817
X3.843Y-2.768
X4.345Y-3.413
X4.394Y-3.354
X4.394Y-3.473
T6
X2.126Y-4.704
X2.126Y-4.841
X2.148Y-4.445
X2.183Y-2.736
X2.183Y-3.067
X2.183Y-3.181
X2.183Y-3.516
X2.183Y-3.634
X2.244Y-2.850
X2.244Y-3.295
X2.299Y-4.636
X2.299Y-4.836
X2.348Y-4.445
X2.384Y-2.736
X2.384Y-3.067
X2.384Y-3.181
X2.384Y-3.516
X2.384Y-3.634
X2.441Y-2.961
X2.441Y-3.405
X2.516Y-3.845
X2.516Y-4.045
X2.531Y-5.047
X2.550Y-4.445
X2.613Y-4.252
X2.667Y-5.047
X2.681Y-3.909
X2.681Y-4.045
X2.697Y-2.896
X2.697Y-3.096
X2.720Y-3.382
X2.724Y-4.640
X2.724Y-4.840
X2.750Y-4.445
X2.750Y-4.252
X2.843Y-3.039
X2.854Y-4.900
X2.854Y-5.036
X2.856Y-3.382
X2.880Y-4.626
X2.884Y-4.795
X2.898Y-2.941
X2.901Y-4.441
X2.953Y-2.843
X3.017Y-4.626
X3.028Y-4.920
X3.028Y-5.057
X3.035Y-3.386
X3.037Y-4.441
X3.084Y-4.795
X3.093Y-2.744
X3.096Y-2.874
X3.098Y-3.002
X3.098Y-3.202
X3.171Y-3.386
X3.193Y-4.058
X3.193Y-4.195
X3.193Y-4.345
X3.193Y-4.481
X3.213Y-4.920
X3.213Y-5.120
X3.233Y-2.874
X3.293Y-2.744
X3.335Y-3.904
X3.335Y-4.104
X3.335Y-4.369
X3.335Y-4.506
X3.349Y-4.795
X3.526Y-4.142
X3.547Y-2.724
X3.547Y-2.860
X3.547Y-3.042
X3.547Y-3.179
X3.549Y-4.795
X3.665Y-3.649
X3.665Y-3.949
X3.690Y-5.221
X3.699Y-4.949
X3.717Y-3.254
X3.717Y-3.454
X3.726Y-4.142
X3.735Y-3.047
X3.752Y-2.347
X3.752Y-2.472
X3.765Y-3.649
X3.765Y-3.949
X3.790Y-5.221
X3.814Y-4.287
X3.817Y-4.449
X3.835Y-4.615
X3.835Y-4.715
X3.836Y-4.949
X3.865Y-3.649
X3.865Y-3.949
X3.872Y-3.047
X3.890Y-3.242
X3.890Y-3.379
X3.951Y-4.138
X3.951Y-4.287
X3.954Y-4.449
X3.965Y-3.649
X3.965Y-3.949
X4.001Y-5.221
X4.035Y-4.826
X4.035Y-4.963
X4.052Y-2.347
X4.052Y-2.472
X4.088Y-4.138
X4.101Y-5.221
X4.126Y-2.739
X4.126Y-2.876
X4.205Y-4.286
X4.205Y-4.486
X4.284Y-2.739
X4.284Y-2.876
X4.309Y-3.622
X4.313Y-3.213
X4.510Y-3.622
X4.513Y-3.213
T7
X2.715Y-2.498
X2.815Y-2.498
T8
X2.871Y-3.870
X2.961Y-3.870
X3.050Y-3.870
T9
X3.984Y-2.631
X3.984Y-3.031
X4.213Y-3.776
X4.372Y-4.486
X4.421Y-2.631
X4.421Y-3.031
X4.426Y-4.014
X4.426Y-4.114
X4.426Y-4.214
X4.526Y-4.014
X4.526Y-4.114
X4.526Y-4.214
X4.569Y-4.486
X4.591Y-2.631
X4.591Y-3.031
X4.613Y-3.776
T10
X2.122Y-4.185
X2.220Y-3.791
X2.319Y-4.185
T11
X3.453Y-4.929
X3.453Y-5.126
X3.484Y-4.398
X3.681Y-4.398
T12
X2.615Y-2.298
X3.015Y-2.298
T13
X2.244Y-2.244
X2.244Y-5.236
X4.449Y-2.244
X4.449Y-5.236
T3
X3.924Y-2.163G85X3.924Y-2.147
G05
X4.115Y-2.163G85X4.115Y-2.147
G05
T4
X3.912Y-2.045G85X3.912Y-2.026
G05
X4.127Y-2.045G85X4.127Y-2.026
G05
T8
X3.272Y-2.447G85X3.272Y-2.388
G05
X3.482Y-2.291G85X3.423Y-2.291
G05
X3.482Y-2.532G85X3.423Y-2.532
G05
T0
M30
