G04 (created by PCBNEW-RS274X (2011-nov-30)-testing) date Thu 02 Feb 2012 12:30:29 PM PST*
G01*
G70*
G90*
%MOIN*%
G04 Gerber Fmt 3.4, Leading zero omitted, Abs format*
%FSLAX34Y34*%
G04 APERTURE LIST*
%ADD10C,0.006000*%
%ADD11C,0.012000*%
%ADD12C,0.007900*%
%ADD13C,0.015000*%
%ADD14C,0.010000*%
%ADD15C,0.008000*%
%ADD16C,0.003000*%
%ADD17C,0.000100*%
%ADD18C,0.075000*%
%ADD19R,0.075000X0.075000*%
%ADD20C,0.090000*%
%ADD21R,0.090000X0.090000*%
%ADD22R,0.080000X0.080000*%
%ADD23C,0.080000*%
%ADD24C,0.180000*%
%ADD25C,0.138100*%
%ADD26C,0.079100*%
%ADD27C,0.071200*%
%ADD28C,0.075100*%
%ADD29C,0.083000*%
%ADD30R,0.083000X0.083000*%
%ADD31C,0.090900*%
%ADD32C,0.063300*%
%ADD33C,0.098700*%
%ADD34C,0.086000*%
%ADD35O,0.071200X0.144000*%
%ADD36O,0.059400X0.075100*%
%ADD37R,0.076100X0.118400*%
%ADD38R,0.035700X0.088900*%
%ADD39O,0.157800X0.098700*%
%ADD40O,0.098700X0.157800*%
G04 APERTURE END LIST*
G54D10*
G54D11*
X43312Y-24176D02*
X43312Y-24570D01*
X43190Y-23951D02*
X43069Y-24373D01*
X43385Y-24373D01*
X43532Y-23979D02*
X43849Y-23979D01*
X43678Y-24204D01*
X43752Y-24204D01*
X43800Y-24232D01*
X43825Y-24260D01*
X43849Y-24316D01*
X43849Y-24457D01*
X43825Y-24513D01*
X43800Y-24542D01*
X43752Y-24570D01*
X43605Y-24570D01*
X43557Y-24542D01*
X43532Y-24513D01*
X44288Y-23979D02*
X44191Y-23979D01*
X44142Y-24007D01*
X44118Y-24035D01*
X44069Y-24119D01*
X44045Y-24232D01*
X44045Y-24457D01*
X44069Y-24513D01*
X44093Y-24542D01*
X44142Y-24570D01*
X44240Y-24570D01*
X44288Y-24542D01*
X44313Y-24513D01*
X44337Y-24457D01*
X44337Y-24316D01*
X44313Y-24260D01*
X44288Y-24232D01*
X44240Y-24204D01*
X44142Y-24204D01*
X44093Y-24232D01*
X44069Y-24260D01*
X44045Y-24316D01*
X44630Y-24232D02*
X44581Y-24204D01*
X44557Y-24176D01*
X44533Y-24119D01*
X44533Y-24091D01*
X44557Y-24035D01*
X44581Y-24007D01*
X44630Y-23979D01*
X44728Y-23979D01*
X44776Y-24007D01*
X44801Y-24035D01*
X44825Y-24091D01*
X44825Y-24119D01*
X44801Y-24176D01*
X44776Y-24204D01*
X44728Y-24232D01*
X44630Y-24232D01*
X44581Y-24260D01*
X44557Y-24288D01*
X44533Y-24345D01*
X44533Y-24457D01*
X44557Y-24513D01*
X44581Y-24542D01*
X44630Y-24570D01*
X44728Y-24570D01*
X44776Y-24542D01*
X44801Y-24513D01*
X44825Y-24457D01*
X44825Y-24345D01*
X44801Y-24288D01*
X44776Y-24260D01*
X44728Y-24232D01*
X45264Y-23979D02*
X45167Y-23979D01*
X45118Y-24007D01*
X45094Y-24035D01*
X45045Y-24119D01*
X45021Y-24232D01*
X45021Y-24457D01*
X45045Y-24513D01*
X45069Y-24542D01*
X45118Y-24570D01*
X45216Y-24570D01*
X45264Y-24542D01*
X45289Y-24513D01*
X45313Y-24457D01*
X45313Y-24316D01*
X45289Y-24260D01*
X45264Y-24232D01*
X45216Y-24204D01*
X45118Y-24204D01*
X45069Y-24232D01*
X45045Y-24260D01*
X45021Y-24316D01*
X45533Y-24345D02*
X45923Y-24345D01*
X46338Y-24260D02*
X46411Y-24288D01*
X46435Y-24316D01*
X46459Y-24373D01*
X46459Y-24457D01*
X46435Y-24513D01*
X46411Y-24542D01*
X46362Y-24570D01*
X46167Y-24570D01*
X46167Y-23979D01*
X46338Y-23979D01*
X46386Y-24007D01*
X46411Y-24035D01*
X46435Y-24091D01*
X46435Y-24148D01*
X46411Y-24204D01*
X46386Y-24232D01*
X46338Y-24260D01*
X46167Y-24260D01*
G54D12*
X43750Y-49988D02*
X43750Y-49913D01*
X43775Y-49876D01*
X43823Y-49838D01*
X43921Y-49819D01*
X44092Y-49819D01*
X44189Y-49838D01*
X44238Y-49876D01*
X44262Y-49913D01*
X44262Y-49988D01*
X44238Y-50026D01*
X44189Y-50063D01*
X44092Y-50082D01*
X43921Y-50082D01*
X43823Y-50063D01*
X43775Y-50026D01*
X43750Y-49988D01*
X43921Y-49650D02*
X44433Y-49650D01*
X43945Y-49650D02*
X43921Y-49613D01*
X43921Y-49538D01*
X43945Y-49500D01*
X43970Y-49481D01*
X44018Y-49463D01*
X44165Y-49463D01*
X44213Y-49481D01*
X44238Y-49500D01*
X44262Y-49538D01*
X44262Y-49613D01*
X44238Y-49650D01*
X44238Y-49144D02*
X44262Y-49182D01*
X44262Y-49257D01*
X44238Y-49294D01*
X44189Y-49313D01*
X43994Y-49313D01*
X43945Y-49294D01*
X43921Y-49257D01*
X43921Y-49182D01*
X43945Y-49144D01*
X43994Y-49125D01*
X44043Y-49125D01*
X44092Y-49313D01*
X43921Y-48956D02*
X44262Y-48956D01*
X43970Y-48956D02*
X43945Y-48937D01*
X43921Y-48900D01*
X43921Y-48844D01*
X43945Y-48806D01*
X43994Y-48787D01*
X44262Y-48787D01*
X43994Y-48469D02*
X44018Y-48413D01*
X44043Y-48394D01*
X44092Y-48375D01*
X44165Y-48375D01*
X44213Y-48394D01*
X44238Y-48413D01*
X44262Y-48450D01*
X44262Y-48600D01*
X43750Y-48600D01*
X43750Y-48469D01*
X43775Y-48431D01*
X43799Y-48413D01*
X43848Y-48394D01*
X43897Y-48394D01*
X43945Y-48413D01*
X43970Y-48431D01*
X43994Y-48469D01*
X43994Y-48600D01*
X44238Y-48056D02*
X44262Y-48094D01*
X44262Y-48169D01*
X44238Y-48206D01*
X44189Y-48225D01*
X43994Y-48225D01*
X43945Y-48206D01*
X43921Y-48169D01*
X43921Y-48094D01*
X43945Y-48056D01*
X43994Y-48037D01*
X44043Y-48037D01*
X44092Y-48225D01*
X44262Y-47699D02*
X43994Y-47699D01*
X43945Y-47718D01*
X43921Y-47756D01*
X43921Y-47831D01*
X43945Y-47868D01*
X44238Y-47699D02*
X44262Y-47737D01*
X44262Y-47831D01*
X44238Y-47868D01*
X44189Y-47887D01*
X44140Y-47887D01*
X44092Y-47868D01*
X44067Y-47831D01*
X44067Y-47737D01*
X44043Y-47699D01*
X44238Y-47343D02*
X44262Y-47381D01*
X44262Y-47456D01*
X44238Y-47493D01*
X44213Y-47512D01*
X44165Y-47531D01*
X44018Y-47531D01*
X43970Y-47512D01*
X43945Y-47493D01*
X43921Y-47456D01*
X43921Y-47381D01*
X43945Y-47343D01*
X44262Y-47118D02*
X44238Y-47155D01*
X44213Y-47174D01*
X44165Y-47193D01*
X44018Y-47193D01*
X43970Y-47174D01*
X43945Y-47155D01*
X43921Y-47118D01*
X43921Y-47062D01*
X43945Y-47024D01*
X43970Y-47005D01*
X44018Y-46987D01*
X44165Y-46987D01*
X44213Y-47005D01*
X44238Y-47024D01*
X44262Y-47062D01*
X44262Y-47118D01*
X43921Y-46818D02*
X44262Y-46818D01*
X43970Y-46818D02*
X43945Y-46799D01*
X43921Y-46762D01*
X43921Y-46706D01*
X43945Y-46668D01*
X43994Y-46649D01*
X44262Y-46649D01*
X45033Y-49913D02*
X45057Y-49951D01*
X45057Y-50026D01*
X45033Y-50063D01*
X44984Y-50082D01*
X44789Y-50082D01*
X44740Y-50063D01*
X44716Y-50026D01*
X44716Y-49951D01*
X44740Y-49913D01*
X44789Y-49894D01*
X44838Y-49894D01*
X44887Y-50082D01*
X44716Y-49781D02*
X44716Y-49631D01*
X44545Y-49725D02*
X44984Y-49725D01*
X45033Y-49706D01*
X45057Y-49669D01*
X45057Y-49631D01*
X45057Y-49500D02*
X44545Y-49500D01*
X45057Y-49331D02*
X44789Y-49331D01*
X44740Y-49350D01*
X44716Y-49388D01*
X44716Y-49444D01*
X44740Y-49481D01*
X44765Y-49500D01*
X45033Y-48994D02*
X45057Y-49032D01*
X45057Y-49107D01*
X45033Y-49144D01*
X44984Y-49163D01*
X44789Y-49163D01*
X44740Y-49144D01*
X44716Y-49107D01*
X44716Y-49032D01*
X44740Y-48994D01*
X44789Y-48975D01*
X44838Y-48975D01*
X44887Y-49163D01*
X45057Y-48806D02*
X44716Y-48806D01*
X44813Y-48806D02*
X44765Y-48787D01*
X44740Y-48769D01*
X44716Y-48731D01*
X44716Y-48694D01*
X45057Y-48562D02*
X44545Y-48562D01*
X44862Y-48525D02*
X45057Y-48412D01*
X44716Y-48412D02*
X44911Y-48562D01*
X45057Y-48243D02*
X44716Y-48243D01*
X44545Y-48243D02*
X44570Y-48262D01*
X44594Y-48243D01*
X44570Y-48224D01*
X44545Y-48243D01*
X44594Y-48243D01*
X44716Y-48111D02*
X44716Y-47961D01*
X44545Y-48055D02*
X44984Y-48055D01*
X45033Y-48036D01*
X45057Y-47999D01*
X45057Y-47961D01*
X45008Y-47830D02*
X45033Y-47811D01*
X45057Y-47830D01*
X45033Y-47849D01*
X45008Y-47830D01*
X45057Y-47830D01*
X45033Y-47473D02*
X45057Y-47511D01*
X45057Y-47586D01*
X45033Y-47623D01*
X45008Y-47642D01*
X44960Y-47661D01*
X44813Y-47661D01*
X44765Y-47642D01*
X44740Y-47623D01*
X44716Y-47586D01*
X44716Y-47511D01*
X44740Y-47473D01*
X45057Y-47248D02*
X45033Y-47285D01*
X45008Y-47304D01*
X44960Y-47323D01*
X44813Y-47323D01*
X44765Y-47304D01*
X44740Y-47285D01*
X44716Y-47248D01*
X44716Y-47192D01*
X44740Y-47154D01*
X44765Y-47135D01*
X44813Y-47117D01*
X44960Y-47117D01*
X45008Y-47135D01*
X45033Y-47154D01*
X45057Y-47192D01*
X45057Y-47248D01*
X45057Y-46948D02*
X44716Y-46948D01*
X44765Y-46948D02*
X44740Y-46929D01*
X44716Y-46892D01*
X44716Y-46836D01*
X44740Y-46798D01*
X44789Y-46779D01*
X45057Y-46779D01*
X44789Y-46779D02*
X44740Y-46761D01*
X44716Y-46723D01*
X44716Y-46667D01*
X44740Y-46629D01*
X44789Y-46610D01*
X45057Y-46610D01*
X45389Y-50082D02*
X45365Y-50063D01*
X45340Y-50026D01*
X45340Y-49932D01*
X45365Y-49894D01*
X45389Y-49876D01*
X45438Y-49857D01*
X45487Y-49857D01*
X45560Y-49876D01*
X45852Y-50101D01*
X45852Y-49857D01*
X45340Y-49613D02*
X45340Y-49576D01*
X45365Y-49538D01*
X45389Y-49519D01*
X45438Y-49501D01*
X45535Y-49482D01*
X45657Y-49482D01*
X45755Y-49501D01*
X45803Y-49519D01*
X45828Y-49538D01*
X45852Y-49576D01*
X45852Y-49613D01*
X45828Y-49651D01*
X45803Y-49669D01*
X45755Y-49688D01*
X45657Y-49707D01*
X45535Y-49707D01*
X45438Y-49688D01*
X45389Y-49669D01*
X45365Y-49651D01*
X45340Y-49613D01*
X45852Y-49107D02*
X45852Y-49332D01*
X45852Y-49219D02*
X45340Y-49219D01*
X45413Y-49257D01*
X45462Y-49294D01*
X45487Y-49332D01*
X45389Y-48957D02*
X45365Y-48938D01*
X45340Y-48901D01*
X45340Y-48807D01*
X45365Y-48769D01*
X45389Y-48751D01*
X45438Y-48732D01*
X45487Y-48732D01*
X45560Y-48751D01*
X45852Y-48976D01*
X45852Y-48732D01*
X46598Y-49838D02*
X46623Y-49857D01*
X46647Y-49913D01*
X46647Y-49951D01*
X46623Y-50007D01*
X46574Y-50044D01*
X46525Y-50063D01*
X46428Y-50082D01*
X46355Y-50082D01*
X46257Y-50063D01*
X46208Y-50044D01*
X46160Y-50007D01*
X46135Y-49951D01*
X46135Y-49913D01*
X46160Y-49857D01*
X46184Y-49838D01*
X46598Y-49444D02*
X46623Y-49463D01*
X46647Y-49519D01*
X46647Y-49557D01*
X46623Y-49613D01*
X46574Y-49650D01*
X46525Y-49669D01*
X46428Y-49688D01*
X46355Y-49688D01*
X46257Y-49669D01*
X46208Y-49650D01*
X46160Y-49613D01*
X46135Y-49557D01*
X46135Y-49519D01*
X46160Y-49463D01*
X46184Y-49444D01*
X46452Y-49275D02*
X46452Y-48975D01*
X46379Y-48656D02*
X46403Y-48600D01*
X46428Y-48581D01*
X46477Y-48562D01*
X46550Y-48562D01*
X46598Y-48581D01*
X46623Y-48600D01*
X46647Y-48637D01*
X46647Y-48787D01*
X46135Y-48787D01*
X46135Y-48656D01*
X46160Y-48618D01*
X46184Y-48600D01*
X46233Y-48581D01*
X46282Y-48581D01*
X46330Y-48600D01*
X46355Y-48618D01*
X46379Y-48656D01*
X46379Y-48787D01*
X46403Y-48318D02*
X46647Y-48318D01*
X46135Y-48449D02*
X46403Y-48318D01*
X46135Y-48187D01*
X46452Y-48055D02*
X46452Y-47755D01*
X46623Y-47586D02*
X46647Y-47530D01*
X46647Y-47436D01*
X46623Y-47398D01*
X46598Y-47380D01*
X46550Y-47361D01*
X46501Y-47361D01*
X46452Y-47380D01*
X46428Y-47398D01*
X46403Y-47436D01*
X46379Y-47511D01*
X46355Y-47548D01*
X46330Y-47567D01*
X46282Y-47586D01*
X46233Y-47586D01*
X46184Y-47567D01*
X46160Y-47548D01*
X46135Y-47511D01*
X46135Y-47417D01*
X46160Y-47361D01*
X46501Y-47211D02*
X46501Y-47023D01*
X46647Y-47248D02*
X46135Y-47117D01*
X46647Y-46986D01*
G54D13*
X45276Y-55118D02*
X45447Y-55110D01*
X45617Y-55088D01*
X45785Y-55050D01*
X45949Y-54999D01*
X46107Y-54933D01*
X46260Y-54854D01*
X46404Y-54762D01*
X46541Y-54657D01*
X46667Y-54541D01*
X46783Y-54415D01*
X46888Y-54278D01*
X46980Y-54133D01*
X47059Y-53981D01*
X47125Y-53823D01*
X47176Y-53659D01*
X47214Y-53491D01*
X47236Y-53321D01*
X47244Y-53150D01*
X19686Y-53150D02*
X19694Y-53321D01*
X19716Y-53491D01*
X19754Y-53659D01*
X19805Y-53823D01*
X19871Y-53981D01*
X19950Y-54133D01*
X20042Y-54278D01*
X20147Y-54415D01*
X20263Y-54541D01*
X20389Y-54657D01*
X20526Y-54762D01*
X20671Y-54854D01*
X20823Y-54933D01*
X20981Y-54999D01*
X21145Y-55050D01*
X21313Y-55088D01*
X21483Y-55110D01*
X21654Y-55118D01*
X21654Y-19685D02*
X21483Y-19693D01*
X21313Y-19715D01*
X21145Y-19753D01*
X20981Y-19804D01*
X20822Y-19870D01*
X20670Y-19949D01*
X20525Y-20042D01*
X20389Y-20146D01*
X20262Y-20262D01*
X20146Y-20389D01*
X20042Y-20525D01*
X19949Y-20670D01*
X19870Y-20822D01*
X19804Y-20981D01*
X19753Y-21145D01*
X19715Y-21313D01*
X19693Y-21483D01*
X19685Y-21654D01*
X47245Y-21654D02*
X47237Y-21483D01*
X47215Y-21313D01*
X47177Y-21145D01*
X47126Y-20981D01*
X47060Y-20822D01*
X46981Y-20670D01*
X46888Y-20525D01*
X46784Y-20389D01*
X46668Y-20262D01*
X46541Y-20146D01*
X46405Y-20042D01*
X46260Y-19949D01*
X46108Y-19870D01*
X45949Y-19804D01*
X45785Y-19753D01*
X45617Y-19715D01*
X45447Y-19693D01*
X45276Y-19685D01*
X21654Y-19685D02*
X45276Y-19685D01*
X47244Y-53150D02*
X47244Y-21654D01*
X21654Y-55118D02*
X45276Y-55118D01*
X19685Y-21654D02*
X19685Y-53150D01*
X37913Y-30473D02*
X38306Y-30473D01*
X37912Y-30473D02*
X37901Y-30581D01*
X37869Y-30686D01*
X37818Y-30782D01*
X37749Y-30866D01*
X37665Y-30936D01*
X37569Y-30988D01*
X37465Y-31020D01*
X37356Y-31031D01*
X37249Y-31022D01*
X37144Y-30991D01*
X37047Y-30940D01*
X36962Y-30872D01*
X36892Y-30788D01*
X36840Y-30693D01*
X36807Y-30589D01*
X36795Y-30480D01*
X36804Y-30373D01*
X36834Y-30268D01*
X36884Y-30171D01*
X36951Y-30085D01*
X37034Y-30014D01*
X37130Y-29961D01*
X37233Y-29928D01*
X37342Y-29915D01*
X37450Y-29923D01*
X37555Y-29952D01*
X37652Y-30002D01*
X37738Y-30069D01*
X37809Y-30151D01*
X37863Y-30246D01*
X37898Y-30350D01*
X37911Y-30458D01*
X37912Y-30473D01*
X35472Y-27796D02*
X35472Y-28189D01*
X36031Y-27236D02*
X36020Y-27344D01*
X35988Y-27449D01*
X35937Y-27545D01*
X35868Y-27629D01*
X35784Y-27699D01*
X35688Y-27751D01*
X35584Y-27783D01*
X35475Y-27794D01*
X35368Y-27785D01*
X35263Y-27754D01*
X35166Y-27703D01*
X35081Y-27635D01*
X35011Y-27551D01*
X34959Y-27456D01*
X34926Y-27352D01*
X34914Y-27243D01*
X34923Y-27136D01*
X34953Y-27031D01*
X35003Y-26934D01*
X35070Y-26848D01*
X35153Y-26777D01*
X35249Y-26724D01*
X35352Y-26691D01*
X35461Y-26678D01*
X35569Y-26686D01*
X35674Y-26715D01*
X35771Y-26765D01*
X35857Y-26832D01*
X35928Y-26914D01*
X35982Y-27009D01*
X36017Y-27113D01*
X36030Y-27221D01*
X36031Y-27236D01*
X35472Y-30985D02*
X35472Y-31378D01*
X36031Y-30425D02*
X36020Y-30533D01*
X35988Y-30638D01*
X35937Y-30734D01*
X35868Y-30818D01*
X35784Y-30888D01*
X35688Y-30940D01*
X35584Y-30972D01*
X35475Y-30983D01*
X35368Y-30974D01*
X35263Y-30943D01*
X35166Y-30892D01*
X35081Y-30824D01*
X35011Y-30740D01*
X34959Y-30645D01*
X34926Y-30541D01*
X34914Y-30432D01*
X34923Y-30325D01*
X34953Y-30220D01*
X35003Y-30123D01*
X35070Y-30037D01*
X35153Y-29966D01*
X35249Y-29913D01*
X35352Y-29880D01*
X35461Y-29867D01*
X35569Y-29875D01*
X35674Y-29904D01*
X35771Y-29954D01*
X35857Y-30021D01*
X35928Y-30103D01*
X35982Y-30198D01*
X36017Y-30302D01*
X36030Y-30410D01*
X36031Y-30425D01*
X31929Y-44252D02*
X31929Y-43859D01*
X32488Y-44812D02*
X32477Y-44920D01*
X32445Y-45025D01*
X32394Y-45121D01*
X32325Y-45205D01*
X32241Y-45275D01*
X32145Y-45327D01*
X32041Y-45359D01*
X31932Y-45370D01*
X31825Y-45361D01*
X31720Y-45330D01*
X31623Y-45279D01*
X31538Y-45211D01*
X31468Y-45127D01*
X31416Y-45032D01*
X31383Y-44928D01*
X31371Y-44819D01*
X31380Y-44712D01*
X31410Y-44607D01*
X31460Y-44510D01*
X31527Y-44424D01*
X31610Y-44353D01*
X31706Y-44300D01*
X31809Y-44267D01*
X31918Y-44254D01*
X32026Y-44262D01*
X32131Y-44291D01*
X32228Y-44341D01*
X32314Y-44408D01*
X32385Y-44490D01*
X32439Y-44585D01*
X32474Y-44689D01*
X32487Y-44797D01*
X32488Y-44812D01*
X29567Y-44409D02*
X29960Y-44409D01*
X29566Y-44409D02*
X29555Y-44517D01*
X29523Y-44622D01*
X29472Y-44718D01*
X29403Y-44802D01*
X29319Y-44872D01*
X29223Y-44924D01*
X29119Y-44956D01*
X29010Y-44967D01*
X28903Y-44958D01*
X28798Y-44927D01*
X28701Y-44876D01*
X28616Y-44808D01*
X28546Y-44724D01*
X28494Y-44629D01*
X28461Y-44525D01*
X28449Y-44416D01*
X28458Y-44309D01*
X28488Y-44204D01*
X28538Y-44107D01*
X28605Y-44021D01*
X28688Y-43950D01*
X28784Y-43897D01*
X28887Y-43864D01*
X28996Y-43851D01*
X29104Y-43859D01*
X29209Y-43888D01*
X29306Y-43938D01*
X29392Y-44005D01*
X29463Y-44087D01*
X29517Y-44182D01*
X29552Y-44286D01*
X29565Y-44394D01*
X29566Y-44409D01*
X31929Y-41142D02*
X31929Y-41535D01*
X32488Y-40582D02*
X32477Y-40690D01*
X32445Y-40795D01*
X32394Y-40891D01*
X32325Y-40975D01*
X32241Y-41045D01*
X32145Y-41097D01*
X32041Y-41129D01*
X31932Y-41140D01*
X31825Y-41131D01*
X31720Y-41100D01*
X31623Y-41049D01*
X31538Y-40981D01*
X31468Y-40897D01*
X31416Y-40802D01*
X31383Y-40698D01*
X31371Y-40589D01*
X31380Y-40482D01*
X31410Y-40377D01*
X31460Y-40280D01*
X31527Y-40194D01*
X31610Y-40123D01*
X31706Y-40070D01*
X31809Y-40037D01*
X31918Y-40024D01*
X32026Y-40032D01*
X32131Y-40061D01*
X32228Y-40111D01*
X32314Y-40178D01*
X32385Y-40260D01*
X32439Y-40355D01*
X32474Y-40459D01*
X32487Y-40567D01*
X32488Y-40582D01*
X33347Y-44253D02*
X33347Y-44646D01*
X33906Y-43693D02*
X33895Y-43801D01*
X33863Y-43906D01*
X33812Y-44002D01*
X33743Y-44086D01*
X33659Y-44156D01*
X33563Y-44208D01*
X33459Y-44240D01*
X33350Y-44251D01*
X33243Y-44242D01*
X33138Y-44211D01*
X33041Y-44160D01*
X32956Y-44092D01*
X32886Y-44008D01*
X32834Y-43913D01*
X32801Y-43809D01*
X32789Y-43700D01*
X32798Y-43593D01*
X32828Y-43488D01*
X32878Y-43391D01*
X32945Y-43305D01*
X33028Y-43234D01*
X33124Y-43181D01*
X33227Y-43148D01*
X33336Y-43135D01*
X33444Y-43143D01*
X33549Y-43172D01*
X33646Y-43222D01*
X33732Y-43289D01*
X33803Y-43371D01*
X33857Y-43466D01*
X33892Y-43570D01*
X33905Y-43678D01*
X33906Y-43693D01*
X25866Y-50472D02*
X26259Y-50472D01*
X25865Y-50472D02*
X25854Y-50580D01*
X25822Y-50685D01*
X25771Y-50781D01*
X25702Y-50865D01*
X25618Y-50935D01*
X25522Y-50987D01*
X25418Y-51019D01*
X25309Y-51030D01*
X25202Y-51021D01*
X25097Y-50990D01*
X25000Y-50939D01*
X24915Y-50871D01*
X24845Y-50787D01*
X24793Y-50692D01*
X24760Y-50588D01*
X24748Y-50479D01*
X24757Y-50372D01*
X24787Y-50267D01*
X24837Y-50170D01*
X24904Y-50084D01*
X24987Y-50013D01*
X25083Y-49960D01*
X25186Y-49927D01*
X25295Y-49914D01*
X25403Y-49922D01*
X25508Y-49951D01*
X25605Y-50001D01*
X25691Y-50068D01*
X25762Y-50150D01*
X25816Y-50245D01*
X25851Y-50349D01*
X25864Y-50457D01*
X25865Y-50472D01*
X40354Y-48819D02*
X40354Y-49212D01*
X40913Y-48259D02*
X40902Y-48367D01*
X40870Y-48472D01*
X40819Y-48568D01*
X40750Y-48652D01*
X40666Y-48722D01*
X40570Y-48774D01*
X40466Y-48806D01*
X40357Y-48817D01*
X40250Y-48808D01*
X40145Y-48777D01*
X40048Y-48726D01*
X39963Y-48658D01*
X39893Y-48574D01*
X39841Y-48479D01*
X39808Y-48375D01*
X39796Y-48266D01*
X39805Y-48159D01*
X39835Y-48054D01*
X39885Y-47957D01*
X39952Y-47871D01*
X40035Y-47800D01*
X40131Y-47747D01*
X40234Y-47714D01*
X40343Y-47701D01*
X40451Y-47709D01*
X40556Y-47738D01*
X40653Y-47788D01*
X40739Y-47855D01*
X40810Y-47937D01*
X40864Y-48032D01*
X40899Y-48136D01*
X40912Y-48244D01*
X40913Y-48259D01*
X31771Y-28741D02*
X31378Y-28741D01*
X32890Y-28741D02*
X32879Y-28849D01*
X32847Y-28954D01*
X32796Y-29050D01*
X32727Y-29134D01*
X32643Y-29204D01*
X32547Y-29256D01*
X32443Y-29288D01*
X32334Y-29299D01*
X32227Y-29290D01*
X32122Y-29259D01*
X32025Y-29208D01*
X31940Y-29140D01*
X31870Y-29056D01*
X31818Y-28961D01*
X31785Y-28857D01*
X31773Y-28748D01*
X31782Y-28641D01*
X31812Y-28536D01*
X31862Y-28439D01*
X31929Y-28353D01*
X32012Y-28282D01*
X32108Y-28229D01*
X32211Y-28196D01*
X32320Y-28183D01*
X32428Y-28191D01*
X32533Y-28220D01*
X32630Y-28270D01*
X32716Y-28337D01*
X32787Y-28419D01*
X32841Y-28514D01*
X32876Y-28618D01*
X32889Y-28726D01*
X32890Y-28741D01*
X26693Y-42520D02*
X27086Y-42520D01*
X26692Y-42520D02*
X26681Y-42628D01*
X26649Y-42733D01*
X26598Y-42829D01*
X26529Y-42913D01*
X26445Y-42983D01*
X26349Y-43035D01*
X26245Y-43067D01*
X26136Y-43078D01*
X26029Y-43069D01*
X25924Y-43038D01*
X25827Y-42987D01*
X25742Y-42919D01*
X25672Y-42835D01*
X25620Y-42740D01*
X25587Y-42636D01*
X25575Y-42527D01*
X25584Y-42420D01*
X25614Y-42315D01*
X25664Y-42218D01*
X25731Y-42132D01*
X25814Y-42061D01*
X25910Y-42008D01*
X26013Y-41975D01*
X26122Y-41962D01*
X26230Y-41970D01*
X26335Y-41999D01*
X26432Y-42049D01*
X26518Y-42116D01*
X26589Y-42198D01*
X26643Y-42293D01*
X26678Y-42397D01*
X26691Y-42505D01*
X26692Y-42520D01*
X26811Y-39646D02*
X26811Y-40039D01*
X27370Y-39086D02*
X27359Y-39194D01*
X27327Y-39299D01*
X27276Y-39395D01*
X27207Y-39479D01*
X27123Y-39549D01*
X27027Y-39601D01*
X26923Y-39633D01*
X26814Y-39644D01*
X26707Y-39635D01*
X26602Y-39604D01*
X26505Y-39553D01*
X26420Y-39485D01*
X26350Y-39401D01*
X26298Y-39306D01*
X26265Y-39202D01*
X26253Y-39093D01*
X26262Y-38986D01*
X26292Y-38881D01*
X26342Y-38784D01*
X26409Y-38698D01*
X26492Y-38627D01*
X26588Y-38574D01*
X26691Y-38541D01*
X26800Y-38528D01*
X26908Y-38536D01*
X27013Y-38565D01*
X27110Y-38615D01*
X27196Y-38682D01*
X27267Y-38764D01*
X27321Y-38859D01*
X27356Y-38963D01*
X27369Y-39071D01*
X27370Y-39086D01*
X30906Y-33858D02*
X31299Y-33858D01*
X30905Y-33858D02*
X30894Y-33966D01*
X30862Y-34071D01*
X30811Y-34167D01*
X30742Y-34251D01*
X30658Y-34321D01*
X30562Y-34373D01*
X30458Y-34405D01*
X30349Y-34416D01*
X30242Y-34407D01*
X30137Y-34376D01*
X30040Y-34325D01*
X29955Y-34257D01*
X29885Y-34173D01*
X29833Y-34078D01*
X29800Y-33974D01*
X29788Y-33865D01*
X29797Y-33758D01*
X29827Y-33653D01*
X29877Y-33556D01*
X29944Y-33470D01*
X30027Y-33399D01*
X30123Y-33346D01*
X30226Y-33313D01*
X30335Y-33300D01*
X30443Y-33308D01*
X30548Y-33337D01*
X30645Y-33387D01*
X30731Y-33454D01*
X30802Y-33536D01*
X30856Y-33631D01*
X30891Y-33735D01*
X30904Y-33843D01*
X30905Y-33858D01*
X27756Y-33819D02*
X28149Y-33819D01*
X27755Y-33819D02*
X27744Y-33927D01*
X27712Y-34032D01*
X27661Y-34128D01*
X27592Y-34212D01*
X27508Y-34282D01*
X27412Y-34334D01*
X27308Y-34366D01*
X27199Y-34377D01*
X27092Y-34368D01*
X26987Y-34337D01*
X26890Y-34286D01*
X26805Y-34218D01*
X26735Y-34134D01*
X26683Y-34039D01*
X26650Y-33935D01*
X26638Y-33826D01*
X26647Y-33719D01*
X26677Y-33614D01*
X26727Y-33517D01*
X26794Y-33431D01*
X26877Y-33360D01*
X26973Y-33307D01*
X27076Y-33274D01*
X27185Y-33261D01*
X27293Y-33269D01*
X27398Y-33298D01*
X27495Y-33348D01*
X27581Y-33415D01*
X27652Y-33497D01*
X27706Y-33592D01*
X27741Y-33696D01*
X27754Y-33804D01*
X27755Y-33819D01*
X29606Y-46260D02*
X29213Y-46260D01*
X30725Y-46260D02*
X30714Y-46368D01*
X30682Y-46473D01*
X30631Y-46569D01*
X30562Y-46653D01*
X30478Y-46723D01*
X30382Y-46775D01*
X30278Y-46807D01*
X30169Y-46818D01*
X30062Y-46809D01*
X29957Y-46778D01*
X29860Y-46727D01*
X29775Y-46659D01*
X29705Y-46575D01*
X29653Y-46480D01*
X29620Y-46376D01*
X29608Y-46267D01*
X29617Y-46160D01*
X29647Y-46055D01*
X29697Y-45958D01*
X29764Y-45872D01*
X29847Y-45801D01*
X29943Y-45748D01*
X30046Y-45715D01*
X30155Y-45702D01*
X30263Y-45710D01*
X30368Y-45739D01*
X30465Y-45789D01*
X30551Y-45856D01*
X30622Y-45938D01*
X30676Y-46033D01*
X30711Y-46137D01*
X30724Y-46245D01*
X30725Y-46260D01*
X21260Y-47599D02*
X21260Y-47992D01*
X21819Y-47039D02*
X21808Y-47147D01*
X21776Y-47252D01*
X21725Y-47348D01*
X21656Y-47432D01*
X21572Y-47502D01*
X21476Y-47554D01*
X21372Y-47586D01*
X21263Y-47597D01*
X21156Y-47588D01*
X21051Y-47557D01*
X20954Y-47506D01*
X20869Y-47438D01*
X20799Y-47354D01*
X20747Y-47259D01*
X20714Y-47155D01*
X20702Y-47046D01*
X20711Y-46939D01*
X20741Y-46834D01*
X20791Y-46737D01*
X20858Y-46651D01*
X20941Y-46580D01*
X21037Y-46527D01*
X21140Y-46494D01*
X21249Y-46481D01*
X21357Y-46489D01*
X21462Y-46518D01*
X21559Y-46568D01*
X21645Y-46635D01*
X21716Y-46717D01*
X21770Y-46812D01*
X21805Y-46916D01*
X21818Y-47024D01*
X21819Y-47039D01*
X30276Y-49764D02*
X30276Y-50157D01*
X30835Y-49204D02*
X30824Y-49312D01*
X30792Y-49417D01*
X30741Y-49513D01*
X30672Y-49597D01*
X30588Y-49667D01*
X30492Y-49719D01*
X30388Y-49751D01*
X30279Y-49762D01*
X30172Y-49753D01*
X30067Y-49722D01*
X29970Y-49671D01*
X29885Y-49603D01*
X29815Y-49519D01*
X29763Y-49424D01*
X29730Y-49320D01*
X29718Y-49211D01*
X29727Y-49104D01*
X29757Y-48999D01*
X29807Y-48902D01*
X29874Y-48816D01*
X29957Y-48745D01*
X30053Y-48692D01*
X30156Y-48659D01*
X30265Y-48646D01*
X30373Y-48654D01*
X30478Y-48683D01*
X30575Y-48733D01*
X30661Y-48800D01*
X30732Y-48882D01*
X30786Y-48977D01*
X30821Y-49081D01*
X30834Y-49189D01*
X30835Y-49204D01*
X37795Y-49488D02*
X37402Y-49488D01*
X38914Y-49488D02*
X38903Y-49596D01*
X38871Y-49701D01*
X38820Y-49797D01*
X38751Y-49881D01*
X38667Y-49951D01*
X38571Y-50003D01*
X38467Y-50035D01*
X38358Y-50046D01*
X38251Y-50037D01*
X38146Y-50006D01*
X38049Y-49955D01*
X37964Y-49887D01*
X37894Y-49803D01*
X37842Y-49708D01*
X37809Y-49604D01*
X37797Y-49495D01*
X37806Y-49388D01*
X37836Y-49283D01*
X37886Y-49186D01*
X37953Y-49100D01*
X38036Y-49029D01*
X38132Y-48976D01*
X38235Y-48943D01*
X38344Y-48930D01*
X38452Y-48938D01*
X38557Y-48967D01*
X38654Y-49017D01*
X38740Y-49084D01*
X38811Y-49166D01*
X38865Y-49261D01*
X38900Y-49365D01*
X38913Y-49473D01*
X38914Y-49488D01*
X40315Y-41378D02*
X39922Y-41378D01*
X41434Y-41378D02*
X41423Y-41486D01*
X41391Y-41591D01*
X41340Y-41687D01*
X41271Y-41771D01*
X41187Y-41841D01*
X41091Y-41893D01*
X40987Y-41925D01*
X40878Y-41936D01*
X40771Y-41927D01*
X40666Y-41896D01*
X40569Y-41845D01*
X40484Y-41777D01*
X40414Y-41693D01*
X40362Y-41598D01*
X40329Y-41494D01*
X40317Y-41385D01*
X40326Y-41278D01*
X40356Y-41173D01*
X40406Y-41076D01*
X40473Y-40990D01*
X40556Y-40919D01*
X40652Y-40866D01*
X40755Y-40833D01*
X40864Y-40820D01*
X40972Y-40828D01*
X41077Y-40857D01*
X41174Y-40907D01*
X41260Y-40974D01*
X41331Y-41056D01*
X41385Y-41151D01*
X41420Y-41255D01*
X41433Y-41363D01*
X41434Y-41378D01*
X38701Y-42874D02*
X39094Y-42874D01*
X38700Y-42874D02*
X38689Y-42982D01*
X38657Y-43087D01*
X38606Y-43183D01*
X38537Y-43267D01*
X38453Y-43337D01*
X38357Y-43389D01*
X38253Y-43421D01*
X38144Y-43432D01*
X38037Y-43423D01*
X37932Y-43392D01*
X37835Y-43341D01*
X37750Y-43273D01*
X37680Y-43189D01*
X37628Y-43094D01*
X37595Y-42990D01*
X37583Y-42881D01*
X37592Y-42774D01*
X37622Y-42669D01*
X37672Y-42572D01*
X37739Y-42486D01*
X37822Y-42415D01*
X37918Y-42362D01*
X38021Y-42329D01*
X38130Y-42316D01*
X38238Y-42324D01*
X38343Y-42353D01*
X38440Y-42403D01*
X38526Y-42470D01*
X38597Y-42552D01*
X38651Y-42647D01*
X38686Y-42751D01*
X38699Y-42859D01*
X38700Y-42874D01*
X38976Y-44488D02*
X38583Y-44488D01*
X40095Y-44488D02*
X40084Y-44596D01*
X40052Y-44701D01*
X40001Y-44797D01*
X39932Y-44881D01*
X39848Y-44951D01*
X39752Y-45003D01*
X39648Y-45035D01*
X39539Y-45046D01*
X39432Y-45037D01*
X39327Y-45006D01*
X39230Y-44955D01*
X39145Y-44887D01*
X39075Y-44803D01*
X39023Y-44708D01*
X38990Y-44604D01*
X38978Y-44495D01*
X38987Y-44388D01*
X39017Y-44283D01*
X39067Y-44186D01*
X39134Y-44100D01*
X39217Y-44029D01*
X39313Y-43976D01*
X39416Y-43943D01*
X39525Y-43930D01*
X39633Y-43938D01*
X39738Y-43967D01*
X39835Y-44017D01*
X39921Y-44084D01*
X39992Y-44166D01*
X40046Y-44261D01*
X40081Y-44365D01*
X40094Y-44473D01*
X40095Y-44488D01*
X41260Y-27953D02*
X41260Y-28346D01*
X41819Y-27393D02*
X41808Y-27501D01*
X41776Y-27606D01*
X41725Y-27702D01*
X41656Y-27786D01*
X41572Y-27856D01*
X41476Y-27908D01*
X41372Y-27940D01*
X41263Y-27951D01*
X41156Y-27942D01*
X41051Y-27911D01*
X40954Y-27860D01*
X40869Y-27792D01*
X40799Y-27708D01*
X40747Y-27613D01*
X40714Y-27509D01*
X40702Y-27400D01*
X40711Y-27293D01*
X40741Y-27188D01*
X40791Y-27091D01*
X40858Y-27005D01*
X40941Y-26934D01*
X41037Y-26881D01*
X41140Y-26848D01*
X41249Y-26835D01*
X41357Y-26843D01*
X41462Y-26872D01*
X41559Y-26922D01*
X41645Y-26989D01*
X41716Y-27071D01*
X41770Y-27166D01*
X41805Y-27270D01*
X41818Y-27378D01*
X41819Y-27393D01*
X42835Y-27953D02*
X42835Y-28346D01*
X43394Y-27393D02*
X43383Y-27501D01*
X43351Y-27606D01*
X43300Y-27702D01*
X43231Y-27786D01*
X43147Y-27856D01*
X43051Y-27908D01*
X42947Y-27940D01*
X42838Y-27951D01*
X42731Y-27942D01*
X42626Y-27911D01*
X42529Y-27860D01*
X42444Y-27792D01*
X42374Y-27708D01*
X42322Y-27613D01*
X42289Y-27509D01*
X42277Y-27400D01*
X42286Y-27293D01*
X42316Y-27188D01*
X42366Y-27091D01*
X42433Y-27005D01*
X42516Y-26934D01*
X42612Y-26881D01*
X42715Y-26848D01*
X42824Y-26835D01*
X42932Y-26843D01*
X43037Y-26872D01*
X43134Y-26922D01*
X43220Y-26989D01*
X43291Y-27071D01*
X43345Y-27166D01*
X43380Y-27270D01*
X43393Y-27378D01*
X43394Y-27393D01*
X28543Y-49803D02*
X28543Y-49410D01*
X29102Y-50363D02*
X29091Y-50471D01*
X29059Y-50576D01*
X29008Y-50672D01*
X28939Y-50756D01*
X28855Y-50826D01*
X28759Y-50878D01*
X28655Y-50910D01*
X28546Y-50921D01*
X28439Y-50912D01*
X28334Y-50881D01*
X28237Y-50830D01*
X28152Y-50762D01*
X28082Y-50678D01*
X28030Y-50583D01*
X27997Y-50479D01*
X27985Y-50370D01*
X27994Y-50263D01*
X28024Y-50158D01*
X28074Y-50061D01*
X28141Y-49975D01*
X28224Y-49904D01*
X28320Y-49851D01*
X28423Y-49818D01*
X28532Y-49805D01*
X28640Y-49813D01*
X28745Y-49842D01*
X28842Y-49892D01*
X28928Y-49959D01*
X28999Y-50041D01*
X29053Y-50136D01*
X29088Y-50240D01*
X29101Y-50348D01*
X29102Y-50363D01*
X38898Y-33228D02*
X38898Y-32835D01*
X39457Y-33788D02*
X39446Y-33896D01*
X39414Y-34001D01*
X39363Y-34097D01*
X39294Y-34181D01*
X39210Y-34251D01*
X39114Y-34303D01*
X39010Y-34335D01*
X38901Y-34346D01*
X38794Y-34337D01*
X38689Y-34306D01*
X38592Y-34255D01*
X38507Y-34187D01*
X38437Y-34103D01*
X38385Y-34008D01*
X38352Y-33904D01*
X38340Y-33795D01*
X38349Y-33688D01*
X38379Y-33583D01*
X38429Y-33486D01*
X38496Y-33400D01*
X38579Y-33329D01*
X38675Y-33276D01*
X38778Y-33243D01*
X38887Y-33230D01*
X38995Y-33238D01*
X39100Y-33267D01*
X39197Y-33317D01*
X39283Y-33384D01*
X39354Y-33466D01*
X39408Y-33561D01*
X39443Y-33665D01*
X39456Y-33773D01*
X39457Y-33788D01*
G54D14*
X36150Y-37492D02*
X36650Y-37492D01*
X36650Y-37492D02*
X36650Y-38492D01*
X36650Y-38492D02*
X36150Y-38492D01*
X36150Y-36992D02*
X40150Y-36992D01*
X40150Y-36992D02*
X40150Y-38992D01*
X40150Y-38992D02*
X36150Y-38992D01*
X36150Y-38992D02*
X36150Y-36992D01*
G54D11*
X42634Y-37256D02*
X45634Y-37256D01*
X45634Y-37256D02*
X45634Y-38256D01*
X45634Y-38256D02*
X42634Y-38256D01*
X42634Y-38256D02*
X42634Y-37256D01*
X45384Y-37256D02*
X45384Y-38256D01*
X45134Y-38256D02*
X45134Y-37256D01*
X42634Y-37756D02*
X42134Y-37756D01*
X45634Y-37756D02*
X46134Y-37756D01*
X46405Y-26806D02*
X46405Y-29806D01*
X46405Y-29806D02*
X45405Y-29806D01*
X45405Y-29806D02*
X45405Y-26806D01*
X45405Y-26806D02*
X46405Y-26806D01*
X46405Y-29556D02*
X45405Y-29556D01*
X45405Y-29306D02*
X46405Y-29306D01*
X45905Y-26806D02*
X45905Y-26306D01*
X45905Y-29806D02*
X45905Y-30306D01*
X44712Y-26806D02*
X44712Y-29806D01*
X44712Y-29806D02*
X43712Y-29806D01*
X43712Y-29806D02*
X43712Y-26806D01*
X43712Y-26806D02*
X44712Y-26806D01*
X44712Y-29556D02*
X43712Y-29556D01*
X43712Y-29306D02*
X44712Y-29306D01*
X44212Y-26806D02*
X44212Y-26306D01*
X44212Y-29806D02*
X44212Y-30306D01*
X40343Y-26807D02*
X40343Y-29807D01*
X40343Y-29807D02*
X39343Y-29807D01*
X39343Y-29807D02*
X39343Y-26807D01*
X39343Y-26807D02*
X40343Y-26807D01*
X40343Y-29557D02*
X39343Y-29557D01*
X39343Y-29307D02*
X40343Y-29307D01*
X39843Y-26807D02*
X39843Y-26307D01*
X39843Y-29807D02*
X39843Y-30307D01*
X40516Y-23465D02*
X40216Y-23465D01*
X40216Y-23465D02*
X40216Y-23065D01*
X40216Y-23065D02*
X37816Y-23065D01*
X37816Y-23065D02*
X37816Y-23465D01*
X37816Y-23465D02*
X37516Y-23465D01*
X37816Y-23465D02*
X37816Y-23865D01*
X37816Y-23865D02*
X40216Y-23865D01*
X40216Y-23865D02*
X40216Y-23465D01*
X40016Y-23065D02*
X40016Y-23865D01*
X39916Y-23865D02*
X39916Y-23065D01*
X40516Y-24724D02*
X40216Y-24724D01*
X40216Y-24724D02*
X40216Y-24324D01*
X40216Y-24324D02*
X37816Y-24324D01*
X37816Y-24324D02*
X37816Y-24724D01*
X37816Y-24724D02*
X37516Y-24724D01*
X37816Y-24724D02*
X37816Y-25124D01*
X37816Y-25124D02*
X40216Y-25124D01*
X40216Y-25124D02*
X40216Y-24724D01*
X40016Y-24324D02*
X40016Y-25124D01*
X39916Y-25124D02*
X39916Y-24324D01*
X24235Y-31069D02*
X21435Y-31069D01*
X21435Y-31069D02*
X21435Y-30269D01*
X21435Y-30269D02*
X24235Y-30269D01*
X24235Y-30269D02*
X24235Y-31069D01*
X24235Y-30869D02*
X24035Y-31069D01*
X42695Y-35820D02*
X45495Y-35820D01*
X45495Y-35820D02*
X45495Y-36620D01*
X45495Y-36620D02*
X42695Y-36620D01*
X42695Y-36620D02*
X42695Y-35820D01*
X42695Y-36020D02*
X42895Y-35820D01*
X42734Y-31726D02*
X45534Y-31726D01*
X45534Y-31726D02*
X45534Y-32526D01*
X45534Y-32526D02*
X42734Y-32526D01*
X42734Y-32526D02*
X42734Y-31726D01*
X42734Y-31926D02*
X42934Y-31726D01*
X36765Y-34943D02*
X36765Y-32143D01*
X36765Y-32143D02*
X37565Y-32143D01*
X37565Y-32143D02*
X37565Y-34943D01*
X37565Y-34943D02*
X36765Y-34943D01*
X36965Y-34943D02*
X36765Y-34743D01*
X37660Y-41817D02*
X34860Y-41817D01*
X34860Y-41817D02*
X34860Y-41017D01*
X34860Y-41017D02*
X37660Y-41017D01*
X37660Y-41017D02*
X37660Y-41817D01*
X37660Y-41617D02*
X37460Y-41817D01*
X33088Y-47553D02*
X35888Y-47553D01*
X35888Y-47553D02*
X35888Y-48353D01*
X35888Y-48353D02*
X33088Y-48353D01*
X33088Y-48353D02*
X33088Y-47553D01*
X33088Y-47753D02*
X33288Y-47553D01*
X32526Y-48797D02*
X32526Y-51597D01*
X32526Y-51597D02*
X31726Y-51597D01*
X31726Y-51597D02*
X31726Y-48797D01*
X31726Y-48797D02*
X32526Y-48797D01*
X32326Y-48797D02*
X32526Y-48997D01*
X42447Y-42458D02*
X42447Y-45258D01*
X42447Y-45258D02*
X41647Y-45258D01*
X41647Y-45258D02*
X41647Y-42458D01*
X41647Y-42458D02*
X42447Y-42458D01*
X42247Y-42458D02*
X42447Y-42658D01*
X26844Y-48802D02*
X26844Y-46002D01*
X26844Y-46002D02*
X27644Y-46002D01*
X27644Y-46002D02*
X27644Y-48802D01*
X27644Y-48802D02*
X26844Y-48802D01*
X27044Y-48802D02*
X26844Y-48602D01*
X23392Y-45962D02*
X23392Y-48762D01*
X23392Y-48762D02*
X22592Y-48762D01*
X22592Y-48762D02*
X22592Y-45962D01*
X22592Y-45962D02*
X23392Y-45962D01*
X23192Y-45962D02*
X23392Y-46162D01*
X33746Y-38639D02*
X33746Y-41439D01*
X33746Y-41439D02*
X32946Y-41439D01*
X32946Y-41439D02*
X32946Y-38639D01*
X32946Y-38639D02*
X33746Y-38639D01*
X33546Y-38639D02*
X33746Y-38839D01*
X21435Y-34757D02*
X24235Y-34757D01*
X24235Y-34757D02*
X24235Y-35557D01*
X24235Y-35557D02*
X21435Y-35557D01*
X21435Y-35557D02*
X21435Y-34757D01*
X21435Y-34957D02*
X21635Y-34757D01*
X28443Y-47553D02*
X31243Y-47553D01*
X31243Y-47553D02*
X31243Y-48353D01*
X31243Y-48353D02*
X28443Y-48353D01*
X28443Y-48353D02*
X28443Y-47553D01*
X28443Y-47753D02*
X28643Y-47553D01*
X23880Y-44849D02*
X21080Y-44849D01*
X21080Y-44849D02*
X21080Y-44049D01*
X21080Y-44049D02*
X23880Y-44049D01*
X23880Y-44049D02*
X23880Y-44849D01*
X23880Y-44649D02*
X23680Y-44849D01*
X30583Y-32424D02*
X30583Y-29624D01*
X30583Y-29624D02*
X31383Y-29624D01*
X31383Y-29624D02*
X31383Y-32424D01*
X31383Y-32424D02*
X30583Y-32424D01*
X30783Y-32424D02*
X30583Y-32224D01*
X24235Y-27762D02*
X21435Y-27762D01*
X21435Y-27762D02*
X21435Y-26962D01*
X21435Y-26962D02*
X24235Y-26962D01*
X24235Y-26962D02*
X24235Y-27762D01*
X24235Y-27562D02*
X24035Y-27762D01*
X21435Y-31411D02*
X24235Y-31411D01*
X24235Y-31411D02*
X24235Y-32211D01*
X24235Y-32211D02*
X21435Y-32211D01*
X21435Y-32211D02*
X21435Y-31411D01*
X21435Y-31611D02*
X21635Y-31411D01*
X24235Y-36739D02*
X21435Y-36739D01*
X21435Y-36739D02*
X21435Y-35939D01*
X21435Y-35939D02*
X24235Y-35939D01*
X24235Y-35939D02*
X24235Y-36739D01*
X24235Y-36539D02*
X24035Y-36739D01*
X26569Y-31361D02*
X26569Y-28561D01*
X26569Y-28561D02*
X27369Y-28561D01*
X27369Y-28561D02*
X27369Y-31361D01*
X27369Y-31361D02*
X26569Y-31361D01*
X26769Y-31361D02*
X26569Y-31161D01*
X30528Y-27042D02*
X33328Y-27042D01*
X33328Y-27042D02*
X33328Y-27842D01*
X33328Y-27842D02*
X30528Y-27842D01*
X30528Y-27842D02*
X30528Y-27042D01*
X30528Y-27242D02*
X30728Y-27042D01*
X24757Y-40849D02*
X24757Y-38049D01*
X24757Y-38049D02*
X25557Y-38049D01*
X25557Y-38049D02*
X25557Y-40849D01*
X25557Y-40849D02*
X24757Y-40849D01*
X24957Y-40849D02*
X24757Y-40649D01*
X27896Y-44849D02*
X25096Y-44849D01*
X25096Y-44849D02*
X25096Y-44049D01*
X25096Y-44049D02*
X27896Y-44049D01*
X27896Y-44049D02*
X27896Y-44849D01*
X27896Y-44649D02*
X27696Y-44849D01*
G54D15*
X45764Y-39642D02*
X45764Y-42642D01*
X43764Y-42642D02*
X43764Y-39642D01*
X43764Y-39642D02*
X45764Y-39642D01*
X45764Y-42642D02*
X43764Y-42642D01*
G54D13*
X23341Y-22441D02*
X23323Y-22615D01*
X23273Y-22783D01*
X23190Y-22939D01*
X23079Y-23075D01*
X22944Y-23187D01*
X22789Y-23270D01*
X22621Y-23322D01*
X22447Y-23340D01*
X22273Y-23325D01*
X22104Y-23275D01*
X21949Y-23194D01*
X21812Y-23084D01*
X21699Y-22949D01*
X21614Y-22795D01*
X21561Y-22628D01*
X21542Y-22453D01*
X21556Y-22279D01*
X21605Y-22110D01*
X21685Y-21954D01*
X21794Y-21816D01*
X21928Y-21702D01*
X22081Y-21617D01*
X22248Y-21562D01*
X22423Y-21542D01*
X22597Y-21555D01*
X22766Y-21602D01*
X22923Y-21682D01*
X23061Y-21790D01*
X23176Y-21923D01*
X23263Y-22075D01*
X23318Y-22242D01*
X23340Y-22416D01*
X23341Y-22441D01*
X45388Y-22441D02*
X45370Y-22615D01*
X45320Y-22783D01*
X45237Y-22939D01*
X45126Y-23075D01*
X44991Y-23187D01*
X44836Y-23270D01*
X44668Y-23322D01*
X44494Y-23340D01*
X44320Y-23325D01*
X44151Y-23275D01*
X43996Y-23194D01*
X43859Y-23084D01*
X43746Y-22949D01*
X43661Y-22795D01*
X43608Y-22628D01*
X43589Y-22453D01*
X43603Y-22279D01*
X43652Y-22110D01*
X43732Y-21954D01*
X43841Y-21816D01*
X43975Y-21702D01*
X44128Y-21617D01*
X44295Y-21562D01*
X44470Y-21542D01*
X44644Y-21555D01*
X44813Y-21602D01*
X44970Y-21682D01*
X45108Y-21790D01*
X45223Y-21923D01*
X45310Y-22075D01*
X45365Y-22242D01*
X45387Y-22416D01*
X45388Y-22441D01*
X23341Y-52362D02*
X23323Y-52536D01*
X23273Y-52704D01*
X23190Y-52860D01*
X23079Y-52996D01*
X22944Y-53108D01*
X22789Y-53191D01*
X22621Y-53243D01*
X22447Y-53261D01*
X22273Y-53246D01*
X22104Y-53196D01*
X21949Y-53115D01*
X21812Y-53005D01*
X21699Y-52870D01*
X21614Y-52716D01*
X21561Y-52549D01*
X21542Y-52374D01*
X21556Y-52200D01*
X21605Y-52031D01*
X21685Y-51875D01*
X21794Y-51737D01*
X21928Y-51623D01*
X22081Y-51538D01*
X22248Y-51483D01*
X22423Y-51463D01*
X22597Y-51476D01*
X22766Y-51523D01*
X22923Y-51603D01*
X23061Y-51711D01*
X23176Y-51844D01*
X23263Y-51996D01*
X23318Y-52163D01*
X23340Y-52337D01*
X23341Y-52362D01*
X45388Y-52362D02*
X45370Y-52536D01*
X45320Y-52704D01*
X45237Y-52860D01*
X45126Y-52996D01*
X44991Y-53108D01*
X44836Y-53191D01*
X44668Y-53243D01*
X44494Y-53261D01*
X44320Y-53246D01*
X44151Y-53196D01*
X43996Y-53115D01*
X43859Y-53005D01*
X43746Y-52870D01*
X43661Y-52716D01*
X43608Y-52549D01*
X43589Y-52374D01*
X43603Y-52200D01*
X43652Y-52031D01*
X43732Y-51875D01*
X43841Y-51737D01*
X43975Y-51623D01*
X44128Y-51538D01*
X44295Y-51483D01*
X44470Y-51463D01*
X44644Y-51476D01*
X44813Y-51523D01*
X44970Y-51603D01*
X45108Y-51711D01*
X45223Y-51844D01*
X45310Y-51996D01*
X45365Y-52163D01*
X45387Y-52337D01*
X45388Y-52362D01*
X30985Y-19882D02*
X25315Y-19882D01*
X25315Y-19882D02*
X25315Y-25433D01*
X25315Y-25433D02*
X30985Y-25433D01*
X30985Y-25433D02*
X30985Y-19882D01*
X21457Y-28149D02*
X21457Y-29961D01*
X21457Y-29961D02*
X25394Y-29961D01*
X25394Y-29961D02*
X25394Y-28149D01*
X25394Y-28149D02*
X21457Y-28149D01*
X25394Y-34410D02*
X25394Y-32598D01*
X25394Y-32598D02*
X21457Y-32598D01*
X21457Y-32598D02*
X21457Y-34410D01*
X21457Y-34410D02*
X25394Y-34410D01*
X29882Y-27441D02*
X28070Y-27441D01*
X28070Y-27441D02*
X28070Y-31378D01*
X28070Y-31378D02*
X29882Y-31378D01*
X29882Y-31378D02*
X29882Y-27441D01*
X44606Y-33347D02*
X43937Y-33150D01*
X44606Y-34921D02*
X43937Y-35118D01*
X44606Y-34921D02*
X44606Y-33347D01*
X43937Y-33150D02*
X43852Y-33154D01*
X43767Y-33165D01*
X43683Y-33184D01*
X43601Y-33210D01*
X43522Y-33243D01*
X43446Y-33282D01*
X43373Y-33328D01*
X43305Y-33381D01*
X43242Y-33439D01*
X43184Y-33502D01*
X43131Y-33570D01*
X43085Y-33643D01*
X43046Y-33719D01*
X43013Y-33798D01*
X42987Y-33880D01*
X42968Y-33964D01*
X42957Y-34049D01*
X42953Y-34134D01*
X42953Y-34134D02*
X42957Y-34219D01*
X42968Y-34304D01*
X42987Y-34388D01*
X43013Y-34470D01*
X43046Y-34549D01*
X43085Y-34625D01*
X43131Y-34698D01*
X43184Y-34766D01*
X43242Y-34829D01*
X43305Y-34887D01*
X43373Y-34940D01*
X43446Y-34986D01*
X43522Y-35025D01*
X43601Y-35058D01*
X43683Y-35084D01*
X43767Y-35103D01*
X43852Y-35114D01*
X43937Y-35118D01*
X37047Y-27009D02*
X36850Y-27678D01*
X38621Y-27009D02*
X38818Y-27678D01*
X38621Y-27009D02*
X37047Y-27009D01*
X36850Y-27678D02*
X36854Y-27763D01*
X36865Y-27848D01*
X36884Y-27932D01*
X36910Y-28014D01*
X36943Y-28093D01*
X36982Y-28169D01*
X37028Y-28242D01*
X37081Y-28310D01*
X37139Y-28373D01*
X37202Y-28431D01*
X37270Y-28484D01*
X37343Y-28530D01*
X37419Y-28569D01*
X37498Y-28602D01*
X37580Y-28628D01*
X37664Y-28647D01*
X37749Y-28658D01*
X37834Y-28662D01*
X37834Y-28662D02*
X37919Y-28658D01*
X38004Y-28647D01*
X38088Y-28628D01*
X38170Y-28602D01*
X38249Y-28569D01*
X38326Y-28530D01*
X38398Y-28484D01*
X38466Y-28431D01*
X38529Y-28373D01*
X38587Y-28310D01*
X38640Y-28242D01*
X38686Y-28169D01*
X38725Y-28093D01*
X38758Y-28014D01*
X38784Y-27932D01*
X38803Y-27848D01*
X38814Y-27763D01*
X38818Y-27678D01*
X24252Y-48425D02*
X24921Y-48622D01*
X24252Y-46851D02*
X24921Y-46654D01*
X24252Y-46851D02*
X24252Y-48425D01*
X24921Y-48622D02*
X25006Y-48618D01*
X25091Y-48607D01*
X25175Y-48588D01*
X25257Y-48562D01*
X25336Y-48529D01*
X25413Y-48490D01*
X25485Y-48444D01*
X25553Y-48391D01*
X25616Y-48333D01*
X25674Y-48270D01*
X25727Y-48202D01*
X25773Y-48129D01*
X25812Y-48053D01*
X25845Y-47974D01*
X25871Y-47892D01*
X25890Y-47808D01*
X25901Y-47723D01*
X25905Y-47638D01*
X25905Y-47638D02*
X25901Y-47553D01*
X25890Y-47468D01*
X25871Y-47384D01*
X25845Y-47302D01*
X25812Y-47223D01*
X25773Y-47147D01*
X25727Y-47074D01*
X25674Y-47006D01*
X25616Y-46943D01*
X25553Y-46885D01*
X25485Y-46832D01*
X25413Y-46786D01*
X25336Y-46747D01*
X25257Y-46714D01*
X25175Y-46688D01*
X25091Y-46669D01*
X25006Y-46658D01*
X24921Y-46654D01*
X32440Y-31733D02*
X33109Y-31930D01*
X32440Y-30159D02*
X33109Y-29962D01*
X32440Y-30159D02*
X32440Y-31733D01*
X33109Y-31930D02*
X33194Y-31926D01*
X33279Y-31915D01*
X33363Y-31896D01*
X33445Y-31870D01*
X33524Y-31837D01*
X33601Y-31798D01*
X33673Y-31752D01*
X33741Y-31699D01*
X33804Y-31641D01*
X33862Y-31578D01*
X33915Y-31510D01*
X33961Y-31437D01*
X34000Y-31361D01*
X34033Y-31282D01*
X34059Y-31200D01*
X34078Y-31116D01*
X34089Y-31031D01*
X34093Y-30946D01*
X34093Y-30946D02*
X34089Y-30861D01*
X34078Y-30776D01*
X34059Y-30692D01*
X34033Y-30610D01*
X34000Y-30531D01*
X33961Y-30455D01*
X33915Y-30382D01*
X33862Y-30314D01*
X33804Y-30251D01*
X33741Y-30193D01*
X33673Y-30140D01*
X33601Y-30094D01*
X33524Y-30055D01*
X33445Y-30022D01*
X33363Y-29996D01*
X33279Y-29977D01*
X33194Y-29966D01*
X33109Y-29962D01*
X28622Y-40945D02*
X28425Y-41614D01*
X30196Y-40945D02*
X30393Y-41614D01*
X30196Y-40945D02*
X28622Y-40945D01*
X28425Y-41614D02*
X28429Y-41699D01*
X28440Y-41784D01*
X28459Y-41868D01*
X28485Y-41950D01*
X28518Y-42029D01*
X28557Y-42105D01*
X28603Y-42178D01*
X28656Y-42246D01*
X28714Y-42309D01*
X28777Y-42367D01*
X28845Y-42420D01*
X28918Y-42466D01*
X28994Y-42505D01*
X29073Y-42538D01*
X29155Y-42564D01*
X29239Y-42583D01*
X29324Y-42594D01*
X29409Y-42598D01*
X29409Y-42598D02*
X29494Y-42594D01*
X29579Y-42583D01*
X29663Y-42564D01*
X29745Y-42538D01*
X29824Y-42505D01*
X29901Y-42466D01*
X29973Y-42420D01*
X30041Y-42367D01*
X30104Y-42309D01*
X30162Y-42246D01*
X30215Y-42178D01*
X30261Y-42105D01*
X30300Y-42029D01*
X30333Y-41950D01*
X30359Y-41868D01*
X30378Y-41784D01*
X30389Y-41699D01*
X30393Y-41614D01*
X28031Y-38071D02*
X28031Y-37835D01*
X28031Y-37835D02*
X31181Y-37835D01*
X31181Y-37835D02*
X31181Y-38071D01*
X28031Y-39331D02*
X31181Y-39331D01*
X31181Y-39331D02*
X31181Y-38071D01*
X31181Y-38071D02*
X28031Y-38071D01*
X28031Y-38071D02*
X28031Y-39331D01*
X22874Y-37618D02*
X23977Y-38799D01*
X23977Y-38799D02*
X23977Y-42146D01*
X23977Y-42146D02*
X23681Y-42146D01*
X21713Y-37618D02*
X21536Y-37618D01*
X21536Y-37618D02*
X20433Y-38799D01*
X20433Y-38799D02*
X20433Y-42146D01*
X20433Y-42146D02*
X20729Y-42146D01*
X22874Y-37618D02*
X22697Y-37618D01*
X21811Y-42146D02*
X22599Y-42146D01*
X29114Y-53898D02*
X26476Y-53898D01*
X29114Y-52086D02*
X26476Y-52086D01*
X29114Y-53897D02*
X29192Y-53893D01*
X29271Y-53883D01*
X29348Y-53866D01*
X29423Y-53842D01*
X29496Y-53812D01*
X29566Y-53775D01*
X29633Y-53733D01*
X29695Y-53685D01*
X29753Y-53631D01*
X29807Y-53573D01*
X29855Y-53511D01*
X29897Y-53444D01*
X29934Y-53374D01*
X29964Y-53301D01*
X29988Y-53226D01*
X30005Y-53149D01*
X30015Y-53070D01*
X30019Y-52992D01*
X30020Y-52992D02*
X30016Y-52914D01*
X30006Y-52835D01*
X29989Y-52758D01*
X29965Y-52683D01*
X29935Y-52610D01*
X29898Y-52540D01*
X29856Y-52473D01*
X29808Y-52410D01*
X29754Y-52352D01*
X29696Y-52298D01*
X29633Y-52250D01*
X29567Y-52208D01*
X29496Y-52171D01*
X29423Y-52141D01*
X29348Y-52117D01*
X29271Y-52100D01*
X29192Y-52090D01*
X29114Y-52086D01*
X25570Y-52992D02*
X25574Y-53070D01*
X25584Y-53149D01*
X25601Y-53226D01*
X25625Y-53301D01*
X25655Y-53374D01*
X25692Y-53444D01*
X25734Y-53511D01*
X25782Y-53574D01*
X25836Y-53632D01*
X25894Y-53686D01*
X25957Y-53734D01*
X26024Y-53776D01*
X26094Y-53813D01*
X26167Y-53843D01*
X26242Y-53867D01*
X26319Y-53884D01*
X26398Y-53894D01*
X26476Y-53898D01*
X26476Y-52087D02*
X26398Y-52091D01*
X26319Y-52101D01*
X26242Y-52118D01*
X26167Y-52142D01*
X26094Y-52172D01*
X26024Y-52209D01*
X25957Y-52251D01*
X25895Y-52299D01*
X25837Y-52353D01*
X25783Y-52411D01*
X25735Y-52473D01*
X25693Y-52540D01*
X25656Y-52610D01*
X25626Y-52683D01*
X25602Y-52758D01*
X25585Y-52835D01*
X25575Y-52914D01*
X25571Y-52992D01*
X34646Y-44763D02*
X34646Y-44527D01*
X34646Y-43189D02*
X34646Y-43425D01*
X34646Y-43189D02*
X35827Y-42795D01*
X34646Y-44763D02*
X35827Y-45157D01*
X37008Y-43976D02*
X37003Y-43874D01*
X36990Y-43771D01*
X36967Y-43671D01*
X36936Y-43573D01*
X36897Y-43477D01*
X36849Y-43386D01*
X36794Y-43299D01*
X36731Y-43217D01*
X36662Y-43141D01*
X36586Y-43072D01*
X36504Y-43009D01*
X36417Y-42954D01*
X36326Y-42906D01*
X36230Y-42867D01*
X36132Y-42836D01*
X36032Y-42813D01*
X35929Y-42800D01*
X35827Y-42795D01*
X35827Y-45157D02*
X35929Y-45152D01*
X36032Y-45139D01*
X36132Y-45116D01*
X36230Y-45085D01*
X36326Y-45046D01*
X36417Y-44998D01*
X36504Y-44943D01*
X36586Y-44880D01*
X36662Y-44811D01*
X36731Y-44735D01*
X36794Y-44653D01*
X36849Y-44566D01*
X36897Y-44475D01*
X36936Y-44379D01*
X36967Y-44281D01*
X36990Y-44181D01*
X37003Y-44078D01*
X37008Y-43976D01*
X33741Y-49095D02*
X33977Y-49095D01*
X35315Y-49095D02*
X35079Y-49095D01*
X35315Y-49095D02*
X35709Y-50276D01*
X33741Y-49095D02*
X33347Y-50276D01*
X34528Y-51457D02*
X34630Y-51452D01*
X34733Y-51439D01*
X34833Y-51416D01*
X34931Y-51385D01*
X35027Y-51346D01*
X35118Y-51298D01*
X35205Y-51243D01*
X35287Y-51180D01*
X35363Y-51111D01*
X35432Y-51035D01*
X35495Y-50953D01*
X35550Y-50866D01*
X35598Y-50775D01*
X35637Y-50679D01*
X35668Y-50581D01*
X35691Y-50481D01*
X35704Y-50378D01*
X35709Y-50276D01*
X33347Y-50276D02*
X33352Y-50378D01*
X33365Y-50481D01*
X33388Y-50581D01*
X33419Y-50679D01*
X33458Y-50775D01*
X33506Y-50866D01*
X33561Y-50953D01*
X33624Y-51035D01*
X33693Y-51111D01*
X33769Y-51180D01*
X33851Y-51243D01*
X33938Y-51298D01*
X34029Y-51346D01*
X34125Y-51385D01*
X34223Y-51416D01*
X34323Y-51439D01*
X34426Y-51452D01*
X34528Y-51457D01*
G54D15*
X38522Y-52955D02*
X38522Y-51455D01*
G54D16*
X38209Y-52205D02*
X38195Y-52342D01*
X38155Y-52474D01*
X38090Y-52596D01*
X38003Y-52703D01*
X37897Y-52791D01*
X37775Y-52856D01*
X37644Y-52897D01*
X37506Y-52911D01*
X37370Y-52899D01*
X37238Y-52860D01*
X37115Y-52796D01*
X37008Y-52710D01*
X36919Y-52604D01*
X36853Y-52483D01*
X36811Y-52351D01*
X36796Y-52214D01*
X36807Y-52078D01*
X36845Y-51945D01*
X36908Y-51823D01*
X36994Y-51714D01*
X37099Y-51625D01*
X37219Y-51558D01*
X37351Y-51515D01*
X37488Y-51499D01*
X37624Y-51509D01*
X37757Y-51546D01*
X37880Y-51609D01*
X37989Y-51694D01*
X38079Y-51798D01*
X38147Y-51918D01*
X38191Y-52049D01*
X38208Y-52186D01*
X38209Y-52205D01*
G54D14*
X38501Y-51455D02*
X38432Y-51371D01*
X38356Y-51293D01*
X38273Y-51222D01*
X38184Y-51158D01*
X38090Y-51103D01*
X37992Y-51056D01*
X37890Y-51017D01*
X37785Y-50988D01*
X37678Y-50968D01*
X37569Y-50957D01*
X37461Y-50956D01*
X37352Y-50965D01*
X37245Y-50982D01*
X37139Y-51009D01*
X37036Y-51046D01*
X36937Y-51091D01*
X36842Y-51144D01*
X36752Y-51206D01*
X36668Y-51275D01*
X36590Y-51351D01*
X36519Y-51434D01*
X36455Y-51523D01*
X36400Y-51617D01*
X36353Y-51715D01*
X36314Y-51817D01*
X36285Y-51922D01*
X36265Y-52029D01*
X36254Y-52138D01*
X36253Y-52246D01*
X36262Y-52355D01*
X36279Y-52462D01*
X36306Y-52568D01*
X36343Y-52671D01*
X36388Y-52770D01*
X36441Y-52865D01*
X36503Y-52955D01*
X36572Y-53039D01*
X36648Y-53117D01*
X36731Y-53188D01*
X36820Y-53252D01*
X36914Y-53307D01*
X37012Y-53354D01*
X37114Y-53393D01*
X37219Y-53422D01*
X37326Y-53442D01*
X37435Y-53453D01*
X37543Y-53454D01*
X37652Y-53445D01*
X37759Y-53428D01*
X37865Y-53401D01*
X37968Y-53364D01*
X38067Y-53319D01*
X38162Y-53266D01*
X38252Y-53204D01*
X38336Y-53135D01*
X38414Y-53059D01*
X38485Y-52976D01*
X38501Y-52955D01*
G54D10*
X37502Y-51755D02*
X37463Y-51757D01*
X37424Y-51762D01*
X37386Y-51771D01*
X37349Y-51783D01*
X37312Y-51798D01*
X37278Y-51816D01*
X37244Y-51837D01*
X37213Y-51861D01*
X37184Y-51887D01*
X37158Y-51916D01*
X37134Y-51947D01*
X37113Y-51981D01*
X37095Y-52015D01*
X37080Y-52052D01*
X37068Y-52089D01*
X37059Y-52127D01*
X37054Y-52166D01*
X37052Y-52205D01*
X37502Y-52655D02*
X37541Y-52653D01*
X37580Y-52648D01*
X37618Y-52639D01*
X37655Y-52627D01*
X37692Y-52612D01*
X37727Y-52594D01*
X37760Y-52573D01*
X37791Y-52549D01*
X37820Y-52523D01*
X37846Y-52494D01*
X37870Y-52463D01*
X37891Y-52429D01*
X37909Y-52395D01*
X37924Y-52358D01*
X37936Y-52321D01*
X37945Y-52283D01*
X37950Y-52244D01*
X37952Y-52205D01*
X37502Y-51555D02*
X37446Y-51558D01*
X37390Y-51565D01*
X37334Y-51578D01*
X37280Y-51595D01*
X37228Y-51616D01*
X37178Y-51643D01*
X37130Y-51673D01*
X37085Y-51708D01*
X37043Y-51746D01*
X37005Y-51788D01*
X36970Y-51833D01*
X36940Y-51881D01*
X36913Y-51931D01*
X36892Y-51983D01*
X36875Y-52037D01*
X36862Y-52093D01*
X36855Y-52149D01*
X36852Y-52205D01*
X37502Y-52855D02*
X37558Y-52852D01*
X37614Y-52845D01*
X37670Y-52832D01*
X37724Y-52815D01*
X37776Y-52794D01*
X37827Y-52767D01*
X37874Y-52737D01*
X37919Y-52702D01*
X37961Y-52664D01*
X37999Y-52622D01*
X38034Y-52577D01*
X38064Y-52529D01*
X38091Y-52479D01*
X38112Y-52427D01*
X38129Y-52373D01*
X38142Y-52317D01*
X38149Y-52261D01*
X38152Y-52205D01*
X37502Y-51355D02*
X37428Y-51359D01*
X37355Y-51368D01*
X37283Y-51384D01*
X37212Y-51407D01*
X37143Y-51435D01*
X37078Y-51469D01*
X37015Y-51509D01*
X36956Y-51554D01*
X36901Y-51604D01*
X36851Y-51659D01*
X36806Y-51718D01*
X36766Y-51781D01*
X36732Y-51846D01*
X36704Y-51915D01*
X36681Y-51986D01*
X36665Y-52058D01*
X36656Y-52131D01*
X36652Y-52205D01*
X37502Y-53055D02*
X37576Y-53051D01*
X37649Y-53042D01*
X37721Y-53026D01*
X37792Y-53003D01*
X37861Y-52975D01*
X37927Y-52941D01*
X37989Y-52901D01*
X38048Y-52856D01*
X38103Y-52806D01*
X38153Y-52751D01*
X38198Y-52692D01*
X38238Y-52629D01*
X38272Y-52564D01*
X38300Y-52495D01*
X38323Y-52424D01*
X38339Y-52352D01*
X38348Y-52279D01*
X38352Y-52205D01*
G54D15*
X39096Y-45534D02*
X37596Y-45534D01*
G54D16*
X39053Y-46554D02*
X39039Y-46691D01*
X38999Y-46823D01*
X38934Y-46945D01*
X38847Y-47052D01*
X38741Y-47140D01*
X38619Y-47205D01*
X38488Y-47246D01*
X38350Y-47260D01*
X38214Y-47248D01*
X38082Y-47209D01*
X37959Y-47145D01*
X37852Y-47059D01*
X37763Y-46953D01*
X37697Y-46832D01*
X37655Y-46700D01*
X37640Y-46563D01*
X37651Y-46427D01*
X37689Y-46294D01*
X37752Y-46172D01*
X37838Y-46063D01*
X37943Y-45974D01*
X38063Y-45907D01*
X38195Y-45864D01*
X38332Y-45848D01*
X38468Y-45858D01*
X38601Y-45895D01*
X38724Y-45958D01*
X38833Y-46043D01*
X38923Y-46147D01*
X38991Y-46267D01*
X39035Y-46398D01*
X39052Y-46535D01*
X39053Y-46554D01*
G54D14*
X37596Y-45555D02*
X37512Y-45624D01*
X37434Y-45700D01*
X37363Y-45783D01*
X37299Y-45872D01*
X37244Y-45966D01*
X37197Y-46064D01*
X37158Y-46166D01*
X37129Y-46271D01*
X37109Y-46378D01*
X37098Y-46487D01*
X37097Y-46595D01*
X37106Y-46704D01*
X37123Y-46811D01*
X37150Y-46917D01*
X37187Y-47020D01*
X37232Y-47119D01*
X37285Y-47214D01*
X37347Y-47304D01*
X37416Y-47388D01*
X37492Y-47466D01*
X37575Y-47537D01*
X37664Y-47601D01*
X37758Y-47656D01*
X37856Y-47703D01*
X37958Y-47742D01*
X38063Y-47771D01*
X38170Y-47791D01*
X38279Y-47802D01*
X38387Y-47803D01*
X38496Y-47794D01*
X38603Y-47777D01*
X38709Y-47750D01*
X38812Y-47713D01*
X38911Y-47668D01*
X39006Y-47615D01*
X39096Y-47553D01*
X39180Y-47484D01*
X39258Y-47408D01*
X39329Y-47325D01*
X39393Y-47236D01*
X39448Y-47142D01*
X39495Y-47044D01*
X39534Y-46942D01*
X39563Y-46837D01*
X39583Y-46730D01*
X39594Y-46621D01*
X39595Y-46513D01*
X39586Y-46404D01*
X39569Y-46297D01*
X39542Y-46191D01*
X39505Y-46088D01*
X39460Y-45989D01*
X39407Y-45894D01*
X39345Y-45804D01*
X39276Y-45720D01*
X39200Y-45642D01*
X39117Y-45571D01*
X39096Y-45555D01*
G54D10*
X37896Y-46554D02*
X37898Y-46593D01*
X37903Y-46632D01*
X37912Y-46670D01*
X37924Y-46707D01*
X37939Y-46744D01*
X37957Y-46778D01*
X37978Y-46812D01*
X38002Y-46843D01*
X38028Y-46872D01*
X38057Y-46898D01*
X38088Y-46922D01*
X38122Y-46943D01*
X38156Y-46961D01*
X38193Y-46976D01*
X38230Y-46988D01*
X38268Y-46997D01*
X38307Y-47002D01*
X38346Y-47004D01*
X38796Y-46554D02*
X38794Y-46515D01*
X38789Y-46476D01*
X38780Y-46438D01*
X38768Y-46401D01*
X38753Y-46364D01*
X38735Y-46330D01*
X38714Y-46296D01*
X38690Y-46265D01*
X38664Y-46236D01*
X38635Y-46210D01*
X38604Y-46186D01*
X38571Y-46165D01*
X38536Y-46147D01*
X38499Y-46132D01*
X38462Y-46120D01*
X38424Y-46111D01*
X38385Y-46106D01*
X38346Y-46104D01*
X37696Y-46554D02*
X37699Y-46610D01*
X37706Y-46666D01*
X37719Y-46722D01*
X37736Y-46776D01*
X37757Y-46828D01*
X37784Y-46878D01*
X37814Y-46926D01*
X37849Y-46971D01*
X37887Y-47013D01*
X37929Y-47051D01*
X37974Y-47086D01*
X38022Y-47116D01*
X38072Y-47143D01*
X38124Y-47164D01*
X38178Y-47181D01*
X38234Y-47194D01*
X38290Y-47201D01*
X38346Y-47204D01*
X38996Y-46554D02*
X38993Y-46498D01*
X38986Y-46442D01*
X38973Y-46386D01*
X38956Y-46332D01*
X38935Y-46280D01*
X38908Y-46230D01*
X38878Y-46182D01*
X38843Y-46137D01*
X38805Y-46095D01*
X38763Y-46057D01*
X38718Y-46022D01*
X38671Y-45992D01*
X38620Y-45965D01*
X38568Y-45944D01*
X38514Y-45927D01*
X38458Y-45914D01*
X38402Y-45907D01*
X38346Y-45904D01*
X37496Y-46554D02*
X37500Y-46628D01*
X37509Y-46701D01*
X37525Y-46773D01*
X37548Y-46844D01*
X37576Y-46913D01*
X37610Y-46978D01*
X37650Y-47041D01*
X37695Y-47100D01*
X37745Y-47155D01*
X37800Y-47205D01*
X37859Y-47250D01*
X37922Y-47290D01*
X37987Y-47324D01*
X38056Y-47352D01*
X38127Y-47375D01*
X38199Y-47391D01*
X38272Y-47400D01*
X38346Y-47404D01*
X39196Y-46554D02*
X39192Y-46480D01*
X39183Y-46407D01*
X39167Y-46335D01*
X39144Y-46264D01*
X39116Y-46195D01*
X39082Y-46130D01*
X39042Y-46067D01*
X38997Y-46008D01*
X38947Y-45953D01*
X38892Y-45903D01*
X38833Y-45858D01*
X38771Y-45818D01*
X38705Y-45784D01*
X38636Y-45756D01*
X38565Y-45733D01*
X38493Y-45717D01*
X38420Y-45708D01*
X38346Y-45704D01*
G54D15*
X41632Y-52955D02*
X41632Y-51455D01*
G54D16*
X41319Y-52205D02*
X41305Y-52342D01*
X41265Y-52474D01*
X41200Y-52596D01*
X41113Y-52703D01*
X41007Y-52791D01*
X40885Y-52856D01*
X40754Y-52897D01*
X40616Y-52911D01*
X40480Y-52899D01*
X40348Y-52860D01*
X40225Y-52796D01*
X40118Y-52710D01*
X40029Y-52604D01*
X39963Y-52483D01*
X39921Y-52351D01*
X39906Y-52214D01*
X39917Y-52078D01*
X39955Y-51945D01*
X40018Y-51823D01*
X40104Y-51714D01*
X40209Y-51625D01*
X40329Y-51558D01*
X40461Y-51515D01*
X40598Y-51499D01*
X40734Y-51509D01*
X40867Y-51546D01*
X40990Y-51609D01*
X41099Y-51694D01*
X41189Y-51798D01*
X41257Y-51918D01*
X41301Y-52049D01*
X41318Y-52186D01*
X41319Y-52205D01*
G54D14*
X41611Y-51455D02*
X41542Y-51371D01*
X41466Y-51293D01*
X41383Y-51222D01*
X41294Y-51158D01*
X41200Y-51103D01*
X41102Y-51056D01*
X41000Y-51017D01*
X40895Y-50988D01*
X40788Y-50968D01*
X40679Y-50957D01*
X40571Y-50956D01*
X40462Y-50965D01*
X40355Y-50982D01*
X40249Y-51009D01*
X40146Y-51046D01*
X40047Y-51091D01*
X39952Y-51144D01*
X39862Y-51206D01*
X39778Y-51275D01*
X39700Y-51351D01*
X39629Y-51434D01*
X39565Y-51523D01*
X39510Y-51617D01*
X39463Y-51715D01*
X39424Y-51817D01*
X39395Y-51922D01*
X39375Y-52029D01*
X39364Y-52138D01*
X39363Y-52246D01*
X39372Y-52355D01*
X39389Y-52462D01*
X39416Y-52568D01*
X39453Y-52671D01*
X39498Y-52770D01*
X39551Y-52865D01*
X39613Y-52955D01*
X39682Y-53039D01*
X39758Y-53117D01*
X39841Y-53188D01*
X39930Y-53252D01*
X40024Y-53307D01*
X40122Y-53354D01*
X40224Y-53393D01*
X40329Y-53422D01*
X40436Y-53442D01*
X40545Y-53453D01*
X40653Y-53454D01*
X40762Y-53445D01*
X40869Y-53428D01*
X40975Y-53401D01*
X41078Y-53364D01*
X41177Y-53319D01*
X41272Y-53266D01*
X41362Y-53204D01*
X41446Y-53135D01*
X41524Y-53059D01*
X41595Y-52976D01*
X41611Y-52955D01*
G54D10*
X40612Y-51755D02*
X40573Y-51757D01*
X40534Y-51762D01*
X40496Y-51771D01*
X40459Y-51783D01*
X40422Y-51798D01*
X40388Y-51816D01*
X40354Y-51837D01*
X40323Y-51861D01*
X40294Y-51887D01*
X40268Y-51916D01*
X40244Y-51947D01*
X40223Y-51981D01*
X40205Y-52015D01*
X40190Y-52052D01*
X40178Y-52089D01*
X40169Y-52127D01*
X40164Y-52166D01*
X40162Y-52205D01*
X40612Y-52655D02*
X40651Y-52653D01*
X40690Y-52648D01*
X40728Y-52639D01*
X40765Y-52627D01*
X40802Y-52612D01*
X40837Y-52594D01*
X40870Y-52573D01*
X40901Y-52549D01*
X40930Y-52523D01*
X40956Y-52494D01*
X40980Y-52463D01*
X41001Y-52429D01*
X41019Y-52395D01*
X41034Y-52358D01*
X41046Y-52321D01*
X41055Y-52283D01*
X41060Y-52244D01*
X41062Y-52205D01*
X40612Y-51555D02*
X40556Y-51558D01*
X40500Y-51565D01*
X40444Y-51578D01*
X40390Y-51595D01*
X40338Y-51616D01*
X40288Y-51643D01*
X40240Y-51673D01*
X40195Y-51708D01*
X40153Y-51746D01*
X40115Y-51788D01*
X40080Y-51833D01*
X40050Y-51881D01*
X40023Y-51931D01*
X40002Y-51983D01*
X39985Y-52037D01*
X39972Y-52093D01*
X39965Y-52149D01*
X39962Y-52205D01*
X40612Y-52855D02*
X40668Y-52852D01*
X40724Y-52845D01*
X40780Y-52832D01*
X40834Y-52815D01*
X40886Y-52794D01*
X40937Y-52767D01*
X40984Y-52737D01*
X41029Y-52702D01*
X41071Y-52664D01*
X41109Y-52622D01*
X41144Y-52577D01*
X41174Y-52529D01*
X41201Y-52479D01*
X41222Y-52427D01*
X41239Y-52373D01*
X41252Y-52317D01*
X41259Y-52261D01*
X41262Y-52205D01*
X40612Y-51355D02*
X40538Y-51359D01*
X40465Y-51368D01*
X40393Y-51384D01*
X40322Y-51407D01*
X40253Y-51435D01*
X40188Y-51469D01*
X40125Y-51509D01*
X40066Y-51554D01*
X40011Y-51604D01*
X39961Y-51659D01*
X39916Y-51718D01*
X39876Y-51781D01*
X39842Y-51846D01*
X39814Y-51915D01*
X39791Y-51986D01*
X39775Y-52058D01*
X39766Y-52131D01*
X39762Y-52205D01*
X40612Y-53055D02*
X40686Y-53051D01*
X40759Y-53042D01*
X40831Y-53026D01*
X40902Y-53003D01*
X40971Y-52975D01*
X41037Y-52941D01*
X41099Y-52901D01*
X41158Y-52856D01*
X41213Y-52806D01*
X41263Y-52751D01*
X41308Y-52692D01*
X41348Y-52629D01*
X41382Y-52564D01*
X41410Y-52495D01*
X41433Y-52424D01*
X41449Y-52352D01*
X41458Y-52279D01*
X41462Y-52205D01*
G54D17*
G36*
X43270Y-49476D02*
X43270Y-49460D01*
X43269Y-49410D01*
X43267Y-49377D01*
X43264Y-49365D01*
X43256Y-49367D01*
X43228Y-49374D01*
X43181Y-49387D01*
X43120Y-49403D01*
X43047Y-49423D01*
X42905Y-49462D01*
X42830Y-49483D01*
X42764Y-49500D01*
X42713Y-49514D01*
X42678Y-49523D01*
X42664Y-49526D01*
X42663Y-49526D01*
X42647Y-49515D01*
X42615Y-49492D01*
X42571Y-49458D01*
X42518Y-49416D01*
X42458Y-49368D01*
X42263Y-49210D01*
X42263Y-49412D01*
X42476Y-49578D01*
X42503Y-49600D01*
X42562Y-49646D01*
X42613Y-49686D01*
X42653Y-49718D01*
X42678Y-49738D01*
X42687Y-49746D01*
X42681Y-49745D01*
X42653Y-49740D01*
X42606Y-49731D01*
X42543Y-49719D01*
X42465Y-49704D01*
X42377Y-49687D01*
X42281Y-49668D01*
X42213Y-49655D01*
X42121Y-49636D01*
X42039Y-49620D01*
X41969Y-49607D01*
X41915Y-49597D01*
X41880Y-49590D01*
X41865Y-49588D01*
X41862Y-49588D01*
X41858Y-49593D01*
X41856Y-49608D01*
X41856Y-49638D01*
X41856Y-49688D01*
X41858Y-49788D01*
X41907Y-49798D01*
X41953Y-49809D01*
X41986Y-49825D01*
X42013Y-49848D01*
X42027Y-49864D01*
X42042Y-49892D01*
X42046Y-49927D01*
X42046Y-49929D01*
X42042Y-49957D01*
X42027Y-49980D01*
X42023Y-49984D01*
X42004Y-49999D01*
X41981Y-50005D01*
X41945Y-50002D01*
X41892Y-49993D01*
X41856Y-49985D01*
X41826Y-49979D01*
X41814Y-49977D01*
X41813Y-49971D01*
X41813Y-49945D01*
X41812Y-49916D01*
X41644Y-49916D01*
X41642Y-49936D01*
X41639Y-49943D01*
X41634Y-49944D01*
X41628Y-49942D01*
X41602Y-49936D01*
X41565Y-49928D01*
X41549Y-49924D01*
X41510Y-49913D01*
X41483Y-49902D01*
X41478Y-49899D01*
X41447Y-49871D01*
X41428Y-49833D01*
X41422Y-49792D01*
X41430Y-49757D01*
X41454Y-49732D01*
X41456Y-49731D01*
X41491Y-49724D01*
X41540Y-49726D01*
X41595Y-49735D01*
X41641Y-49746D01*
X41643Y-49846D01*
X41644Y-49879D01*
X41644Y-49916D01*
X41812Y-49916D01*
X41812Y-49901D01*
X41812Y-49844D01*
X41811Y-49776D01*
X41811Y-49576D01*
X41797Y-49572D01*
X41794Y-49571D01*
X41752Y-49562D01*
X41697Y-49552D01*
X41637Y-49541D01*
X41577Y-49530D01*
X41524Y-49522D01*
X41482Y-49516D01*
X41459Y-49513D01*
X41447Y-49514D01*
X41376Y-49528D01*
X41314Y-49563D01*
X41264Y-49613D01*
X41234Y-49676D01*
X41232Y-49683D01*
X41225Y-49730D01*
X41225Y-49785D01*
X41231Y-49834D01*
X41245Y-49881D01*
X41285Y-49953D01*
X41341Y-50019D01*
X41407Y-50073D01*
X41478Y-50110D01*
X41487Y-50113D01*
X41522Y-50121D01*
X41573Y-50132D01*
X41635Y-50146D01*
X41704Y-50160D01*
X41775Y-50174D01*
X41843Y-50187D01*
X41902Y-50198D01*
X41948Y-50206D01*
X41976Y-50210D01*
X42016Y-50210D01*
X42081Y-50202D01*
X42135Y-50182D01*
X42148Y-50174D01*
X42199Y-50128D01*
X42235Y-50066D01*
X42253Y-49994D01*
X42251Y-49917D01*
X42250Y-49908D01*
X42246Y-49880D01*
X42246Y-49868D01*
X42249Y-49868D01*
X42273Y-49872D01*
X42317Y-49881D01*
X42378Y-49893D01*
X42456Y-49908D01*
X42546Y-49925D01*
X42646Y-49945D01*
X42810Y-49978D01*
X42914Y-49999D01*
X43010Y-50018D01*
X43094Y-50034D01*
X43165Y-50048D01*
X43218Y-50058D01*
X43253Y-50064D01*
X43265Y-50065D01*
X43266Y-50064D01*
X43268Y-50046D01*
X43269Y-50011D01*
X43270Y-49964D01*
X43270Y-49923D01*
X43269Y-49890D01*
X43267Y-49873D01*
X43263Y-49865D01*
X43256Y-49863D01*
X43246Y-49861D01*
X43215Y-49854D01*
X43170Y-49846D01*
X43116Y-49835D01*
X43100Y-49832D01*
X43036Y-49818D01*
X42996Y-49807D01*
X42977Y-49799D01*
X42973Y-49795D01*
X42939Y-49765D01*
X42904Y-49734D01*
X42874Y-49705D01*
X42853Y-49685D01*
X42845Y-49677D01*
X42851Y-49675D01*
X42877Y-49669D01*
X42921Y-49660D01*
X42978Y-49648D01*
X43044Y-49635D01*
X43090Y-49625D01*
X43152Y-49612D01*
X43204Y-49602D01*
X43240Y-49594D01*
X43256Y-49591D01*
X43257Y-49590D01*
X43263Y-49588D01*
X43267Y-49580D01*
X43269Y-49562D01*
X43270Y-49529D01*
X43270Y-49476D01*
X43270Y-49476D01*
G37*
G36*
X43189Y-48287D02*
X43184Y-48278D01*
X43171Y-48257D01*
X43152Y-48228D01*
X43129Y-48193D01*
X43105Y-48159D01*
X43086Y-48130D01*
X43073Y-48110D01*
X43069Y-48102D01*
X43070Y-48097D01*
X43078Y-48081D01*
X43091Y-48057D01*
X43098Y-48043D01*
X43107Y-48021D01*
X43109Y-48010D01*
X43106Y-48008D01*
X43090Y-48000D01*
X43061Y-47988D01*
X43023Y-47971D01*
X42978Y-47952D01*
X42930Y-47932D01*
X42882Y-47911D01*
X42835Y-47892D01*
X42793Y-47875D01*
X42759Y-47861D01*
X42735Y-47852D01*
X42725Y-47849D01*
X42723Y-47850D01*
X42712Y-47861D01*
X42698Y-47880D01*
X42664Y-47921D01*
X42613Y-47962D01*
X42555Y-47987D01*
X42490Y-47996D01*
X42431Y-47989D01*
X42374Y-47965D01*
X42322Y-47925D01*
X42284Y-47876D01*
X42259Y-47820D01*
X42251Y-47756D01*
X42258Y-47695D01*
X42281Y-47637D01*
X42321Y-47585D01*
X42346Y-47563D01*
X42398Y-47533D01*
X42454Y-47516D01*
X42468Y-47514D01*
X42530Y-47517D01*
X42589Y-47535D01*
X42641Y-47567D01*
X42685Y-47612D01*
X42689Y-47618D01*
X42704Y-47639D01*
X42715Y-47653D01*
X42724Y-47664D01*
X42913Y-47586D01*
X42943Y-47573D01*
X42994Y-47552D01*
X43039Y-47533D01*
X43074Y-47517D01*
X43098Y-47507D01*
X43107Y-47502D01*
X43108Y-47502D01*
X43109Y-47495D01*
X43104Y-47481D01*
X43091Y-47454D01*
X43082Y-47437D01*
X43072Y-47417D01*
X43069Y-47408D01*
X43073Y-47400D01*
X43085Y-47381D01*
X43104Y-47353D01*
X43127Y-47319D01*
X43149Y-47287D01*
X43168Y-47258D01*
X43182Y-47236D01*
X43188Y-47226D01*
X43188Y-47224D01*
X43183Y-47215D01*
X43168Y-47198D01*
X43144Y-47172D01*
X43108Y-47136D01*
X43103Y-47130D01*
X43072Y-47100D01*
X43047Y-47076D01*
X43029Y-47060D01*
X43020Y-47054D01*
X43020Y-47054D01*
X43010Y-47059D01*
X42989Y-47073D01*
X42959Y-47092D01*
X42924Y-47116D01*
X42833Y-47179D01*
X42747Y-47144D01*
X42721Y-47134D01*
X42689Y-47120D01*
X42667Y-47110D01*
X42657Y-47105D01*
X42653Y-47096D01*
X42648Y-47073D01*
X42641Y-47039D01*
X42633Y-46998D01*
X42626Y-46959D01*
X42619Y-46925D01*
X42614Y-46899D01*
X42612Y-46888D01*
X42611Y-46885D01*
X42605Y-46883D01*
X42593Y-46882D01*
X42572Y-46881D01*
X42539Y-46880D01*
X42490Y-46880D01*
X42485Y-46880D01*
X42439Y-46881D01*
X42402Y-46881D01*
X42379Y-46883D01*
X42369Y-46884D01*
X42369Y-46884D01*
X42367Y-46895D01*
X42361Y-46920D01*
X42355Y-46955D01*
X42347Y-46996D01*
X42346Y-46999D01*
X42338Y-47040D01*
X42331Y-47075D01*
X42325Y-47099D01*
X42322Y-47110D01*
X42319Y-47112D01*
X42303Y-47120D01*
X42277Y-47132D01*
X42246Y-47146D01*
X42213Y-47159D01*
X42184Y-47171D01*
X42162Y-47179D01*
X42152Y-47181D01*
X42152Y-47181D01*
X42142Y-47175D01*
X42121Y-47161D01*
X42091Y-47141D01*
X42056Y-47116D01*
X42053Y-47115D01*
X42018Y-47091D01*
X41988Y-47071D01*
X41967Y-47059D01*
X41958Y-47054D01*
X41957Y-47054D01*
X41947Y-47062D01*
X41927Y-47080D01*
X41900Y-47105D01*
X41869Y-47136D01*
X41859Y-47146D01*
X41826Y-47180D01*
X41804Y-47203D01*
X41793Y-47218D01*
X41790Y-47225D01*
X41790Y-47225D01*
X41797Y-47236D01*
X41811Y-47258D01*
X41832Y-47288D01*
X41856Y-47324D01*
X41857Y-47326D01*
X41881Y-47361D01*
X41901Y-47390D01*
X41915Y-47411D01*
X41920Y-47420D01*
X41920Y-47422D01*
X41916Y-47436D01*
X41907Y-47461D01*
X41895Y-47491D01*
X41882Y-47524D01*
X41870Y-47553D01*
X41860Y-47575D01*
X41854Y-47586D01*
X41853Y-47586D01*
X41841Y-47590D01*
X41815Y-47596D01*
X41779Y-47603D01*
X41736Y-47611D01*
X41729Y-47613D01*
X41687Y-47621D01*
X41653Y-47627D01*
X41629Y-47632D01*
X41619Y-47635D01*
X41618Y-47641D01*
X41616Y-47661D01*
X41615Y-47692D01*
X41615Y-47730D01*
X41615Y-47769D01*
X41616Y-47808D01*
X41617Y-47841D01*
X41619Y-47864D01*
X41621Y-47874D01*
X41621Y-47875D01*
X41634Y-47878D01*
X41660Y-47884D01*
X41697Y-47891D01*
X41740Y-47900D01*
X41747Y-47901D01*
X41789Y-47909D01*
X41823Y-47916D01*
X41847Y-47921D01*
X41856Y-47924D01*
X41858Y-47927D01*
X41865Y-47945D01*
X41877Y-47973D01*
X41891Y-48007D01*
X41923Y-48087D01*
X41856Y-48186D01*
X41850Y-48195D01*
X41826Y-48230D01*
X41806Y-48259D01*
X41793Y-48279D01*
X41789Y-48288D01*
X41789Y-48288D01*
X41798Y-48298D01*
X41816Y-48318D01*
X41842Y-48344D01*
X41873Y-48375D01*
X41895Y-48398D01*
X41923Y-48425D01*
X41942Y-48443D01*
X41954Y-48452D01*
X41961Y-48455D01*
X41966Y-48454D01*
X41976Y-48448D01*
X41997Y-48434D01*
X42027Y-48413D01*
X42062Y-48389D01*
X42091Y-48370D01*
X42124Y-48348D01*
X42148Y-48334D01*
X42159Y-48330D01*
X42164Y-48331D01*
X42183Y-48338D01*
X42212Y-48349D01*
X42247Y-48364D01*
X42325Y-48398D01*
X42335Y-48449D01*
X42340Y-48480D01*
X42349Y-48524D01*
X42357Y-48565D01*
X42369Y-48630D01*
X42606Y-48632D01*
X42610Y-48622D01*
X42613Y-48612D01*
X42618Y-48588D01*
X42625Y-48554D01*
X42633Y-48514D01*
X42639Y-48480D01*
X42646Y-48445D01*
X42651Y-48420D01*
X42653Y-48409D01*
X42657Y-48406D01*
X42673Y-48398D01*
X42700Y-48385D01*
X42732Y-48372D01*
X42765Y-48358D01*
X42796Y-48346D01*
X42819Y-48337D01*
X42832Y-48334D01*
X42841Y-48339D01*
X42861Y-48352D01*
X42890Y-48371D01*
X42924Y-48394D01*
X42959Y-48418D01*
X42988Y-48438D01*
X43009Y-48451D01*
X43019Y-48457D01*
X43026Y-48454D01*
X43042Y-48441D01*
X43069Y-48415D01*
X43107Y-48376D01*
X43113Y-48370D01*
X43143Y-48339D01*
X43167Y-48313D01*
X43183Y-48295D01*
X43189Y-48287D01*
X43189Y-48287D01*
G37*
G54D13*
X45925Y-46082D02*
X45925Y-45295D01*
X45925Y-46082D02*
X43485Y-46082D01*
X43485Y-46082D02*
X43485Y-45295D01*
X45925Y-43642D02*
X45925Y-44429D01*
X45925Y-43642D02*
X43485Y-43642D01*
X43485Y-43642D02*
X43485Y-44429D01*
X32796Y-25236D02*
X32796Y-25039D01*
X32796Y-19882D02*
X32796Y-23307D01*
X36260Y-25236D02*
X36260Y-19882D01*
X36260Y-25236D02*
X35394Y-25236D01*
X36260Y-19882D02*
X32796Y-19882D01*
X32796Y-25236D02*
X33642Y-25236D01*
G54D15*
X37789Y-31739D02*
X37622Y-31477D01*
X37503Y-31739D02*
X37503Y-31189D01*
X37694Y-31189D01*
X37741Y-31215D01*
X37765Y-31241D01*
X37789Y-31293D01*
X37789Y-31372D01*
X37765Y-31424D01*
X37741Y-31451D01*
X37694Y-31477D01*
X37503Y-31477D01*
X37979Y-31241D02*
X38003Y-31215D01*
X38051Y-31189D01*
X38170Y-31189D01*
X38217Y-31215D01*
X38241Y-31241D01*
X38265Y-31293D01*
X38265Y-31346D01*
X38241Y-31424D01*
X37955Y-31739D01*
X38265Y-31739D01*
X38693Y-31372D02*
X38693Y-31739D01*
X38574Y-31162D02*
X38455Y-31555D01*
X38765Y-31555D01*
X35111Y-29633D02*
X34944Y-29371D01*
X34825Y-29633D02*
X34825Y-29083D01*
X35016Y-29083D01*
X35063Y-29109D01*
X35087Y-29135D01*
X35111Y-29187D01*
X35111Y-29266D01*
X35087Y-29318D01*
X35063Y-29345D01*
X35016Y-29371D01*
X34825Y-29371D01*
X35301Y-29135D02*
X35325Y-29109D01*
X35373Y-29083D01*
X35492Y-29083D01*
X35539Y-29109D01*
X35563Y-29135D01*
X35587Y-29187D01*
X35587Y-29240D01*
X35563Y-29318D01*
X35277Y-29633D01*
X35587Y-29633D01*
X35753Y-29083D02*
X36063Y-29083D01*
X35896Y-29292D01*
X35968Y-29292D01*
X36015Y-29318D01*
X36039Y-29345D01*
X36063Y-29397D01*
X36063Y-29528D01*
X36039Y-29580D01*
X36015Y-29606D01*
X35968Y-29633D01*
X35825Y-29633D01*
X35777Y-29606D01*
X35753Y-29580D01*
X35190Y-32822D02*
X35023Y-32560D01*
X34904Y-32822D02*
X34904Y-32272D01*
X35095Y-32272D01*
X35142Y-32298D01*
X35166Y-32324D01*
X35190Y-32376D01*
X35190Y-32455D01*
X35166Y-32507D01*
X35142Y-32534D01*
X35095Y-32560D01*
X34904Y-32560D01*
X35380Y-32324D02*
X35404Y-32298D01*
X35452Y-32272D01*
X35571Y-32272D01*
X35618Y-32298D01*
X35642Y-32324D01*
X35666Y-32376D01*
X35666Y-32429D01*
X35642Y-32507D01*
X35356Y-32822D01*
X35666Y-32822D01*
X35856Y-32324D02*
X35880Y-32298D01*
X35928Y-32272D01*
X36047Y-32272D01*
X36094Y-32298D01*
X36118Y-32324D01*
X36142Y-32376D01*
X36142Y-32429D01*
X36118Y-32507D01*
X35832Y-32822D01*
X36142Y-32822D01*
X31647Y-46129D02*
X31480Y-45867D01*
X31361Y-46129D02*
X31361Y-45579D01*
X31552Y-45579D01*
X31599Y-45605D01*
X31623Y-45631D01*
X31647Y-45683D01*
X31647Y-45762D01*
X31623Y-45814D01*
X31599Y-45841D01*
X31552Y-45867D01*
X31361Y-45867D01*
X32123Y-46129D02*
X31837Y-46129D01*
X31980Y-46129D02*
X31980Y-45579D01*
X31932Y-45657D01*
X31885Y-45710D01*
X31837Y-45736D01*
X32551Y-45762D02*
X32551Y-46129D01*
X32432Y-45552D02*
X32313Y-45945D01*
X32623Y-45945D01*
X29876Y-45459D02*
X29709Y-45197D01*
X29590Y-45459D02*
X29590Y-44909D01*
X29781Y-44909D01*
X29828Y-44935D01*
X29852Y-44961D01*
X29876Y-45013D01*
X29876Y-45092D01*
X29852Y-45144D01*
X29828Y-45171D01*
X29781Y-45197D01*
X29590Y-45197D01*
X30352Y-45459D02*
X30066Y-45459D01*
X30209Y-45459D02*
X30209Y-44909D01*
X30161Y-44987D01*
X30114Y-45040D01*
X30066Y-45066D01*
X30542Y-44961D02*
X30566Y-44935D01*
X30614Y-44909D01*
X30733Y-44909D01*
X30780Y-44935D01*
X30804Y-44961D01*
X30828Y-45013D01*
X30828Y-45066D01*
X30804Y-45144D01*
X30518Y-45459D01*
X30828Y-45459D01*
X31846Y-42979D02*
X31679Y-42717D01*
X31560Y-42979D02*
X31560Y-42429D01*
X31751Y-42429D01*
X31798Y-42455D01*
X31822Y-42481D01*
X31846Y-42533D01*
X31846Y-42612D01*
X31822Y-42664D01*
X31798Y-42691D01*
X31751Y-42717D01*
X31560Y-42717D01*
X32084Y-42979D02*
X32179Y-42979D01*
X32227Y-42952D01*
X32251Y-42926D01*
X32298Y-42848D01*
X32322Y-42743D01*
X32322Y-42533D01*
X32298Y-42481D01*
X32274Y-42455D01*
X32227Y-42429D01*
X32131Y-42429D01*
X32084Y-42455D01*
X32060Y-42481D01*
X32036Y-42533D01*
X32036Y-42664D01*
X32060Y-42717D01*
X32084Y-42743D01*
X32131Y-42769D01*
X32227Y-42769D01*
X32274Y-42743D01*
X32298Y-42717D01*
X32322Y-42664D01*
X33303Y-46129D02*
X33065Y-46129D01*
X33065Y-45579D01*
X33446Y-45631D02*
X33470Y-45605D01*
X33518Y-45579D01*
X33637Y-45579D01*
X33684Y-45605D01*
X33708Y-45631D01*
X33732Y-45683D01*
X33732Y-45736D01*
X33708Y-45814D01*
X33422Y-46129D01*
X33732Y-46129D01*
X25980Y-51738D02*
X25813Y-51476D01*
X25694Y-51738D02*
X25694Y-51188D01*
X25885Y-51188D01*
X25932Y-51214D01*
X25956Y-51240D01*
X25980Y-51292D01*
X25980Y-51371D01*
X25956Y-51423D01*
X25932Y-51450D01*
X25885Y-51476D01*
X25694Y-51476D01*
X26408Y-51188D02*
X26313Y-51188D01*
X26265Y-51214D01*
X26242Y-51240D01*
X26194Y-51319D01*
X26170Y-51423D01*
X26170Y-51633D01*
X26194Y-51685D01*
X26218Y-51711D01*
X26265Y-51738D01*
X26361Y-51738D01*
X26408Y-51711D01*
X26432Y-51685D01*
X26456Y-51633D01*
X26456Y-51502D01*
X26432Y-51450D01*
X26408Y-51423D01*
X26361Y-51397D01*
X26265Y-51397D01*
X26218Y-51423D01*
X26194Y-51450D01*
X26170Y-51502D01*
X40033Y-50657D02*
X39866Y-50395D01*
X39747Y-50657D02*
X39747Y-50107D01*
X39938Y-50107D01*
X39985Y-50133D01*
X40009Y-50159D01*
X40033Y-50211D01*
X40033Y-50290D01*
X40009Y-50342D01*
X39985Y-50369D01*
X39938Y-50395D01*
X39747Y-50395D01*
X40509Y-50657D02*
X40223Y-50657D01*
X40366Y-50657D02*
X40366Y-50107D01*
X40318Y-50185D01*
X40271Y-50238D01*
X40223Y-50264D01*
X40794Y-50342D02*
X40747Y-50316D01*
X40723Y-50290D01*
X40699Y-50238D01*
X40699Y-50211D01*
X40723Y-50159D01*
X40747Y-50133D01*
X40794Y-50107D01*
X40890Y-50107D01*
X40937Y-50133D01*
X40961Y-50159D01*
X40985Y-50211D01*
X40985Y-50238D01*
X40961Y-50290D01*
X40937Y-50316D01*
X40890Y-50342D01*
X40794Y-50342D01*
X40747Y-50369D01*
X40723Y-50395D01*
X40699Y-50447D01*
X40699Y-50552D01*
X40723Y-50604D01*
X40747Y-50630D01*
X40794Y-50657D01*
X40890Y-50657D01*
X40937Y-50630D01*
X40961Y-50604D01*
X40985Y-50552D01*
X40985Y-50447D01*
X40961Y-50395D01*
X40937Y-50369D01*
X40890Y-50342D01*
X33458Y-29003D02*
X33291Y-28741D01*
X33172Y-29003D02*
X33172Y-28453D01*
X33363Y-28453D01*
X33410Y-28479D01*
X33434Y-28505D01*
X33458Y-28557D01*
X33458Y-28636D01*
X33434Y-28688D01*
X33410Y-28715D01*
X33363Y-28741D01*
X33172Y-28741D01*
X33648Y-28505D02*
X33672Y-28479D01*
X33720Y-28453D01*
X33839Y-28453D01*
X33886Y-28479D01*
X33910Y-28505D01*
X33934Y-28557D01*
X33934Y-28610D01*
X33910Y-28688D01*
X33624Y-29003D01*
X33934Y-29003D01*
X34410Y-29003D02*
X34124Y-29003D01*
X34267Y-29003D02*
X34267Y-28453D01*
X34219Y-28531D01*
X34172Y-28584D01*
X34124Y-28610D01*
X26569Y-43786D02*
X26402Y-43524D01*
X26283Y-43786D02*
X26283Y-43236D01*
X26474Y-43236D01*
X26521Y-43262D01*
X26545Y-43288D01*
X26569Y-43340D01*
X26569Y-43419D01*
X26545Y-43471D01*
X26521Y-43498D01*
X26474Y-43524D01*
X26283Y-43524D01*
X27045Y-43786D02*
X26759Y-43786D01*
X26902Y-43786D02*
X26902Y-43236D01*
X26854Y-43314D01*
X26807Y-43367D01*
X26759Y-43393D01*
X27211Y-43236D02*
X27521Y-43236D01*
X27354Y-43445D01*
X27426Y-43445D01*
X27473Y-43471D01*
X27497Y-43498D01*
X27521Y-43550D01*
X27521Y-43681D01*
X27497Y-43733D01*
X27473Y-43759D01*
X27426Y-43786D01*
X27283Y-43786D01*
X27235Y-43759D01*
X27211Y-43733D01*
X26490Y-41522D02*
X26323Y-41260D01*
X26204Y-41522D02*
X26204Y-40972D01*
X26395Y-40972D01*
X26442Y-40998D01*
X26466Y-41024D01*
X26490Y-41076D01*
X26490Y-41155D01*
X26466Y-41207D01*
X26442Y-41234D01*
X26395Y-41260D01*
X26204Y-41260D01*
X26966Y-41522D02*
X26680Y-41522D01*
X26823Y-41522D02*
X26823Y-40972D01*
X26775Y-41050D01*
X26728Y-41103D01*
X26680Y-41129D01*
X27204Y-41522D02*
X27299Y-41522D01*
X27347Y-41495D01*
X27371Y-41469D01*
X27418Y-41391D01*
X27442Y-41286D01*
X27442Y-41076D01*
X27418Y-41024D01*
X27394Y-40998D01*
X27347Y-40972D01*
X27251Y-40972D01*
X27204Y-40998D01*
X27180Y-41024D01*
X27156Y-41076D01*
X27156Y-41207D01*
X27180Y-41260D01*
X27204Y-41286D01*
X27251Y-41312D01*
X27347Y-41312D01*
X27394Y-41286D01*
X27418Y-41260D01*
X27442Y-41207D01*
X30782Y-35124D02*
X30615Y-34862D01*
X30496Y-35124D02*
X30496Y-34574D01*
X30687Y-34574D01*
X30734Y-34600D01*
X30758Y-34626D01*
X30782Y-34678D01*
X30782Y-34757D01*
X30758Y-34809D01*
X30734Y-34836D01*
X30687Y-34862D01*
X30496Y-34862D01*
X31258Y-35124D02*
X30972Y-35124D01*
X31115Y-35124D02*
X31115Y-34574D01*
X31067Y-34652D01*
X31020Y-34705D01*
X30972Y-34731D01*
X31686Y-34574D02*
X31591Y-34574D01*
X31543Y-34600D01*
X31520Y-34626D01*
X31472Y-34705D01*
X31448Y-34809D01*
X31448Y-35019D01*
X31472Y-35071D01*
X31496Y-35097D01*
X31543Y-35124D01*
X31639Y-35124D01*
X31686Y-35097D01*
X31710Y-35071D01*
X31734Y-35019D01*
X31734Y-34888D01*
X31710Y-34836D01*
X31686Y-34809D01*
X31639Y-34783D01*
X31543Y-34783D01*
X31496Y-34809D01*
X31472Y-34836D01*
X31448Y-34888D01*
X27632Y-35085D02*
X27465Y-34823D01*
X27346Y-35085D02*
X27346Y-34535D01*
X27537Y-34535D01*
X27584Y-34561D01*
X27608Y-34587D01*
X27632Y-34639D01*
X27632Y-34718D01*
X27608Y-34770D01*
X27584Y-34797D01*
X27537Y-34823D01*
X27346Y-34823D01*
X28108Y-35085D02*
X27822Y-35085D01*
X27965Y-35085D02*
X27965Y-34535D01*
X27917Y-34613D01*
X27870Y-34666D01*
X27822Y-34692D01*
X28274Y-34535D02*
X28608Y-34535D01*
X28393Y-35085D01*
X29130Y-47349D02*
X28963Y-47087D01*
X28844Y-47349D02*
X28844Y-46799D01*
X29035Y-46799D01*
X29082Y-46825D01*
X29106Y-46851D01*
X29130Y-46903D01*
X29130Y-46982D01*
X29106Y-47034D01*
X29082Y-47061D01*
X29035Y-47087D01*
X28844Y-47087D01*
X29296Y-46799D02*
X29630Y-46799D01*
X29415Y-47349D01*
X21177Y-49436D02*
X21010Y-49174D01*
X20891Y-49436D02*
X20891Y-48886D01*
X21082Y-48886D01*
X21129Y-48912D01*
X21153Y-48938D01*
X21177Y-48990D01*
X21177Y-49069D01*
X21153Y-49121D01*
X21129Y-49148D01*
X21082Y-49174D01*
X20891Y-49174D01*
X21462Y-49121D02*
X21415Y-49095D01*
X21391Y-49069D01*
X21367Y-49017D01*
X21367Y-48990D01*
X21391Y-48938D01*
X21415Y-48912D01*
X21462Y-48886D01*
X21558Y-48886D01*
X21605Y-48912D01*
X21629Y-48938D01*
X21653Y-48990D01*
X21653Y-49017D01*
X21629Y-49069D01*
X21605Y-49095D01*
X21558Y-49121D01*
X21462Y-49121D01*
X21415Y-49148D01*
X21391Y-49174D01*
X21367Y-49226D01*
X21367Y-49331D01*
X21391Y-49383D01*
X21415Y-49409D01*
X21462Y-49436D01*
X21558Y-49436D01*
X21605Y-49409D01*
X21629Y-49383D01*
X21653Y-49331D01*
X21653Y-49226D01*
X21629Y-49174D01*
X21605Y-49148D01*
X21558Y-49121D01*
X30232Y-51719D02*
X29994Y-51719D01*
X29994Y-51169D01*
X30661Y-51719D02*
X30375Y-51719D01*
X30518Y-51719D02*
X30518Y-51169D01*
X30470Y-51247D01*
X30423Y-51300D01*
X30375Y-51326D01*
X37397Y-50577D02*
X37230Y-50315D01*
X37111Y-50577D02*
X37111Y-50027D01*
X37302Y-50027D01*
X37349Y-50053D01*
X37373Y-50079D01*
X37397Y-50131D01*
X37397Y-50210D01*
X37373Y-50262D01*
X37349Y-50289D01*
X37302Y-50315D01*
X37111Y-50315D01*
X37825Y-50210D02*
X37825Y-50577D01*
X37706Y-50000D02*
X37587Y-50393D01*
X37897Y-50393D01*
X42004Y-41640D02*
X41837Y-41378D01*
X41718Y-41640D02*
X41718Y-41090D01*
X41909Y-41090D01*
X41956Y-41116D01*
X41980Y-41142D01*
X42004Y-41194D01*
X42004Y-41273D01*
X41980Y-41325D01*
X41956Y-41352D01*
X41909Y-41378D01*
X41718Y-41378D01*
X42170Y-41090D02*
X42480Y-41090D01*
X42313Y-41299D01*
X42385Y-41299D01*
X42432Y-41325D01*
X42456Y-41352D01*
X42480Y-41404D01*
X42480Y-41535D01*
X42456Y-41587D01*
X42432Y-41613D01*
X42385Y-41640D01*
X42242Y-41640D01*
X42194Y-41613D01*
X42170Y-41587D01*
X40547Y-43176D02*
X40380Y-42914D01*
X40261Y-43176D02*
X40261Y-42626D01*
X40452Y-42626D01*
X40499Y-42652D01*
X40523Y-42678D01*
X40547Y-42730D01*
X40547Y-42809D01*
X40523Y-42861D01*
X40499Y-42888D01*
X40452Y-42914D01*
X40261Y-42914D01*
X40737Y-42678D02*
X40761Y-42652D01*
X40809Y-42626D01*
X40928Y-42626D01*
X40975Y-42652D01*
X40999Y-42678D01*
X41023Y-42730D01*
X41023Y-42783D01*
X40999Y-42861D01*
X40713Y-43176D01*
X41023Y-43176D01*
X40744Y-44632D02*
X40577Y-44370D01*
X40458Y-44632D02*
X40458Y-44082D01*
X40649Y-44082D01*
X40696Y-44108D01*
X40720Y-44134D01*
X40744Y-44186D01*
X40744Y-44265D01*
X40720Y-44317D01*
X40696Y-44344D01*
X40649Y-44370D01*
X40458Y-44370D01*
X41220Y-44632D02*
X40934Y-44632D01*
X41077Y-44632D02*
X41077Y-44082D01*
X41029Y-44160D01*
X40982Y-44213D01*
X40934Y-44239D01*
X40900Y-29790D02*
X40733Y-29528D01*
X40614Y-29790D02*
X40614Y-29240D01*
X40805Y-29240D01*
X40852Y-29266D01*
X40876Y-29292D01*
X40900Y-29344D01*
X40900Y-29423D01*
X40876Y-29475D01*
X40852Y-29502D01*
X40805Y-29528D01*
X40614Y-29528D01*
X41376Y-29790D02*
X41090Y-29790D01*
X41233Y-29790D02*
X41233Y-29240D01*
X41185Y-29318D01*
X41138Y-29371D01*
X41090Y-29397D01*
X41685Y-29240D02*
X41733Y-29240D01*
X41781Y-29266D01*
X41804Y-29292D01*
X41828Y-29344D01*
X41852Y-29449D01*
X41852Y-29580D01*
X41828Y-29685D01*
X41804Y-29737D01*
X41781Y-29763D01*
X41733Y-29790D01*
X41685Y-29790D01*
X41638Y-29763D01*
X41614Y-29737D01*
X41590Y-29685D01*
X41566Y-29580D01*
X41566Y-29449D01*
X41590Y-29344D01*
X41614Y-29292D01*
X41638Y-29266D01*
X41685Y-29240D01*
X42553Y-29790D02*
X42386Y-29528D01*
X42267Y-29790D02*
X42267Y-29240D01*
X42458Y-29240D01*
X42505Y-29266D01*
X42529Y-29292D01*
X42553Y-29344D01*
X42553Y-29423D01*
X42529Y-29475D01*
X42505Y-29502D01*
X42458Y-29528D01*
X42267Y-29528D01*
X43029Y-29790D02*
X42743Y-29790D01*
X42886Y-29790D02*
X42886Y-29240D01*
X42838Y-29318D01*
X42791Y-29371D01*
X42743Y-29397D01*
X43505Y-29790D02*
X43219Y-29790D01*
X43362Y-29790D02*
X43362Y-29240D01*
X43314Y-29318D01*
X43267Y-29371D01*
X43219Y-29397D01*
X28500Y-51719D02*
X28333Y-51457D01*
X28214Y-51719D02*
X28214Y-51169D01*
X28405Y-51169D01*
X28452Y-51195D01*
X28476Y-51221D01*
X28500Y-51273D01*
X28500Y-51352D01*
X28476Y-51404D01*
X28452Y-51431D01*
X28405Y-51457D01*
X28214Y-51457D01*
X28952Y-51169D02*
X28714Y-51169D01*
X28690Y-51431D01*
X28714Y-51404D01*
X28762Y-51378D01*
X28881Y-51378D01*
X28928Y-51404D01*
X28952Y-51431D01*
X28976Y-51483D01*
X28976Y-51614D01*
X28952Y-51666D01*
X28928Y-51692D01*
X28881Y-51719D01*
X28762Y-51719D01*
X28714Y-51692D01*
X28690Y-51666D01*
X38577Y-35105D02*
X38410Y-34843D01*
X38291Y-35105D02*
X38291Y-34555D01*
X38482Y-34555D01*
X38529Y-34581D01*
X38553Y-34607D01*
X38577Y-34659D01*
X38577Y-34738D01*
X38553Y-34790D01*
X38529Y-34817D01*
X38482Y-34843D01*
X38291Y-34843D01*
X39053Y-35105D02*
X38767Y-35105D01*
X38910Y-35105D02*
X38910Y-34555D01*
X38862Y-34633D01*
X38815Y-34686D01*
X38767Y-34712D01*
X39505Y-34555D02*
X39267Y-34555D01*
X39243Y-34817D01*
X39267Y-34790D01*
X39315Y-34764D01*
X39434Y-34764D01*
X39481Y-34790D01*
X39505Y-34817D01*
X39529Y-34869D01*
X39529Y-35000D01*
X39505Y-35052D01*
X39481Y-35078D01*
X39434Y-35105D01*
X39315Y-35105D01*
X39267Y-35078D01*
X39243Y-35052D01*
X40445Y-38324D02*
X40445Y-38729D01*
X40467Y-38777D01*
X40488Y-38801D01*
X40531Y-38824D01*
X40617Y-38824D01*
X40659Y-38801D01*
X40681Y-38777D01*
X40702Y-38729D01*
X40702Y-38324D01*
X41152Y-38824D02*
X40895Y-38824D01*
X41023Y-38824D02*
X41023Y-38324D01*
X40980Y-38396D01*
X40938Y-38443D01*
X40895Y-38467D01*
X43721Y-38943D02*
X43721Y-38443D01*
X43816Y-38443D01*
X43874Y-38467D01*
X43912Y-38515D01*
X43931Y-38562D01*
X43950Y-38658D01*
X43950Y-38729D01*
X43931Y-38824D01*
X43912Y-38872D01*
X43874Y-38920D01*
X43816Y-38943D01*
X43721Y-38943D01*
X44293Y-38610D02*
X44293Y-38943D01*
X44197Y-38420D02*
X44102Y-38777D01*
X44350Y-38777D01*
X45570Y-31343D02*
X45570Y-30843D01*
X45665Y-30843D01*
X45723Y-30867D01*
X45761Y-30915D01*
X45780Y-30962D01*
X45799Y-31058D01*
X45799Y-31129D01*
X45780Y-31224D01*
X45761Y-31272D01*
X45723Y-31320D01*
X45665Y-31343D01*
X45570Y-31343D01*
X46142Y-30843D02*
X46065Y-30843D01*
X46027Y-30867D01*
X46008Y-30891D01*
X45970Y-30962D01*
X45951Y-31058D01*
X45951Y-31248D01*
X45970Y-31296D01*
X45989Y-31320D01*
X46027Y-31343D01*
X46104Y-31343D01*
X46142Y-31320D01*
X46161Y-31296D01*
X46180Y-31248D01*
X46180Y-31129D01*
X46161Y-31081D01*
X46142Y-31058D01*
X46104Y-31034D01*
X46027Y-31034D01*
X45989Y-31058D01*
X45970Y-31081D01*
X45951Y-31129D01*
X43917Y-31343D02*
X43917Y-30843D01*
X44012Y-30843D01*
X44070Y-30867D01*
X44108Y-30915D01*
X44127Y-30962D01*
X44146Y-31058D01*
X44146Y-31129D01*
X44127Y-31224D01*
X44108Y-31272D01*
X44070Y-31320D01*
X44012Y-31343D01*
X43917Y-31343D01*
X44374Y-31058D02*
X44336Y-31034D01*
X44317Y-31010D01*
X44298Y-30962D01*
X44298Y-30939D01*
X44317Y-30891D01*
X44336Y-30867D01*
X44374Y-30843D01*
X44451Y-30843D01*
X44489Y-30867D01*
X44508Y-30891D01*
X44527Y-30939D01*
X44527Y-30962D01*
X44508Y-31010D01*
X44489Y-31034D01*
X44451Y-31058D01*
X44374Y-31058D01*
X44336Y-31081D01*
X44317Y-31105D01*
X44298Y-31153D01*
X44298Y-31248D01*
X44317Y-31296D01*
X44336Y-31320D01*
X44374Y-31343D01*
X44451Y-31343D01*
X44489Y-31320D01*
X44508Y-31296D01*
X44527Y-31248D01*
X44527Y-31153D01*
X44508Y-31105D01*
X44489Y-31081D01*
X44451Y-31058D01*
X39627Y-31344D02*
X39627Y-30844D01*
X39722Y-30844D01*
X39780Y-30868D01*
X39818Y-30916D01*
X39837Y-30963D01*
X39856Y-31059D01*
X39856Y-31130D01*
X39837Y-31225D01*
X39818Y-31273D01*
X39780Y-31321D01*
X39722Y-31344D01*
X39627Y-31344D01*
X40046Y-31344D02*
X40122Y-31344D01*
X40161Y-31321D01*
X40180Y-31297D01*
X40218Y-31225D01*
X40237Y-31130D01*
X40237Y-30940D01*
X40218Y-30892D01*
X40199Y-30868D01*
X40161Y-30844D01*
X40084Y-30844D01*
X40046Y-30868D01*
X40027Y-30892D01*
X40008Y-30940D01*
X40008Y-31059D01*
X40027Y-31106D01*
X40046Y-31130D01*
X40084Y-31154D01*
X40161Y-31154D01*
X40199Y-31130D01*
X40218Y-31106D01*
X40237Y-31059D01*
X41044Y-23666D02*
X41044Y-23266D01*
X41139Y-23266D01*
X41197Y-23285D01*
X41235Y-23323D01*
X41254Y-23361D01*
X41273Y-23437D01*
X41273Y-23494D01*
X41254Y-23571D01*
X41235Y-23609D01*
X41197Y-23647D01*
X41139Y-23666D01*
X41044Y-23666D01*
X41635Y-23266D02*
X41444Y-23266D01*
X41425Y-23456D01*
X41444Y-23437D01*
X41482Y-23418D01*
X41578Y-23418D01*
X41616Y-23437D01*
X41635Y-23456D01*
X41654Y-23494D01*
X41654Y-23590D01*
X41635Y-23628D01*
X41616Y-23647D01*
X41578Y-23666D01*
X41482Y-23666D01*
X41444Y-23647D01*
X41425Y-23628D01*
X41044Y-24886D02*
X41044Y-24486D01*
X41139Y-24486D01*
X41197Y-24505D01*
X41235Y-24543D01*
X41254Y-24581D01*
X41273Y-24657D01*
X41273Y-24714D01*
X41254Y-24791D01*
X41235Y-24829D01*
X41197Y-24867D01*
X41139Y-24886D01*
X41044Y-24886D01*
X41406Y-24486D02*
X41654Y-24486D01*
X41520Y-24638D01*
X41578Y-24638D01*
X41616Y-24657D01*
X41635Y-24676D01*
X41654Y-24714D01*
X41654Y-24810D01*
X41635Y-24848D01*
X41616Y-24867D01*
X41578Y-24886D01*
X41463Y-24886D01*
X41425Y-24867D01*
X41406Y-24848D01*
X24743Y-30872D02*
X24724Y-30891D01*
X24667Y-30910D01*
X24629Y-30910D01*
X24571Y-30891D01*
X24533Y-30853D01*
X24514Y-30815D01*
X24495Y-30738D01*
X24495Y-30681D01*
X24514Y-30605D01*
X24533Y-30567D01*
X24571Y-30529D01*
X24629Y-30510D01*
X24667Y-30510D01*
X24724Y-30529D01*
X24743Y-30548D01*
X24895Y-30548D02*
X24914Y-30529D01*
X24952Y-30510D01*
X25048Y-30510D01*
X25086Y-30529D01*
X25105Y-30548D01*
X25124Y-30586D01*
X25124Y-30624D01*
X25105Y-30681D01*
X24876Y-30910D01*
X25124Y-30910D01*
X25257Y-30510D02*
X25505Y-30510D01*
X25371Y-30662D01*
X25429Y-30662D01*
X25467Y-30681D01*
X25486Y-30700D01*
X25505Y-30738D01*
X25505Y-30834D01*
X25486Y-30872D01*
X25467Y-30891D01*
X25429Y-30910D01*
X25314Y-30910D01*
X25276Y-30891D01*
X25257Y-30872D01*
X46003Y-36344D02*
X45984Y-36363D01*
X45927Y-36382D01*
X45889Y-36382D01*
X45831Y-36363D01*
X45793Y-36325D01*
X45774Y-36287D01*
X45755Y-36210D01*
X45755Y-36153D01*
X45774Y-36077D01*
X45793Y-36039D01*
X45831Y-36001D01*
X45889Y-35982D01*
X45927Y-35982D01*
X45984Y-36001D01*
X46003Y-36020D01*
X46384Y-36382D02*
X46155Y-36382D01*
X46269Y-36382D02*
X46269Y-35982D01*
X46231Y-36039D01*
X46193Y-36077D01*
X46155Y-36096D01*
X46517Y-35982D02*
X46765Y-35982D01*
X46631Y-36134D01*
X46689Y-36134D01*
X46727Y-36153D01*
X46746Y-36172D01*
X46765Y-36210D01*
X46765Y-36306D01*
X46746Y-36344D01*
X46727Y-36363D01*
X46689Y-36382D01*
X46574Y-36382D01*
X46536Y-36363D01*
X46517Y-36344D01*
X45997Y-32290D02*
X45978Y-32309D01*
X45921Y-32328D01*
X45883Y-32328D01*
X45825Y-32309D01*
X45787Y-32271D01*
X45768Y-32233D01*
X45749Y-32156D01*
X45749Y-32099D01*
X45768Y-32023D01*
X45787Y-31985D01*
X45825Y-31947D01*
X45883Y-31928D01*
X45921Y-31928D01*
X45978Y-31947D01*
X45997Y-31966D01*
X46187Y-32328D02*
X46263Y-32328D01*
X46302Y-32309D01*
X46321Y-32290D01*
X46359Y-32233D01*
X46378Y-32156D01*
X46378Y-32004D01*
X46359Y-31966D01*
X46340Y-31947D01*
X46302Y-31928D01*
X46225Y-31928D01*
X46187Y-31947D01*
X46168Y-31966D01*
X46149Y-32004D01*
X46149Y-32099D01*
X46168Y-32137D01*
X46187Y-32156D01*
X46225Y-32176D01*
X46302Y-32176D01*
X46340Y-32156D01*
X46359Y-32137D01*
X46378Y-32099D01*
X36908Y-35596D02*
X36889Y-35615D01*
X36832Y-35634D01*
X36794Y-35634D01*
X36736Y-35615D01*
X36698Y-35577D01*
X36679Y-35539D01*
X36660Y-35462D01*
X36660Y-35405D01*
X36679Y-35329D01*
X36698Y-35291D01*
X36736Y-35253D01*
X36794Y-35234D01*
X36832Y-35234D01*
X36889Y-35253D01*
X36908Y-35272D01*
X37289Y-35634D02*
X37060Y-35634D01*
X37174Y-35634D02*
X37174Y-35234D01*
X37136Y-35291D01*
X37098Y-35329D01*
X37060Y-35348D01*
X37536Y-35234D02*
X37575Y-35234D01*
X37613Y-35253D01*
X37632Y-35272D01*
X37651Y-35310D01*
X37670Y-35386D01*
X37670Y-35482D01*
X37651Y-35558D01*
X37632Y-35596D01*
X37613Y-35615D01*
X37575Y-35634D01*
X37536Y-35634D01*
X37498Y-35615D01*
X37479Y-35596D01*
X37460Y-35558D01*
X37441Y-35482D01*
X37441Y-35386D01*
X37460Y-35310D01*
X37479Y-35272D01*
X37498Y-35253D01*
X37536Y-35234D01*
X38162Y-41581D02*
X38143Y-41600D01*
X38086Y-41619D01*
X38048Y-41619D01*
X37990Y-41600D01*
X37952Y-41562D01*
X37933Y-41524D01*
X37914Y-41447D01*
X37914Y-41390D01*
X37933Y-41314D01*
X37952Y-41276D01*
X37990Y-41238D01*
X38048Y-41219D01*
X38086Y-41219D01*
X38143Y-41238D01*
X38162Y-41257D01*
X38314Y-41257D02*
X38333Y-41238D01*
X38371Y-41219D01*
X38467Y-41219D01*
X38505Y-41238D01*
X38524Y-41257D01*
X38543Y-41295D01*
X38543Y-41333D01*
X38524Y-41390D01*
X38295Y-41619D01*
X38543Y-41619D01*
X36391Y-48077D02*
X36372Y-48096D01*
X36315Y-48115D01*
X36277Y-48115D01*
X36219Y-48096D01*
X36181Y-48058D01*
X36162Y-48020D01*
X36143Y-47943D01*
X36143Y-47886D01*
X36162Y-47810D01*
X36181Y-47772D01*
X36219Y-47734D01*
X36277Y-47715D01*
X36315Y-47715D01*
X36372Y-47734D01*
X36391Y-47753D01*
X36734Y-47848D02*
X36734Y-48115D01*
X36638Y-47696D02*
X36543Y-47982D01*
X36791Y-47982D01*
X32021Y-52171D02*
X32002Y-52190D01*
X31945Y-52209D01*
X31907Y-52209D01*
X31849Y-52190D01*
X31811Y-52152D01*
X31792Y-52114D01*
X31773Y-52037D01*
X31773Y-51980D01*
X31792Y-51904D01*
X31811Y-51866D01*
X31849Y-51828D01*
X31907Y-51809D01*
X31945Y-51809D01*
X32002Y-51828D01*
X32021Y-51847D01*
X32364Y-51809D02*
X32287Y-51809D01*
X32249Y-51828D01*
X32230Y-51847D01*
X32192Y-51904D01*
X32173Y-51980D01*
X32173Y-52133D01*
X32192Y-52171D01*
X32211Y-52190D01*
X32249Y-52209D01*
X32326Y-52209D01*
X32364Y-52190D01*
X32383Y-52171D01*
X32402Y-52133D01*
X32402Y-52037D01*
X32383Y-51999D01*
X32364Y-51980D01*
X32326Y-51961D01*
X32249Y-51961D01*
X32211Y-51980D01*
X32192Y-51999D01*
X32173Y-52037D01*
X42021Y-45832D02*
X42002Y-45851D01*
X41945Y-45870D01*
X41907Y-45870D01*
X41849Y-45851D01*
X41811Y-45813D01*
X41792Y-45775D01*
X41773Y-45698D01*
X41773Y-45641D01*
X41792Y-45565D01*
X41811Y-45527D01*
X41849Y-45489D01*
X41907Y-45470D01*
X41945Y-45470D01*
X42002Y-45489D01*
X42021Y-45508D01*
X42402Y-45870D02*
X42173Y-45870D01*
X42287Y-45870D02*
X42287Y-45470D01*
X42249Y-45527D01*
X42211Y-45565D01*
X42173Y-45584D01*
X27178Y-49416D02*
X27159Y-49435D01*
X27102Y-49454D01*
X27064Y-49454D01*
X27006Y-49435D01*
X26968Y-49397D01*
X26949Y-49359D01*
X26930Y-49282D01*
X26930Y-49225D01*
X26949Y-49149D01*
X26968Y-49111D01*
X27006Y-49073D01*
X27064Y-49054D01*
X27102Y-49054D01*
X27159Y-49073D01*
X27178Y-49092D01*
X27311Y-49054D02*
X27578Y-49054D01*
X27406Y-49454D01*
X22965Y-49415D02*
X22946Y-49434D01*
X22889Y-49453D01*
X22851Y-49453D01*
X22793Y-49434D01*
X22755Y-49396D01*
X22736Y-49358D01*
X22717Y-49281D01*
X22717Y-49224D01*
X22736Y-49148D01*
X22755Y-49110D01*
X22793Y-49072D01*
X22851Y-49053D01*
X22889Y-49053D01*
X22946Y-49072D01*
X22965Y-49091D01*
X23193Y-49224D02*
X23155Y-49205D01*
X23136Y-49186D01*
X23117Y-49148D01*
X23117Y-49129D01*
X23136Y-49091D01*
X23155Y-49072D01*
X23193Y-49053D01*
X23270Y-49053D01*
X23308Y-49072D01*
X23327Y-49091D01*
X23346Y-49129D01*
X23346Y-49148D01*
X23327Y-49186D01*
X23308Y-49205D01*
X23270Y-49224D01*
X23193Y-49224D01*
X23155Y-49243D01*
X23136Y-49262D01*
X23117Y-49301D01*
X23117Y-49377D01*
X23136Y-49415D01*
X23155Y-49434D01*
X23193Y-49453D01*
X23270Y-49453D01*
X23308Y-49434D01*
X23327Y-49415D01*
X23346Y-49377D01*
X23346Y-49301D01*
X23327Y-49262D01*
X23308Y-49243D01*
X23270Y-49224D01*
X33089Y-42131D02*
X33070Y-42150D01*
X33013Y-42169D01*
X32975Y-42169D01*
X32917Y-42150D01*
X32879Y-42112D01*
X32860Y-42074D01*
X32841Y-41997D01*
X32841Y-41940D01*
X32860Y-41864D01*
X32879Y-41826D01*
X32917Y-41788D01*
X32975Y-41769D01*
X33013Y-41769D01*
X33070Y-41788D01*
X33089Y-41807D01*
X33470Y-42169D02*
X33241Y-42169D01*
X33355Y-42169D02*
X33355Y-41769D01*
X33317Y-41826D01*
X33279Y-41864D01*
X33241Y-41883D01*
X33832Y-41769D02*
X33641Y-41769D01*
X33622Y-41959D01*
X33641Y-41940D01*
X33679Y-41921D01*
X33775Y-41921D01*
X33813Y-41940D01*
X33832Y-41959D01*
X33851Y-41997D01*
X33851Y-42093D01*
X33832Y-42131D01*
X33813Y-42150D01*
X33775Y-42169D01*
X33679Y-42169D01*
X33641Y-42150D01*
X33622Y-42131D01*
X24744Y-35281D02*
X24725Y-35300D01*
X24668Y-35319D01*
X24630Y-35319D01*
X24572Y-35300D01*
X24534Y-35262D01*
X24515Y-35224D01*
X24496Y-35147D01*
X24496Y-35090D01*
X24515Y-35014D01*
X24534Y-34976D01*
X24572Y-34938D01*
X24630Y-34919D01*
X24668Y-34919D01*
X24725Y-34938D01*
X24744Y-34957D01*
X24896Y-34957D02*
X24915Y-34938D01*
X24953Y-34919D01*
X25049Y-34919D01*
X25087Y-34938D01*
X25106Y-34957D01*
X25125Y-34995D01*
X25125Y-35033D01*
X25106Y-35090D01*
X24877Y-35319D01*
X25125Y-35319D01*
X25506Y-35319D02*
X25277Y-35319D01*
X25391Y-35319D02*
X25391Y-34919D01*
X25353Y-34976D01*
X25315Y-35014D01*
X25277Y-35033D01*
X31752Y-48077D02*
X31733Y-48096D01*
X31676Y-48115D01*
X31638Y-48115D01*
X31580Y-48096D01*
X31542Y-48058D01*
X31523Y-48020D01*
X31504Y-47943D01*
X31504Y-47886D01*
X31523Y-47810D01*
X31542Y-47772D01*
X31580Y-47734D01*
X31638Y-47715D01*
X31676Y-47715D01*
X31733Y-47734D01*
X31752Y-47753D01*
X32133Y-48115D02*
X31904Y-48115D01*
X32018Y-48115D02*
X32018Y-47715D01*
X31980Y-47772D01*
X31942Y-47810D01*
X31904Y-47829D01*
X32514Y-48115D02*
X32285Y-48115D01*
X32399Y-48115D02*
X32399Y-47715D01*
X32361Y-47772D01*
X32323Y-47810D01*
X32285Y-47829D01*
X22223Y-45400D02*
X22204Y-45419D01*
X22147Y-45438D01*
X22109Y-45438D01*
X22051Y-45419D01*
X22013Y-45381D01*
X21994Y-45343D01*
X21975Y-45266D01*
X21975Y-45209D01*
X21994Y-45133D01*
X22013Y-45095D01*
X22051Y-45057D01*
X22109Y-45038D01*
X22147Y-45038D01*
X22204Y-45057D01*
X22223Y-45076D01*
X22604Y-45438D02*
X22375Y-45438D01*
X22489Y-45438D02*
X22489Y-45038D01*
X22451Y-45095D01*
X22413Y-45133D01*
X22375Y-45152D01*
X22756Y-45076D02*
X22775Y-45057D01*
X22813Y-45038D01*
X22909Y-45038D01*
X22947Y-45057D01*
X22966Y-45076D01*
X22985Y-45114D01*
X22985Y-45152D01*
X22966Y-45209D01*
X22737Y-45438D01*
X22985Y-45438D01*
X30766Y-33077D02*
X30747Y-33096D01*
X30690Y-33115D01*
X30652Y-33115D01*
X30594Y-33096D01*
X30556Y-33058D01*
X30537Y-33020D01*
X30518Y-32943D01*
X30518Y-32886D01*
X30537Y-32810D01*
X30556Y-32772D01*
X30594Y-32734D01*
X30652Y-32715D01*
X30690Y-32715D01*
X30747Y-32734D01*
X30766Y-32753D01*
X31147Y-33115D02*
X30918Y-33115D01*
X31032Y-33115D02*
X31032Y-32715D01*
X30994Y-32772D01*
X30956Y-32810D01*
X30918Y-32829D01*
X31280Y-32715D02*
X31547Y-32715D01*
X31375Y-33115D01*
X24743Y-27486D02*
X24724Y-27505D01*
X24667Y-27524D01*
X24629Y-27524D01*
X24571Y-27505D01*
X24533Y-27467D01*
X24514Y-27429D01*
X24495Y-27352D01*
X24495Y-27295D01*
X24514Y-27219D01*
X24533Y-27181D01*
X24571Y-27143D01*
X24629Y-27124D01*
X24667Y-27124D01*
X24724Y-27143D01*
X24743Y-27162D01*
X24895Y-27162D02*
X24914Y-27143D01*
X24952Y-27124D01*
X25048Y-27124D01*
X25086Y-27143D01*
X25105Y-27162D01*
X25124Y-27200D01*
X25124Y-27238D01*
X25105Y-27295D01*
X24876Y-27524D01*
X25124Y-27524D01*
X25467Y-27257D02*
X25467Y-27524D01*
X25371Y-27105D02*
X25276Y-27391D01*
X25524Y-27391D01*
X24743Y-31974D02*
X24724Y-31993D01*
X24667Y-32012D01*
X24629Y-32012D01*
X24571Y-31993D01*
X24533Y-31955D01*
X24514Y-31917D01*
X24495Y-31840D01*
X24495Y-31783D01*
X24514Y-31707D01*
X24533Y-31669D01*
X24571Y-31631D01*
X24629Y-31612D01*
X24667Y-31612D01*
X24724Y-31631D01*
X24743Y-31650D01*
X24895Y-31650D02*
X24914Y-31631D01*
X24952Y-31612D01*
X25048Y-31612D01*
X25086Y-31631D01*
X25105Y-31650D01*
X25124Y-31688D01*
X25124Y-31726D01*
X25105Y-31783D01*
X24876Y-32012D01*
X25124Y-32012D01*
X25276Y-31650D02*
X25295Y-31631D01*
X25333Y-31612D01*
X25429Y-31612D01*
X25467Y-31631D01*
X25486Y-31650D01*
X25505Y-31688D01*
X25505Y-31726D01*
X25486Y-31783D01*
X25257Y-32012D01*
X25505Y-32012D01*
X24783Y-36503D02*
X24764Y-36522D01*
X24707Y-36541D01*
X24669Y-36541D01*
X24611Y-36522D01*
X24573Y-36484D01*
X24554Y-36446D01*
X24535Y-36369D01*
X24535Y-36312D01*
X24554Y-36236D01*
X24573Y-36198D01*
X24611Y-36160D01*
X24669Y-36141D01*
X24707Y-36141D01*
X24764Y-36160D01*
X24783Y-36179D01*
X24935Y-36179D02*
X24954Y-36160D01*
X24992Y-36141D01*
X25088Y-36141D01*
X25126Y-36160D01*
X25145Y-36179D01*
X25164Y-36217D01*
X25164Y-36255D01*
X25145Y-36312D01*
X24916Y-36541D01*
X25164Y-36541D01*
X25411Y-36141D02*
X25450Y-36141D01*
X25488Y-36160D01*
X25507Y-36179D01*
X25526Y-36217D01*
X25545Y-36293D01*
X25545Y-36389D01*
X25526Y-36465D01*
X25507Y-36503D01*
X25488Y-36522D01*
X25450Y-36541D01*
X25411Y-36541D01*
X25373Y-36522D01*
X25354Y-36503D01*
X25335Y-36465D01*
X25316Y-36389D01*
X25316Y-36293D01*
X25335Y-36217D01*
X25354Y-36179D01*
X25373Y-36160D01*
X25411Y-36141D01*
X26712Y-31974D02*
X26693Y-31993D01*
X26636Y-32012D01*
X26598Y-32012D01*
X26540Y-31993D01*
X26502Y-31955D01*
X26483Y-31917D01*
X26464Y-31840D01*
X26464Y-31783D01*
X26483Y-31707D01*
X26502Y-31669D01*
X26540Y-31631D01*
X26598Y-31612D01*
X26636Y-31612D01*
X26693Y-31631D01*
X26712Y-31650D01*
X27093Y-32012D02*
X26864Y-32012D01*
X26978Y-32012D02*
X26978Y-31612D01*
X26940Y-31669D01*
X26902Y-31707D01*
X26864Y-31726D01*
X27283Y-32012D02*
X27359Y-32012D01*
X27398Y-31993D01*
X27417Y-31974D01*
X27455Y-31917D01*
X27474Y-31840D01*
X27474Y-31688D01*
X27455Y-31650D01*
X27436Y-31631D01*
X27398Y-31612D01*
X27321Y-31612D01*
X27283Y-31631D01*
X27264Y-31650D01*
X27245Y-31688D01*
X27245Y-31783D01*
X27264Y-31821D01*
X27283Y-31840D01*
X27321Y-31860D01*
X27398Y-31860D01*
X27436Y-31840D01*
X27455Y-31821D01*
X27474Y-31783D01*
X33797Y-27566D02*
X33778Y-27585D01*
X33721Y-27604D01*
X33683Y-27604D01*
X33625Y-27585D01*
X33587Y-27547D01*
X33568Y-27509D01*
X33549Y-27432D01*
X33549Y-27375D01*
X33568Y-27299D01*
X33587Y-27261D01*
X33625Y-27223D01*
X33683Y-27204D01*
X33721Y-27204D01*
X33778Y-27223D01*
X33797Y-27242D01*
X34178Y-27604D02*
X33949Y-27604D01*
X34063Y-27604D02*
X34063Y-27204D01*
X34025Y-27261D01*
X33987Y-27299D01*
X33949Y-27318D01*
X34406Y-27375D02*
X34368Y-27356D01*
X34349Y-27337D01*
X34330Y-27299D01*
X34330Y-27280D01*
X34349Y-27242D01*
X34368Y-27223D01*
X34406Y-27204D01*
X34483Y-27204D01*
X34521Y-27223D01*
X34540Y-27242D01*
X34559Y-27280D01*
X34559Y-27299D01*
X34540Y-27337D01*
X34521Y-27356D01*
X34483Y-27375D01*
X34406Y-27375D01*
X34368Y-27394D01*
X34349Y-27413D01*
X34330Y-27452D01*
X34330Y-27528D01*
X34349Y-27566D01*
X34368Y-27585D01*
X34406Y-27604D01*
X34483Y-27604D01*
X34521Y-27585D01*
X34540Y-27566D01*
X34559Y-27528D01*
X34559Y-27452D01*
X34540Y-27413D01*
X34521Y-27394D01*
X34483Y-27375D01*
X24861Y-41384D02*
X24842Y-41403D01*
X24785Y-41422D01*
X24747Y-41422D01*
X24689Y-41403D01*
X24651Y-41365D01*
X24632Y-41327D01*
X24613Y-41250D01*
X24613Y-41193D01*
X24632Y-41117D01*
X24651Y-41079D01*
X24689Y-41041D01*
X24747Y-41022D01*
X24785Y-41022D01*
X24842Y-41041D01*
X24861Y-41060D01*
X25242Y-41422D02*
X25013Y-41422D01*
X25127Y-41422D02*
X25127Y-41022D01*
X25089Y-41079D01*
X25051Y-41117D01*
X25013Y-41136D01*
X25585Y-41022D02*
X25508Y-41022D01*
X25470Y-41041D01*
X25451Y-41060D01*
X25413Y-41117D01*
X25394Y-41193D01*
X25394Y-41346D01*
X25413Y-41384D01*
X25432Y-41403D01*
X25470Y-41422D01*
X25547Y-41422D01*
X25585Y-41403D01*
X25604Y-41384D01*
X25623Y-41346D01*
X25623Y-41250D01*
X25604Y-41212D01*
X25585Y-41193D01*
X25547Y-41174D01*
X25470Y-41174D01*
X25432Y-41193D01*
X25413Y-41212D01*
X25394Y-41250D01*
X26200Y-45400D02*
X26181Y-45419D01*
X26124Y-45438D01*
X26086Y-45438D01*
X26028Y-45419D01*
X25990Y-45381D01*
X25971Y-45343D01*
X25952Y-45266D01*
X25952Y-45209D01*
X25971Y-45133D01*
X25990Y-45095D01*
X26028Y-45057D01*
X26086Y-45038D01*
X26124Y-45038D01*
X26181Y-45057D01*
X26200Y-45076D01*
X26581Y-45438D02*
X26352Y-45438D01*
X26466Y-45438D02*
X26466Y-45038D01*
X26428Y-45095D01*
X26390Y-45133D01*
X26352Y-45152D01*
X26924Y-45171D02*
X26924Y-45438D01*
X26828Y-45019D02*
X26733Y-45305D01*
X26981Y-45305D01*
X46022Y-42613D02*
X46308Y-42613D01*
X46365Y-42633D01*
X46403Y-42671D01*
X46422Y-42728D01*
X46422Y-42766D01*
X46022Y-42461D02*
X46022Y-42213D01*
X46174Y-42347D01*
X46174Y-42289D01*
X46193Y-42251D01*
X46212Y-42232D01*
X46250Y-42213D01*
X46346Y-42213D01*
X46384Y-42232D01*
X46403Y-42251D01*
X46422Y-42289D01*
X46422Y-42404D01*
X46403Y-42442D01*
X46384Y-42461D01*
X46268Y-41633D02*
X46268Y-41442D01*
X46382Y-41671D02*
X45982Y-41538D01*
X46382Y-41404D01*
X45982Y-41328D02*
X46382Y-41195D01*
X45982Y-41061D01*
X46382Y-40699D02*
X46191Y-40833D01*
X46382Y-40928D02*
X45982Y-40928D01*
X45982Y-40775D01*
X46001Y-40737D01*
X46020Y-40718D01*
X46058Y-40699D01*
X46115Y-40699D01*
X46153Y-40718D01*
X46172Y-40737D01*
X46191Y-40775D01*
X46191Y-40928D01*
X46230Y-40528D02*
X46230Y-40223D01*
X46382Y-40033D02*
X45982Y-40033D01*
X46363Y-39862D02*
X46382Y-39805D01*
X46382Y-39709D01*
X46363Y-39671D01*
X46344Y-39652D01*
X46306Y-39633D01*
X46268Y-39633D01*
X46230Y-39652D01*
X46210Y-39671D01*
X46191Y-39709D01*
X46172Y-39786D01*
X46153Y-39824D01*
X46134Y-39843D01*
X46096Y-39862D01*
X46058Y-39862D01*
X46020Y-39843D01*
X46001Y-39824D01*
X45982Y-39786D01*
X45982Y-39690D01*
X46001Y-39633D01*
X46382Y-39462D02*
X45982Y-39462D01*
X45982Y-39309D01*
X46001Y-39271D01*
X46020Y-39252D01*
X46058Y-39233D01*
X46115Y-39233D01*
X46153Y-39252D01*
X46172Y-39271D01*
X46191Y-39309D01*
X46191Y-39462D01*
G54D11*
X25627Y-25942D02*
X25627Y-26370D01*
X25599Y-26456D01*
X25542Y-26513D01*
X25456Y-26542D01*
X25399Y-26542D01*
X26170Y-26142D02*
X26170Y-26542D01*
X26027Y-25913D02*
X25884Y-26342D01*
X26256Y-26342D01*
X29432Y-26370D02*
X29718Y-26370D01*
X29375Y-26542D02*
X29575Y-25942D01*
X29775Y-26542D01*
X29975Y-26542D02*
X29975Y-25942D01*
X30318Y-26542D01*
X30318Y-25942D01*
X30518Y-25942D02*
X30861Y-25942D01*
X30690Y-26542D02*
X30690Y-25942D01*
X20610Y-29968D02*
X20324Y-29968D01*
X20324Y-29368D01*
X21067Y-29568D02*
X21067Y-29968D01*
X20924Y-29339D02*
X20781Y-29768D01*
X21153Y-29768D01*
X20610Y-34416D02*
X20324Y-34416D01*
X20324Y-33816D01*
X20753Y-33816D02*
X21124Y-33816D01*
X20924Y-34044D01*
X21010Y-34044D01*
X21067Y-34073D01*
X21096Y-34102D01*
X21124Y-34159D01*
X21124Y-34302D01*
X21096Y-34359D01*
X21067Y-34387D01*
X21010Y-34416D01*
X20838Y-34416D01*
X20781Y-34387D01*
X20753Y-34359D01*
X28559Y-31612D02*
X28902Y-31612D01*
X28731Y-32212D02*
X28731Y-31612D01*
X29416Y-32212D02*
X29073Y-32212D01*
X29245Y-32212D02*
X29245Y-31612D01*
X29188Y-31698D01*
X29130Y-31755D01*
X29073Y-31783D01*
X44976Y-33777D02*
X44976Y-34263D01*
X45004Y-34320D01*
X45033Y-34348D01*
X45090Y-34377D01*
X45204Y-34377D01*
X45262Y-34348D01*
X45290Y-34320D01*
X45319Y-34263D01*
X45319Y-33777D01*
X45576Y-33834D02*
X45605Y-33805D01*
X45662Y-33777D01*
X45805Y-33777D01*
X45862Y-33805D01*
X45891Y-33834D01*
X45919Y-33891D01*
X45919Y-33948D01*
X45891Y-34034D01*
X45548Y-34377D01*
X45919Y-34377D01*
X37777Y-29513D02*
X37720Y-29484D01*
X37663Y-29427D01*
X37577Y-29342D01*
X37520Y-29313D01*
X37463Y-29313D01*
X37491Y-29456D02*
X37434Y-29427D01*
X37377Y-29370D01*
X37348Y-29256D01*
X37348Y-29056D01*
X37377Y-28942D01*
X37434Y-28884D01*
X37491Y-28856D01*
X37605Y-28856D01*
X37663Y-28884D01*
X37720Y-28942D01*
X37748Y-29056D01*
X37748Y-29256D01*
X37720Y-29370D01*
X37663Y-29427D01*
X37605Y-29456D01*
X37491Y-29456D01*
X38292Y-28856D02*
X38006Y-28856D01*
X37977Y-29142D01*
X38006Y-29113D01*
X38063Y-29084D01*
X38206Y-29084D01*
X38263Y-29113D01*
X38292Y-29142D01*
X38320Y-29199D01*
X38320Y-29342D01*
X38292Y-29399D01*
X38263Y-29427D01*
X38206Y-29456D01*
X38063Y-29456D01*
X38006Y-29427D01*
X37977Y-29399D01*
X25061Y-49552D02*
X25004Y-49523D01*
X24947Y-49466D01*
X24861Y-49381D01*
X24804Y-49352D01*
X24747Y-49352D01*
X24775Y-49495D02*
X24718Y-49466D01*
X24661Y-49409D01*
X24632Y-49295D01*
X24632Y-49095D01*
X24661Y-48981D01*
X24718Y-48923D01*
X24775Y-48895D01*
X24889Y-48895D01*
X24947Y-48923D01*
X25004Y-48981D01*
X25032Y-49095D01*
X25032Y-49295D01*
X25004Y-49409D01*
X24947Y-49466D01*
X24889Y-49495D01*
X24775Y-49495D01*
X25604Y-49495D02*
X25261Y-49495D01*
X25433Y-49495D02*
X25433Y-48895D01*
X25376Y-48981D01*
X25318Y-49038D01*
X25261Y-49066D01*
X33170Y-32860D02*
X33113Y-32831D01*
X33056Y-32774D01*
X32970Y-32689D01*
X32913Y-32660D01*
X32856Y-32660D01*
X32884Y-32803D02*
X32827Y-32774D01*
X32770Y-32717D01*
X32741Y-32603D01*
X32741Y-32403D01*
X32770Y-32289D01*
X32827Y-32231D01*
X32884Y-32203D01*
X32998Y-32203D01*
X33056Y-32231D01*
X33113Y-32289D01*
X33141Y-32403D01*
X33141Y-32603D01*
X33113Y-32717D01*
X33056Y-32774D01*
X32998Y-32803D01*
X32884Y-32803D01*
X33656Y-32403D02*
X33656Y-32803D01*
X33513Y-32174D02*
X33370Y-32603D01*
X33742Y-32603D01*
X29352Y-43489D02*
X29295Y-43460D01*
X29238Y-43403D01*
X29152Y-43318D01*
X29095Y-43289D01*
X29038Y-43289D01*
X29066Y-43432D02*
X29009Y-43403D01*
X28952Y-43346D01*
X28923Y-43232D01*
X28923Y-43032D01*
X28952Y-42918D01*
X29009Y-42860D01*
X29066Y-42832D01*
X29180Y-42832D01*
X29238Y-42860D01*
X29295Y-42918D01*
X29323Y-43032D01*
X29323Y-43232D01*
X29295Y-43346D01*
X29238Y-43403D01*
X29180Y-43432D01*
X29066Y-43432D01*
X29552Y-42889D02*
X29581Y-42860D01*
X29638Y-42832D01*
X29781Y-42832D01*
X29838Y-42860D01*
X29867Y-42889D01*
X29895Y-42946D01*
X29895Y-43003D01*
X29867Y-43089D01*
X29524Y-43432D01*
X29895Y-43432D01*
X29510Y-40261D02*
X29453Y-40232D01*
X29396Y-40175D01*
X29310Y-40090D01*
X29253Y-40061D01*
X29196Y-40061D01*
X29224Y-40204D02*
X29167Y-40175D01*
X29110Y-40118D01*
X29081Y-40004D01*
X29081Y-39804D01*
X29110Y-39690D01*
X29167Y-39632D01*
X29224Y-39604D01*
X29338Y-39604D01*
X29396Y-39632D01*
X29453Y-39690D01*
X29481Y-39804D01*
X29481Y-40004D01*
X29453Y-40118D01*
X29396Y-40175D01*
X29338Y-40204D01*
X29224Y-40204D01*
X29682Y-39604D02*
X30053Y-39604D01*
X29853Y-39832D01*
X29939Y-39832D01*
X29996Y-39861D01*
X30025Y-39890D01*
X30053Y-39947D01*
X30053Y-40090D01*
X30025Y-40147D01*
X29996Y-40175D01*
X29939Y-40204D01*
X29767Y-40204D01*
X29710Y-40175D01*
X29682Y-40147D01*
X21978Y-43157D02*
X21778Y-42871D01*
X21635Y-43157D02*
X21635Y-42557D01*
X21863Y-42557D01*
X21921Y-42585D01*
X21949Y-42614D01*
X21978Y-42671D01*
X21978Y-42757D01*
X21949Y-42814D01*
X21921Y-42843D01*
X21863Y-42871D01*
X21635Y-42871D01*
X22206Y-42614D02*
X22235Y-42585D01*
X22292Y-42557D01*
X22435Y-42557D01*
X22492Y-42585D01*
X22521Y-42614D01*
X22549Y-42671D01*
X22549Y-42728D01*
X22521Y-42814D01*
X22178Y-43157D01*
X22549Y-43157D01*
X22920Y-42557D02*
X22977Y-42557D01*
X23034Y-42585D01*
X23063Y-42614D01*
X23092Y-42671D01*
X23120Y-42785D01*
X23120Y-42928D01*
X23092Y-43043D01*
X23063Y-43100D01*
X23034Y-43128D01*
X22977Y-43157D01*
X22920Y-43157D01*
X22863Y-43128D01*
X22834Y-43100D01*
X22806Y-43043D01*
X22777Y-42928D01*
X22777Y-42785D01*
X22806Y-42671D01*
X22834Y-42614D01*
X22863Y-42585D01*
X22920Y-42557D01*
X27310Y-54072D02*
X27710Y-54672D01*
X27710Y-54072D02*
X27310Y-54672D01*
X28252Y-54672D02*
X27909Y-54672D01*
X28081Y-54672D02*
X28081Y-54072D01*
X28024Y-54158D01*
X27966Y-54215D01*
X27909Y-54243D01*
X35741Y-45906D02*
X35717Y-45931D01*
X35644Y-45955D01*
X35595Y-45955D01*
X35522Y-45931D01*
X35473Y-45882D01*
X35449Y-45833D01*
X35425Y-45736D01*
X35425Y-45663D01*
X35449Y-45565D01*
X35473Y-45516D01*
X35522Y-45468D01*
X35595Y-45443D01*
X35644Y-45443D01*
X35717Y-45468D01*
X35741Y-45492D01*
X35912Y-45443D02*
X36229Y-45443D01*
X36058Y-45638D01*
X36132Y-45638D01*
X36180Y-45663D01*
X36205Y-45687D01*
X36229Y-45736D01*
X36229Y-45858D01*
X36205Y-45906D01*
X36180Y-45931D01*
X36132Y-45955D01*
X35985Y-45955D01*
X35937Y-45931D01*
X35912Y-45906D01*
X34833Y-46112D02*
X34931Y-46112D01*
X34980Y-46137D01*
X35028Y-46185D01*
X35053Y-46283D01*
X35053Y-46454D01*
X35028Y-46551D01*
X34980Y-46600D01*
X34931Y-46624D01*
X34833Y-46624D01*
X34785Y-46600D01*
X34736Y-46551D01*
X34712Y-46454D01*
X34712Y-46283D01*
X34736Y-46185D01*
X34785Y-46137D01*
X34833Y-46112D01*
X35199Y-46283D02*
X35394Y-46283D01*
X35272Y-46624D02*
X35272Y-46185D01*
X35296Y-46137D01*
X35345Y-46112D01*
X35394Y-46112D01*
X35492Y-46283D02*
X35687Y-46283D01*
X35565Y-46624D02*
X35565Y-46185D01*
X35589Y-46137D01*
X35638Y-46112D01*
X35687Y-46112D01*
X35834Y-46600D02*
X35882Y-46624D01*
X35980Y-46624D01*
X36029Y-46600D01*
X36053Y-46551D01*
X36053Y-46527D01*
X36029Y-46478D01*
X35980Y-46454D01*
X35907Y-46454D01*
X35858Y-46429D01*
X35834Y-46380D01*
X35834Y-46356D01*
X35858Y-46307D01*
X35907Y-46283D01*
X35980Y-46283D01*
X36029Y-46307D01*
X36467Y-46600D02*
X36418Y-46624D01*
X36321Y-46624D01*
X36272Y-46600D01*
X36248Y-46551D01*
X36248Y-46356D01*
X36272Y-46307D01*
X36321Y-46283D01*
X36418Y-46283D01*
X36467Y-46307D01*
X36491Y-46356D01*
X36491Y-46405D01*
X36248Y-46454D01*
X36638Y-46283D02*
X36833Y-46283D01*
X36711Y-46112D02*
X36711Y-46551D01*
X36735Y-46600D01*
X36784Y-46624D01*
X36833Y-46624D01*
X34402Y-52363D02*
X34378Y-52388D01*
X34305Y-52412D01*
X34256Y-52412D01*
X34183Y-52388D01*
X34134Y-52339D01*
X34110Y-52290D01*
X34086Y-52193D01*
X34086Y-52120D01*
X34110Y-52022D01*
X34134Y-51973D01*
X34183Y-51925D01*
X34256Y-51900D01*
X34305Y-51900D01*
X34378Y-51925D01*
X34402Y-51949D01*
X34866Y-51900D02*
X34622Y-51900D01*
X34598Y-52144D01*
X34622Y-52120D01*
X34671Y-52095D01*
X34793Y-52095D01*
X34841Y-52120D01*
X34866Y-52144D01*
X34890Y-52193D01*
X34890Y-52315D01*
X34866Y-52363D01*
X34841Y-52388D01*
X34793Y-52412D01*
X34671Y-52412D01*
X34622Y-52388D01*
X34598Y-52363D01*
X32861Y-52852D02*
X32690Y-52852D01*
X32690Y-53120D02*
X32690Y-52608D01*
X32934Y-52608D01*
X33129Y-53120D02*
X33129Y-52779D01*
X33129Y-52876D02*
X33153Y-52828D01*
X33178Y-52803D01*
X33226Y-52779D01*
X33275Y-52779D01*
X33641Y-53096D02*
X33592Y-53120D01*
X33495Y-53120D01*
X33446Y-53096D01*
X33422Y-53047D01*
X33422Y-52852D01*
X33446Y-52803D01*
X33495Y-52779D01*
X33592Y-52779D01*
X33641Y-52803D01*
X33665Y-52852D01*
X33665Y-52901D01*
X33422Y-52950D01*
X34104Y-52779D02*
X34104Y-53291D01*
X34104Y-53096D02*
X34056Y-53120D01*
X33958Y-53120D01*
X33909Y-53096D01*
X33885Y-53071D01*
X33861Y-53023D01*
X33861Y-52876D01*
X33885Y-52828D01*
X33909Y-52803D01*
X33958Y-52779D01*
X34056Y-52779D01*
X34104Y-52803D01*
X34665Y-52608D02*
X34957Y-52608D01*
X34811Y-53120D02*
X34811Y-52608D01*
X35128Y-53120D02*
X35128Y-52779D01*
X35128Y-52876D02*
X35152Y-52828D01*
X35177Y-52803D01*
X35225Y-52779D01*
X35274Y-52779D01*
X35445Y-53120D02*
X35445Y-52779D01*
X35445Y-52608D02*
X35421Y-52633D01*
X35445Y-52657D01*
X35469Y-52633D01*
X35445Y-52608D01*
X35445Y-52657D01*
X35689Y-53120D02*
X35689Y-52779D01*
X35689Y-52828D02*
X35713Y-52803D01*
X35762Y-52779D01*
X35835Y-52779D01*
X35884Y-52803D01*
X35908Y-52852D01*
X35908Y-53120D01*
X35908Y-52852D02*
X35933Y-52803D01*
X35981Y-52779D01*
X36055Y-52779D01*
X36103Y-52803D01*
X36128Y-52852D01*
X36128Y-53120D01*
G54D12*
X37102Y-54105D02*
X37102Y-53593D01*
X37224Y-53593D01*
X37297Y-53618D01*
X37346Y-53666D01*
X37370Y-53715D01*
X37394Y-53813D01*
X37394Y-53886D01*
X37370Y-53983D01*
X37346Y-54032D01*
X37297Y-54081D01*
X37224Y-54105D01*
X37102Y-54105D01*
X37590Y-53642D02*
X37614Y-53618D01*
X37663Y-53593D01*
X37785Y-53593D01*
X37833Y-53618D01*
X37858Y-53642D01*
X37882Y-53691D01*
X37882Y-53740D01*
X37858Y-53813D01*
X37565Y-54105D01*
X37882Y-54105D01*
X36976Y-54585D02*
X36805Y-54585D01*
X36805Y-54853D02*
X36805Y-54341D01*
X37049Y-54341D01*
X37220Y-54829D02*
X37293Y-54853D01*
X37415Y-54853D01*
X37463Y-54829D01*
X37488Y-54804D01*
X37512Y-54756D01*
X37512Y-54707D01*
X37488Y-54658D01*
X37463Y-54634D01*
X37415Y-54609D01*
X37317Y-54585D01*
X37268Y-54561D01*
X37244Y-54536D01*
X37220Y-54488D01*
X37220Y-54439D01*
X37244Y-54390D01*
X37268Y-54366D01*
X37317Y-54341D01*
X37439Y-54341D01*
X37512Y-54366D01*
X37732Y-54853D02*
X37732Y-54341D01*
X38024Y-54853D02*
X37805Y-54561D01*
X38024Y-54341D02*
X37732Y-54634D01*
X38008Y-48514D02*
X38008Y-48002D01*
X38130Y-48002D01*
X38203Y-48027D01*
X38252Y-48075D01*
X38276Y-48124D01*
X38300Y-48222D01*
X38300Y-48295D01*
X38276Y-48392D01*
X38252Y-48441D01*
X38203Y-48490D01*
X38130Y-48514D01*
X38008Y-48514D01*
X38788Y-48514D02*
X38496Y-48514D01*
X38642Y-48514D02*
X38642Y-48002D01*
X38593Y-48075D01*
X38544Y-48124D01*
X38496Y-48149D01*
X40134Y-54105D02*
X40134Y-53593D01*
X40256Y-53593D01*
X40329Y-53618D01*
X40378Y-53666D01*
X40402Y-53715D01*
X40426Y-53813D01*
X40426Y-53886D01*
X40402Y-53983D01*
X40378Y-54032D01*
X40329Y-54081D01*
X40256Y-54105D01*
X40134Y-54105D01*
X40597Y-53593D02*
X40938Y-53593D01*
X40719Y-54105D01*
X40122Y-54341D02*
X40414Y-54341D01*
X40268Y-54853D02*
X40268Y-54341D01*
X40536Y-54341D02*
X40877Y-54853D01*
X40877Y-54341D02*
X40536Y-54853D01*
G54D11*
X38993Y-22045D02*
X38993Y-22473D01*
X38965Y-22559D01*
X38908Y-22616D01*
X38822Y-22645D01*
X38765Y-22645D01*
X39250Y-22102D02*
X39279Y-22073D01*
X39336Y-22045D01*
X39479Y-22045D01*
X39536Y-22073D01*
X39565Y-22102D01*
X39593Y-22159D01*
X39593Y-22216D01*
X39565Y-22302D01*
X39222Y-22645D01*
X39593Y-22645D01*
X40188Y-22045D02*
X40188Y-22531D01*
X40216Y-22588D01*
X40245Y-22616D01*
X40302Y-22645D01*
X40416Y-22645D01*
X40474Y-22616D01*
X40502Y-22588D01*
X40531Y-22531D01*
X40531Y-22045D01*
X40788Y-22616D02*
X40874Y-22645D01*
X41017Y-22645D01*
X41074Y-22616D01*
X41103Y-22588D01*
X41131Y-22531D01*
X41131Y-22473D01*
X41103Y-22416D01*
X41074Y-22388D01*
X41017Y-22359D01*
X40903Y-22331D01*
X40845Y-22302D01*
X40817Y-22273D01*
X40788Y-22216D01*
X40788Y-22159D01*
X40817Y-22102D01*
X40845Y-22073D01*
X40903Y-22045D01*
X41045Y-22045D01*
X41131Y-22073D01*
X41588Y-22331D02*
X41674Y-22359D01*
X41702Y-22388D01*
X41731Y-22445D01*
X41731Y-22531D01*
X41702Y-22588D01*
X41674Y-22616D01*
X41616Y-22645D01*
X41388Y-22645D01*
X41388Y-22045D01*
X41588Y-22045D01*
X41645Y-22073D01*
X41674Y-22102D01*
X41702Y-22159D01*
X41702Y-22216D01*
X41674Y-22273D01*
X41645Y-22302D01*
X41588Y-22331D01*
X41388Y-22331D01*
X46848Y-45319D02*
X46877Y-45233D01*
X46877Y-45090D01*
X46848Y-45033D01*
X46820Y-45004D01*
X46763Y-44976D01*
X46705Y-44976D01*
X46648Y-45004D01*
X46620Y-45033D01*
X46591Y-45090D01*
X46563Y-45204D01*
X46534Y-45262D01*
X46505Y-45290D01*
X46448Y-45319D01*
X46391Y-45319D01*
X46334Y-45290D01*
X46305Y-45262D01*
X46277Y-45204D01*
X46277Y-45062D01*
X46305Y-44976D01*
X46877Y-44405D02*
X46877Y-44748D01*
X46877Y-44576D02*
X46277Y-44576D01*
X46363Y-44633D01*
X46420Y-44691D01*
X46448Y-44748D01*
X32713Y-25942D02*
X32713Y-26370D01*
X32685Y-26456D01*
X32628Y-26513D01*
X32542Y-26542D01*
X32485Y-26542D01*
X33313Y-26542D02*
X32970Y-26542D01*
X33142Y-26542D02*
X33142Y-25942D01*
X33085Y-26028D01*
X33027Y-26085D01*
X32970Y-26113D01*
X33856Y-26313D02*
X34313Y-26313D01*
X34084Y-26542D02*
X34084Y-26085D01*
X34913Y-26542D02*
X34570Y-26542D01*
X34742Y-26542D02*
X34742Y-25942D01*
X34685Y-26028D01*
X34627Y-26085D01*
X34570Y-26113D01*
X35141Y-25999D02*
X35170Y-25970D01*
X35227Y-25942D01*
X35370Y-25942D01*
X35427Y-25970D01*
X35456Y-25999D01*
X35484Y-26056D01*
X35484Y-26113D01*
X35456Y-26199D01*
X35113Y-26542D01*
X35484Y-26542D01*
X35655Y-25942D02*
X35855Y-26542D01*
X36055Y-25942D01*
X36255Y-26542D02*
X36255Y-25942D01*
X36398Y-25942D01*
X36483Y-25970D01*
X36541Y-26028D01*
X36569Y-26085D01*
X36598Y-26199D01*
X36598Y-26285D01*
X36569Y-26399D01*
X36541Y-26456D01*
X36483Y-26513D01*
X36398Y-26542D01*
X36255Y-26542D01*
X37198Y-26485D02*
X37169Y-26513D01*
X37083Y-26542D01*
X37026Y-26542D01*
X36941Y-26513D01*
X36883Y-26456D01*
X36855Y-26399D01*
X36826Y-26285D01*
X36826Y-26199D01*
X36855Y-26085D01*
X36883Y-26028D01*
X36941Y-25970D01*
X37026Y-25942D01*
X37083Y-25942D01*
X37169Y-25970D01*
X37198Y-25999D01*
%LPC*%
G54D18*
X37353Y-30473D03*
X38720Y-30473D03*
X35472Y-27236D03*
X35472Y-28603D03*
X35472Y-30425D03*
X35472Y-31792D03*
X31929Y-44812D03*
X31929Y-43445D03*
X29007Y-44409D03*
X30374Y-44409D03*
X31929Y-40582D03*
X31929Y-41949D03*
X33347Y-43693D03*
X33347Y-45060D03*
X25306Y-50472D03*
X26673Y-50472D03*
X40354Y-48259D03*
X40354Y-49626D03*
X32331Y-28741D03*
X30964Y-28741D03*
X26133Y-42520D03*
X27500Y-42520D03*
X26811Y-39086D03*
X26811Y-40453D03*
X30346Y-33858D03*
X31713Y-33858D03*
X27196Y-33819D03*
X28563Y-33819D03*
X30166Y-46260D03*
X28799Y-46260D03*
X21260Y-47039D03*
X21260Y-48406D03*
X30276Y-49204D03*
X30276Y-50571D03*
X38355Y-49488D03*
X36988Y-49488D03*
X40875Y-41378D03*
X39508Y-41378D03*
X38141Y-42874D03*
X39508Y-42874D03*
X39536Y-44488D03*
X38169Y-44488D03*
X41260Y-27393D03*
X41260Y-28760D03*
X42835Y-27393D03*
X42835Y-28760D03*
X28543Y-50363D03*
X28543Y-48996D03*
X38898Y-33788D03*
X38898Y-32421D03*
G54D19*
X36650Y-39492D03*
G54D18*
X37650Y-39492D03*
X38650Y-39492D03*
X39650Y-39492D03*
X39650Y-36492D03*
X38650Y-36492D03*
X37650Y-36492D03*
X36650Y-36492D03*
G54D20*
X42134Y-37756D03*
G54D21*
X46134Y-37756D03*
G54D20*
X45905Y-26306D03*
G54D21*
X45905Y-30306D03*
G54D20*
X44212Y-26306D03*
G54D21*
X44212Y-30306D03*
G54D20*
X39843Y-26307D03*
G54D21*
X39843Y-30307D03*
G54D19*
X40516Y-23465D03*
G54D18*
X37516Y-23465D03*
G54D19*
X40516Y-24724D03*
G54D18*
X37516Y-24724D03*
X23835Y-30669D03*
X21835Y-30669D03*
X43095Y-36220D03*
X45095Y-36220D03*
X43134Y-32126D03*
X45134Y-32126D03*
X37165Y-34543D03*
X37165Y-32543D03*
X37260Y-41417D03*
X35260Y-41417D03*
X33488Y-47953D03*
X35488Y-47953D03*
X32126Y-49197D03*
X32126Y-51197D03*
X42047Y-42858D03*
X42047Y-44858D03*
X27244Y-48402D03*
X27244Y-46402D03*
X22992Y-46362D03*
X22992Y-48362D03*
X33346Y-39039D03*
X33346Y-41039D03*
X21835Y-35157D03*
X23835Y-35157D03*
X28843Y-47953D03*
X30843Y-47953D03*
X23480Y-44449D03*
X21480Y-44449D03*
X30983Y-32024D03*
X30983Y-30024D03*
X23835Y-27362D03*
X21835Y-27362D03*
X21835Y-31811D03*
X23835Y-31811D03*
X23835Y-36339D03*
X21835Y-36339D03*
X26969Y-30961D03*
X26969Y-28961D03*
X30928Y-27442D03*
X32928Y-27442D03*
X25157Y-40449D03*
X25157Y-38449D03*
X27496Y-44449D03*
X25496Y-44449D03*
G54D22*
X45264Y-42142D03*
G54D23*
X44264Y-42142D03*
X45264Y-41142D03*
X44264Y-41142D03*
X45264Y-40142D03*
X44264Y-40142D03*
G54D24*
X22441Y-22441D03*
X44488Y-22441D03*
X22441Y-52362D03*
X44488Y-52362D03*
G54D25*
X26150Y-22980D03*
X30150Y-22980D03*
G54D26*
X28150Y-24980D03*
X27150Y-24980D03*
G54D27*
X22441Y-28504D03*
X24410Y-29606D03*
X24410Y-34055D03*
X22441Y-32953D03*
X29527Y-28425D03*
X28425Y-30394D03*
X28976Y-29410D03*
G54D28*
X43445Y-34134D03*
X43937Y-34725D03*
X43937Y-33543D03*
X37834Y-28170D03*
X38425Y-27678D03*
X37243Y-27678D03*
X25413Y-47638D03*
X24921Y-47047D03*
X24921Y-48229D03*
X33601Y-30946D03*
X33109Y-30355D03*
X33109Y-31537D03*
X29409Y-42106D03*
X30000Y-41614D03*
X28818Y-41614D03*
G54D29*
X29606Y-38701D03*
X30504Y-38701D03*
G54D30*
X28708Y-38701D03*
G54D31*
X21221Y-41851D03*
X23189Y-41851D03*
X22205Y-37913D03*
G54D32*
X28740Y-52992D03*
X26850Y-52992D03*
G54D33*
X36811Y-43976D03*
X34843Y-43976D03*
X34528Y-51260D03*
X34528Y-49292D03*
G54D34*
X36902Y-52205D03*
X37902Y-52205D03*
X38346Y-47154D03*
X38346Y-46154D03*
X40012Y-52205D03*
X41012Y-52205D03*
G54D35*
X39124Y-20541D03*
X41270Y-20541D03*
G54D36*
X39242Y-21547D03*
X41152Y-21547D03*
G54D37*
X39818Y-20413D03*
X40576Y-20413D03*
G54D38*
X40197Y-21466D03*
X39941Y-21466D03*
X39685Y-21466D03*
X40453Y-21466D03*
X40709Y-21466D03*
G54D23*
X43721Y-44862D03*
X45689Y-44862D03*
G54D39*
X34528Y-22913D03*
X34528Y-25315D03*
G54D40*
X32717Y-24173D03*
M02*
